<?xml version="1.0" encoding="UTF-8" standalone="no"?><!DOCTYPE svg PUBLIC "-//W3C//DTD SVG 1.1//EN" "http://www.w3.org/Graphics/SVG/1.1/DTD/svg11.dtd"><svg width="100%" height="100%" viewBox="0 0 8000 4500" version="1.1" xmlns="http://www.w3.org/2000/svg" xmlns:xlink="http://www.w3.org/1999/xlink" xml:space="preserve" xmlns:serif="http://www.serif.com/" style="fill-rule:evenodd;clip-rule:evenodd;stroke-linejoin:round;stroke-miterlimit:2;"><g id="Layer_4"><g><path d="M4046.77,3245.37l-194.091,201.823l52.756,-96.61l141.335,-105.213Z" style="fill:#fe53f7;fill-rule:nonzero;"/><path d="M4218.03,3437.15l-171.263,-191.779l159.193,155.503l12.07,36.276Z" style="fill:#fe53f7;fill-rule:nonzero;"/><path d="M3852.68,3447.19l365.354,-10.044l-171.263,-191.779l-194.091,201.823Z" style="fill:#aa00a9;fill-rule:nonzero;"/><path d="M3852.68,3447.19l370.712,805.428l-5.358,-815.472l-365.354,10.044Z" style="fill:#fe53f7;fill-rule:nonzero;"/><path d="M3852.68,4252.53l370.712,0.09l-370.712,-805.428l-0,805.338Z" style="fill:#b300b1;fill-rule:nonzero;"/><path d="M4853.53,3251.68l250.238,-202.54l0.823,202.54l-251.061,0Z" style="fill:#a50;fill-rule:nonzero;"/><path d="M5111.92,3040.01l-683.974,-481.957l675.827,-128.605l8.147,610.562Z" style="fill:#a50;fill-rule:nonzero;"/><path d="M4427.1,2431.35l0.845,126.702l675.827,-126.702l-676.672,0Z" style="fill:#ff5;fill-rule:nonzero;"/><path d="M5111.92,3040.01l-258.385,209.134l-20.776,-408.017l279.161,198.883Z" style="fill:#ff5;fill-rule:nonzero;"/><path d="M4427.95,2558.05l305.627,527.085l-304.086,-292.671l-1.541,-234.414Z" style="fill:#a50;fill-rule:nonzero;"/><path d="M4763.19,2794.28l-29.62,290.853l-305.627,-527.085l335.247,236.232Z" style="fill:#ff5;fill-rule:nonzero;"/><path d="M5175.32,2699.44l263.257,611.116l-245.297,-0l-17.96,-611.116Z" style="fill:#a50;fill-rule:nonzero;"/><path d="M5437.71,2699.44l-263.53,-0l264.388,611.116l-0.858,-611.116Z" style="fill:#ff5;fill-rule:nonzero;"/><path d="M5437.71,2632.42l76.812,539.131l-17.391,-531.958l-59.421,-7.173Z" style="fill:#a00;fill-rule:nonzero;"/><path d="M5438.38,3171.55l76.149,-0l-76.812,-539.131l0.663,539.131Z" style="fill:#f55;fill-rule:nonzero;"/><path d="M5095.24,2362.85l93.025,773.913l-22.608,-763.606l-70.417,-10.307Z" style="fill:#a00;fill-rule:nonzero;"/><path d="M5103.77,3136.77l89.553,0.832l-98.088,-774.745l8.535,773.913Z" style="fill:#f55;fill-rule:nonzero;"/><path d="M5437.71,2670.03l-262.399,29.411l-0.963,-28.88l263.362,-0.531Z" style="fill:#f55;fill-rule:nonzero;"/><path d="M5437.71,2699.44l0,-29.411l-267.391,29.411l267.391,-0Z" style="fill:#a00;fill-rule:nonzero;"/><path d="M5095.24,2401.4l-668.137,29.949l-0.202,-30.765l668.339,0.816Z" style="fill:#f55;fill-rule:nonzero;"/><path d="M5095.39,2431.35l-0.152,-29.949l-668.137,29.949l668.289,0Z" style="fill:#a00;fill-rule:nonzero;"/><path d="M2635.66,2632.42l-76.812,539.131l17.392,-531.958l59.42,-7.173Z" style="fill:#a00;fill-rule:nonzero;"/><path d="M2634.21,3171.55l-75.363,-0l76.812,-539.131l-1.449,539.131Z" style="fill:#f55;fill-rule:nonzero;"/><path d="M2978.13,2362.85l-91.027,774.745l20.61,-764.438l70.417,-10.307Z" style="fill:#a00;fill-rule:nonzero;"/><path d="M2979.14,3136.77l-92.029,0.832l91.027,-774.745l1.002,773.913Z" style="fill:#f55;fill-rule:nonzero;"/><path d="M2558.85,3171.55l34.783,-11.595l-0,-405.797l-34.783,417.392Z" style="fill:#00a;fill-rule:nonzero;"/><path d="M2634.21,3171.55l-40.58,-417.392l-0,405.797l40.58,11.595Z" style="fill:#020202;fill-rule:nonzero;"/><path d="M2894.94,3149.92l34.782,-11.595l0,-405.797l-34.782,417.392Z" style="fill:#00a;fill-rule:nonzero;"/><path d="M2970.3,3149.92l-40.58,-417.392l0,405.797l40.58,11.595Z" style="fill:#020202;fill-rule:nonzero;"/><path d="M2978.13,2430.75l667.005,380.056l0,-381.359l-667.005,1.303Z" style="fill:#a50;fill-rule:nonzero;"/><path d="M2978.13,3249.14l305.35,-659.42l-305.5,-158.973l0.15,818.393Z" style="fill:#ff5;fill-rule:nonzero;"/><path d="M3233.11,3248.74l45.283,-656.15l-300.258,656.552l254.975,-0.402Z" style="fill:#a50;fill-rule:nonzero;"/><path d="M3644.99,2810.81l-312.633,289.464l-53.052,-513.214l365.684,223.75Z" style="fill:#ff5;fill-rule:nonzero;"/><path d="M2635.48,2699.44l246.248,612.971l21.323,-612.971l-267.571,-0Z" style="fill:#ff5;fill-rule:nonzero;"/><path d="M2634.4,3314l247.326,-1.594l-246.248,-612.971l-1.078,614.565Z" style="fill:#a50;fill-rule:nonzero;"/><path d="M3283.48,2559.95l0,472.464l49.276,0l-49.276,-472.464Z" style="fill:#020202;fill-rule:nonzero;"/><path d="M3231.31,3032.42l52.174,0l0,-472.464l-52.174,472.464Z" style="fill:#00a;fill-rule:nonzero;"/><path d="M4793.63,2559.95l14.493,472.464l-75.362,0l60.869,-472.464Z" style="fill:#00a;fill-rule:nonzero;"/><path d="M4857.4,3032.42l-49.275,0l-14.493,-472.464l63.768,472.464Z" style="fill:#020202;fill-rule:nonzero;"/><path d="M5144.35,2664.3l52.174,472.464l-52.174,-17.391l-0,-455.073Z" style="fill:#020202;fill-rule:nonzero;"/><path d="M5103.77,3136.77l40.58,-17.391l-0,-455.073l-40.58,472.464Z" style="fill:#00a;fill-rule:nonzero;"/><path d="M5437.11,3171.55l37.682,-20.29l14.492,-397.102l-52.174,417.392Z" style="fill:#00a;fill-rule:nonzero;"/><path d="M5521.16,3151.26l-46.376,-0l14.492,-397.102l31.884,397.102Z" style="fill:#020202;fill-rule:nonzero;"/><path d="M5437.11,4252.71l37.682,-1101.45l46.376,1101.45l-84.058,0Z" style="fill:#020202;fill-rule:nonzero;"/><path d="M5438.57,3170.76l36.218,-19.501l-36.218,1101.5l0,-1082Z" style="fill:#55f;fill-rule:nonzero;"/><path d="M5521.16,4252.71l0,-1101.45l-46.376,-0l46.376,1101.45Z" style="fill:#55f;fill-rule:nonzero;"/><path d="M5111.92,4249.61l32.433,-1130.23l51.957,1130.23l-84.39,-0Z" style="fill:#020202;fill-rule:nonzero;"/><path d="M5103.77,3136.77l40.58,-17.391l-32.433,1130.23l-8.147,-1112.84Z" style="fill:#55f;fill-rule:nonzero;"/><path d="M5196.31,4249.61l0.217,-1112.84l-52.174,-17.391l51.957,1130.23Z" style="fill:#55f;fill-rule:nonzero;"/><path d="M4751.6,4252.53l56.522,-1220.11l27.536,1220.11l-84.058,-0Z" style="fill:#020202;fill-rule:nonzero;"/><path d="M4732.76,3032.42l75.362,0l-56.522,1220.11l-18.84,-1220.11Z" style="fill:#55f;fill-rule:nonzero;"/><path d="M4835.66,4252.53l21.739,-1220.11l-49.275,0l27.536,1220.11Z" style="fill:#55f;fill-rule:nonzero;"/><path d="M3241.45,4252.53l42.029,-1220.11l42.029,1220.11l-84.058,-0Z" style="fill:#020202;fill-rule:nonzero;"/><path d="M3231.31,3032.42l52.174,0l-42.029,1220.11l-10.145,-1220.11Z" style="fill:#55f;fill-rule:nonzero;"/><path d="M3325.51,4252.53l7.247,-1220.11l-49.276,0l42.029,1220.11Z" style="fill:#55f;fill-rule:nonzero;"/><path d="M2551.6,4252.53l42.029,-1094.02l42.029,1094.02l-84.058,-0Z" style="fill:#020202;fill-rule:nonzero;"/><path d="M2558.85,3171.55l34.783,-11.595l-42.029,1092.57l7.246,-1080.98Z" style="fill:#55f;fill-rule:nonzero;"/><path d="M2635.66,4252.53l-1.449,-1080.98l-40.58,-11.595l42.029,1092.57Z" style="fill:#55f;fill-rule:nonzero;"/><path d="M2887.83,4252.53l37.681,-1115.76l46.377,1115.76l-84.058,-0Z" style="fill:#020202;fill-rule:nonzero;"/><path d="M2880.59,3136.77l44.927,0l-37.681,1115.76l-7.246,-1115.76Z" style="fill:#55f;fill-rule:nonzero;"/><path d="M2971.89,4252.53l7.246,-1115.76l-53.623,0l46.377,1115.76Z" style="fill:#55f;fill-rule:nonzero;"/><path d="M4326.03,4252.53l8.695,-1984.87l104.348,1985.05l-113.043,-0.181Z" style="fill:#a00;fill-rule:nonzero;"/><path d="M4426.03,2267.66l-91.305,-0l104.348,1985.05l-13.043,-1985.05Z" style="fill:#020202;fill-rule:nonzero;"/><path d="M3637,4252.53l8.696,-1984.87l104.347,1985.05l-113.043,-0.181Z" style="fill:#a00;fill-rule:nonzero;"/><path d="M3737,2267.66l-91.304,-0l104.347,1985.05l-13.043,-1985.05Z" style="fill:#020202;fill-rule:nonzero;"/><path d="M3624.49,2267.66l821.74,-0l-821.74,-52.174l0,52.174Z" style="fill:#a00;fill-rule:nonzero;"/><path d="M4446.23,2215.49l-0,52.174l-821.74,-52.174l821.74,0Z" style="fill:#f55;fill-rule:nonzero;"/><path d="M3645.7,2215.49l344.688,-1663.77l-80.301,1663.77l-264.387,0Z" style="fill:#00a;fill-rule:nonzero;"/><path d="M4426.03,2215.49l-339.131,-1663.77l84.058,1663.77l255.073,0Z" style="fill:#00a;fill-rule:nonzero;"/><path d="M3910.08,2215.49l176.811,-1663.77l-96.51,-0l-80.301,1663.77Z" style="fill:#555;fill-rule:nonzero;"/><path d="M4170.95,2215.49l-84.058,-1663.77l-176.811,1663.77l260.869,0Z" style="fill:#aaa;fill-rule:nonzero;"/><path d="M4054.29,2431.35l-317.286,-163.689l2.99,455.069l314.296,-291.38Z" style="fill:#aaa;fill-rule:nonzero;"/><path d="M4334.72,2267.66l-280.434,163.689l-317.286,-163.689l597.72,-0Z" style="fill:#55f;fill-rule:nonzero;"/><path d="M4332.83,2699.44l-278.543,-268.088l280.434,-163.689l-1.891,431.777Z" style="fill:#aaa;fill-rule:nonzero;"/><path d="M3740.1,2738.53l592.643,-18.227l-278.451,-288.949l-314.192,307.176Z" style="fill:#555;fill-rule:nonzero;"/><path d="M3744.69,3437.24l220.869,-705.645l-225.46,6.934l4.591,698.711Z" style="fill:#aaa;fill-rule:nonzero;"/><path d="M4332.74,2720.3l-588.052,716.938l220.869,-705.645l367.183,-11.293Z" style="fill:#55f;fill-rule:nonzero;"/><path d="M4330.13,3315.49l-248.349,-287.848l250.956,-307.345l-2.607,595.193Z" style="fill:#aaa;fill-rule:nonzero;"/><path d="M3852.68,4252.53l-107.993,-815.291l5.358,815.472l102.635,-0.181Z" style="fill:#55f;fill-rule:nonzero;"/><path d="M3852.68,3306.02l-0,946.509l-107.993,-815.291l107.993,-131.218Z" style="fill:#555;fill-rule:nonzero;"/><path d="M3332.14,3136.77l722.148,-705.417l-721.932,668.92l-0.216,36.497Z" style="fill:#a00;fill-rule:nonzero;"/><path d="M4734.88,3137.6l-680.592,-706.249l679.286,653.787l1.306,52.462Z" style="fill:#a00;fill-rule:nonzero;"/><path d="M4326.03,4252.44l-107.993,-815.292l5.358,815.472l102.635,-0.181Z" style="fill:#55f;fill-rule:nonzero;"/><path d="M4330.14,3312.41l-4.118,940.028l-107.993,-815.291l112.111,-124.737Z" style="fill:#555;fill-rule:nonzero;"/><path d="M3852.68,3447.19l229.103,-419.546l-229.103,278.375l-0,141.171Z" style="fill:#aaa;fill-rule:nonzero;"/><path d="M4218.03,3437.15l-136.251,-409.502l248.362,284.765l-112.111,124.737Z" style="fill:#55f;fill-rule:nonzero;"/><path d="M3905.43,3350.58l227.457,-169.325l-51.11,-153.611l-176.347,322.936Z" style="fill:#555;fill-rule:nonzero;"/><path d="M4205.96,3400.87l-159.193,-155.503l86.122,-64.112l73.071,219.615Z" style="fill:#aaa;fill-rule:nonzero;"/><path d="M3468.84,3003.72l26.385,1248.99l-163.09,-1115.94l136.705,-133.047Z" style="fill:#555;fill-rule:nonzero;"/><path d="M3325.51,4252.53l169.717,0.181l-163.09,-1115.94l-6.627,1115.76Z" style="fill:#aaa;fill-rule:nonzero;"/><path d="M3643.26,2832.86l-148.03,1419.85l141.772,-0.181l6.258,-1419.67Z" style="fill:#555;fill-rule:nonzero;"/><path d="M3468.84,3003.72l174.415,-170.865l-148.03,1419.85l-26.385,-1248.99Z" style="fill:#aaa;fill-rule:nonzero;"/><path d="M3088.98,3291.06l29.248,958.853l-140.094,-958.853l110.846,-0Z" style="fill:#555;fill-rule:nonzero;"/><path d="M2971.89,4252.53l146.338,-2.612l-140.094,-958.853l-6.244,961.465Z" style="fill:#aaa;fill-rule:nonzero;"/><path d="M3233.46,3291.06l-115.233,958.853l123.227,2.612l-7.994,-961.465Z" style="fill:#555;fill-rule:nonzero;"/><path d="M3088.98,3291.06l144.481,-0l-115.233,958.853l-29.248,-958.853Z" style="fill:#aaa;fill-rule:nonzero;"/><path d="M2743.41,3312.41l27.357,940.65l-136.369,-939.587l109.012,-1.063Z" style="fill:#555;fill-rule:nonzero;"/><path d="M2635.66,4253.06l135.109,0l-136.368,-939.056l1.259,939.056Z" style="fill:#aaa;fill-rule:nonzero;"/><path d="M2881.72,3313.47l-110.959,939.587l117.065,-0.531l-6.106,-939.056Z" style="fill:#555;fill-rule:nonzero;"/><path d="M2743.41,3312.41l138.315,0l-110.959,940.601l-27.356,-940.601Z" style="fill:#aaa;fill-rule:nonzero;"/><path d="M4615.3,3003.55l-26.385,1248.99l145.967,-1114.93l-119.582,-134.054Z" style="fill:#555;fill-rule:nonzero;"/><path d="M4758.63,4252.35l-169.716,0.181l145.966,-1114.93l23.75,1114.75Z" style="fill:#aaa;fill-rule:nonzero;"/><path d="M4429.67,2820.89l159.24,1431.65l-149.843,0.175l-9.397,-1431.82Z" style="fill:#555;fill-rule:nonzero;"/><path d="M4615.3,3003.55l-185.625,-182.659l159.24,1431.65l26.385,-1248.99Z" style="fill:#aaa;fill-rule:nonzero;"/><path d="M4995.54,3290.89l-29.249,958.853l138.606,-958.853l-109.357,-0Z" style="fill:#555;fill-rule:nonzero;"/><path d="M5111.92,4249.61l-146.006,0.131l138.987,-958.853l7.019,958.722Z" style="fill:#aaa;fill-rule:nonzero;"/><path d="M4852.79,3291.06l113.126,958.678l-130.257,2.787l17.131,-961.465Z" style="fill:#555;fill-rule:nonzero;"/><path d="M4995.54,3290.89l-142.756,0.175l113.126,958.678l29.63,-958.853Z" style="fill:#aaa;fill-rule:nonzero;"/><path d="M5340.73,3310.55l-27.356,939.587l125.197,-939.587l-97.841,-0Z" style="fill:#555;fill-rule:nonzero;"/><path d="M5448.48,4252.88l-135.108,-2.743l125.169,-939.376l9.939,942.119Z" style="fill:#aaa;fill-rule:nonzero;"/><path d="M5196.53,3310.55l116.848,939.587l-117.065,-0.531l0.217,-939.056Z" style="fill:#555;fill-rule:nonzero;"/><path d="M5340.73,3310.55l-144.204,-0l116.848,939.587l27.356,-939.587Z" style="fill:#aaa;fill-rule:nonzero;"/><path d="M2978.13,3291.06l254.975,-42.322l0.352,42.322l-255.327,-0Z" style="fill:#f55;fill-rule:nonzero;"/><path d="M2978.13,3249.14l0,41.92l254.975,-42.322l-254.975,0.402Z" style="fill:#bc2222;fill-rule:nonzero;"/><path d="M4852.79,3291.06l251.808,-41.92l0.305,41.745l-252.113,0.175Z" style="fill:#f55;fill-rule:nonzero;"/><path d="M4853.53,3249.14l-0.747,41.92l251.808,-41.92l-251.061,0Z" style="fill:#a00;fill-rule:nonzero;"/><path d="M2635.48,2670.01l267.571,29.431l0,-29.411l-267.571,-0.02Z" style="fill:#f55;fill-rule:nonzero;"/><path d="M2635.48,2699.44l0,-29.431l267.571,29.431l-267.571,-0Z" style="fill:#a00;fill-rule:nonzero;"/><path d="M2977.98,2400.91l667.005,28.532l0.129,-29.411l-667.134,0.879Z" style="fill:#f55;fill-rule:nonzero;"/><path d="M2977.98,2430.75l-0,-29.835l667.005,28.532l-667.005,1.303Z" style="fill:#a00;fill-rule:nonzero;"/><path d="M3990.39,551.719l96.51,-0l-48.255,-90.694l-48.255,90.694Z" style="fill:#00a;fill-rule:nonzero;"/><path d="M3471.16,3593.26l56.38,-107.203l-56.38,-13.907l-0,121.11Z" style="fill:#55fdfe;fill-rule:nonzero;"/><path d="M3350.61,3608.41l-0,439.233l231.733,-439.233l-113.501,-32.036l-118.232,32.036Z" style="fill:#55fdfe;fill-rule:nonzero;"/><path d="M3583.99,3549.15l-56.445,-63.098l-56.38,107.203l112.825,-44.105Z" style="fill:#ff55fe;fill-rule:nonzero;"/><path d="M3582.35,3608.41l1.64,-59.258l-112.825,44.105l111.185,15.153Z" style="fill:#0aa;fill-rule:nonzero;"/><path d="M3427.35,3480.32l43.815,-8.175l-0,121.11l-43.815,-112.935Z" style="fill:#ff55fe;fill-rule:nonzero;"/><path d="M3371.82,3523.98l55.529,-43.659l43.815,112.935l-99.344,-69.276Z" style="fill:#55fdfe;fill-rule:nonzero;"/><path d="M3350.61,3608.41l21.204,-84.429l99.344,69.276l-120.548,15.153Z" style="fill:#0aa;fill-rule:nonzero;"/><path d="M3350.53,4047.65l233.373,-0l-1.64,-439.234l-231.733,439.234Z" style="fill:#0aa;fill-rule:nonzero;"/><path d="M3475.22,3747.74l34.16,-10.68l2.113,28.134l-30.359,-4.179l-5.914,-13.275Z" style="fill:#aaa;fill-rule:nonzero;"/><path d="M3461.7,3936.92l-7.147,-24.512l-1.273,17.008l8.42,7.504Z" style="fill:#555;fill-rule:nonzero;"/><path d="M3424.11,3903.2l51.115,-155.455l-39.997,149.196l-11.118,6.259Z" style="fill:#555;fill-rule:nonzero;"/><path d="M3459.8,3923.76l25.432,-167.074l26.264,8.509l-51.696,158.565Z" style="fill-rule:nonzero;"/><path d="M3475.22,3747.74l10.009,8.945l-25.432,167.074l15.423,-176.019Z" style="fill:#555;fill-rule:nonzero;"/><path d="M3435.23,3896.94l20.366,12.532l4.208,14.291l15.423,-176.019l-39.997,149.196Z" style="fill-rule:nonzero;"/><path d="M3455.32,3912.64l-16.936,-7.159l-3.156,-8.541l20.092,15.7Z" style="fill:#555;fill-rule:nonzero;"/><path d="M3422.04,3914.47l16.343,-8.998l-25.361,3.705l9.018,5.293Z" style="fill:#555;fill-rule:nonzero;"/><path d="M3422.1,3928.53l-0.058,-14.06l-8.722,16.889l8.78,-2.829Z" style="fill:#555;fill-rule:nonzero;"/><path d="M3436.77,3940.22l-14.673,-11.688l-4.778,9.823l19.451,1.865Z" style="fill:#555;fill-rule:nonzero;"/><path d="M3453.28,3929.42l-16.831,9.915l2.165,10.797l14.666,-20.712Z" style="fill:#555;fill-rule:nonzero;"/><path d="M3413.63,3909.09l21.597,-12.157l3.155,8.541l-24.752,3.616Z" style="fill:#aaa;fill-rule:nonzero;"/><path d="M3454.55,3912.41l2.573,-7.257l-21.896,-8.219l19.323,15.476Z" style="fill:#aaa;fill-rule:nonzero;"/><path d="M3461.7,3936.92l-4.574,-31.769l-2.573,7.257l7.147,24.512Z" style="fill:#aaa;fill-rule:nonzero;"/><path d="M3453.28,3929.42l-14.666,20.712l23.086,-13.208l-8.42,-7.504Z" style="fill:#aaa;fill-rule:nonzero;"/><path d="M3417.32,3938.36l21.292,11.774l-2.165,-10.797l-19.127,-0.977Z" style="fill:#aaa;fill-rule:nonzero;"/><path d="M3413.32,3931.36l4.002,6.994l4.778,-9.823l-8.78,2.829Z" style="fill:#aaa;fill-rule:nonzero;"/><path d="M3413.27,3909.04l0.049,22.323l8.752,-17.157l-8.801,-5.166Z" style="fill:#aaa;fill-rule:nonzero;"/><path d="M3485.61,3723.15l-17.789,10.178l7.403,14.409l10.386,-24.587Z" style="fill:#aaa;fill-rule:nonzero;"/><path d="M3509.38,3737.06l-23.774,-13.907l-10.386,24.587l34.16,-10.68Z" style="fill:#555;fill-rule:nonzero;"/><path d="M3520.09,3732.54l-8.596,32.656l-2.113,-28.134l10.709,-4.522Z" style="fill:#555;fill-rule:nonzero;"/><path d="M3485.61,3723.15l13.481,-36.139l-31.27,46.317l17.789,-10.178Z" style="fill:#555;fill-rule:nonzero;"/><path d="M3466.28,3707.39l1.544,25.938l31.27,-46.317l-32.814,20.379Z" style="fill:#aaa;fill-rule:nonzero;"/><path d="M3520.09,3732.54l14.693,-30.414l-23.289,63.07l8.596,-32.656Z" style="fill:#aaa;fill-rule:nonzero;"/><path d="M3533.75,3750.4l-22.253,14.795l23.289,-63.07l-1.036,48.275Z" style="fill:#555;fill-rule:nonzero;"/><path d="M3534.79,3702.12l-14.693,30.414l11.468,-31.778l3.225,1.364Z" style="fill:#555;fill-rule:nonzero;"/><path d="M4616.28,3582.23l56.38,-107.203l-56.381,-13.907l0.001,121.11Z" style="fill:#55fdfe;fill-rule:nonzero;"/><path d="M4495.73,3597.38l-0,439.234l231.733,-439.234l-113.501,-32.035l-118.232,32.035Z" style="fill:#55fdfe;fill-rule:nonzero;"/><path d="M4729.1,3538.12l-56.444,-63.098l-56.38,107.203l112.824,-44.105Z" style="fill:#ff55fe;fill-rule:nonzero;"/><path d="M4727.46,3597.38l1.639,-59.257l-112.824,44.105l111.185,15.152Z" style="fill:#0aa;fill-rule:nonzero;"/><path d="M4572.46,3469.29l43.815,-8.175l-0,121.11l-43.815,-112.935Z" style="fill:#ff55fe;fill-rule:nonzero;"/><path d="M4516.93,3512.95l55.529,-43.659l43.814,112.935l-99.343,-69.276Z" style="fill:#55fdfe;fill-rule:nonzero;"/><path d="M4495.73,3597.38l21.204,-84.428l99.343,69.276l-120.547,15.152Z" style="fill:#0aa;fill-rule:nonzero;"/><path d="M4495.73,4036.61l233.372,0l-1.639,-439.234l-231.733,439.234Z" style="fill:#0aa;fill-rule:nonzero;"/><g><path d="M4514.52,3892.53l48.093,-44.898l49.278,44.898l-97.371,0Z" style="fill:#0a0;fill-rule:nonzero;"/><path d="M4547.22,3800.7l15.399,46.94l-48.093,44.898l32.694,-91.838Z" style="fill:#5f5;fill-rule:nonzero;"/><path d="M4578.49,3800.7l33.405,91.838l-49.278,-44.898l15.873,-46.94Z" style="fill:#5f5;fill-rule:nonzero;"/><path d="M4547.22,3800.7l31.272,0l-15.873,46.94l-15.399,-46.94Z" style="fill:#0a0;fill-rule:nonzero;"/><path d="M4562.85,3726.2l11.372,6.463l-11.017,20.748l-0.355,-27.211Z" style="fill:#5f5;fill-rule:nonzero;"/><path d="M4581.1,3753.42l-6.87,-20.749l-11.017,20.749l17.887,0Z" style="fill:#0a0;fill-rule:nonzero;"/><path d="M4562.85,3779.95l13.741,-10.544l-13.386,-15.987l-0.355,26.531Z" style="fill:#0a0;fill-rule:nonzero;"/><path d="M4551.24,3773.83l11.964,-20.409l-18.598,0l6.634,20.409Z" style="fill:#0a0;fill-rule:nonzero;"/><path d="M4550.69,3732.67l-6.081,20.748l18.598,0l-12.517,-20.749Z" style="fill:#5f5;fill-rule:nonzero;"/><path d="M4562.85,3726.2l-12.162,6.463l12.517,20.748l-0.355,-27.211Z" style="fill:#0a0;fill-rule:nonzero;"/><path d="M4581.1,3753.42l-4.501,15.987l-13.386,-15.987l17.887,0Z" style="fill:#5f5;fill-rule:nonzero;"/><path d="M4562.85,3779.95l0.355,-26.531l-11.964,20.409l11.609,6.122Z" style="fill:#5f5;fill-rule:nonzero;"/><path d="M4615.65,3672.46l11.372,6.462l-11.017,20.749l-0.355,-27.211Z" style="fill:#f55;fill-rule:nonzero;"/><path d="M4633.82,3700.4l-6.844,-20.667l-10.974,20.667l17.818,0Z" style="fill:#a00;fill-rule:nonzero;"/><path d="M4615.65,3726.2l13.741,-10.544l-13.386,-15.987l-0.355,26.531Z" style="fill:#a00;fill-rule:nonzero;"/><path d="M4604.04,3720.08l11.964,-20.409l-18.597,0l6.633,20.409Z" style="fill:#a00;fill-rule:nonzero;"/><path d="M4603.48,3678.93l-6.08,20.749l18.597,0l-12.517,-20.749Z" style="fill:#f55;fill-rule:nonzero;"/><path d="M4615.65,3672.46l-12.162,6.462l12.517,20.749l-0.355,-27.211Z" style="fill:#a00;fill-rule:nonzero;"/><path d="M4633.89,3699.67l-4.501,15.987l-13.386,-15.987l17.887,0Z" style="fill:#f55;fill-rule:nonzero;"/><path d="M4615.65,3726.2l0.355,-26.531l-11.964,20.409l11.609,6.122Z" style="fill:#f55;fill-rule:nonzero;"/><path d="M4622.32,3892.53l48.093,-44.898l49.278,44.898l-97.371,0Z" style="fill:#a0a;fill-rule:nonzero;"/><path d="M4655.01,3800.7l15.399,46.94l-48.093,44.898l32.694,-91.838Z" style="fill:#f5f;fill-rule:nonzero;"/><path d="M4686.28,3800.7l33.405,91.838l-49.278,-44.898l15.873,-46.94Z" style="fill:#f5f;fill-rule:nonzero;"/><path d="M4655.01,3800.7l31.272,0l-15.873,46.94l-15.399,-46.94Z" style="fill:#a0a;fill-rule:nonzero;"/><path d="M4670.65,3726.2l11.372,6.463l-11.017,20.748l-0.355,-27.211Z" style="fill:#f5f;fill-rule:nonzero;"/><path d="M4688.89,3753.42l-6.87,-20.749l-11.017,20.749l17.887,0Z" style="fill:#a0a;fill-rule:nonzero;"/><path d="M4670.65,3779.95l13.741,-10.544l-13.386,-15.987l-0.355,26.531Z" style="fill:#a0a;fill-rule:nonzero;"/><path d="M4659.04,3773.83l11.964,-20.409l-18.597,0l6.633,20.409Z" style="fill:#a0a;fill-rule:nonzero;"/><path d="M4658.49,3732.67l-6.081,20.748l18.597,0l-12.516,-20.749Z" style="fill:#f5f;fill-rule:nonzero;"/><path d="M4670.65,3726.2l-12.161,6.463l12.516,20.748l-0.355,-27.211Z" style="fill:#a0a;fill-rule:nonzero;"/><path d="M4688.89,3753.42l-4.501,15.987l-13.386,-15.987l17.887,0Z" style="fill:#f5f;fill-rule:nonzero;"/><path d="M4670.65,3779.95l0.355,-26.531l-11.964,20.409l11.609,6.122Z" style="fill:#f5f;fill-rule:nonzero;"/><path d="M4600.48,3736.58l15.162,49.321l14.215,-49.321l-29.377,0Z" style="fill:#555;fill-rule:nonzero;"/><path d="M4648.68,3796.46l-18.879,-59.292l-14.16,49.128l33.039,10.164Z" style="fill:#a00;fill-rule:nonzero;"/><path d="M4615.65,3886.58l0,-100.681l33.168,10.204l-33.168,90.477Z" style="fill:#f55;fill-rule:nonzero;"/><path d="M4582.71,3797.8l32.931,-11.904l-15.162,-49.321l-17.769,61.225Z" style="fill:#f55;fill-rule:nonzero;"/><path d="M4615.65,3886.58l-32.802,-88.431l32.802,-11.858l0,100.289Z" style="fill:#a00;fill-rule:nonzero;"/></g><path d="M4049.99,2981.15l78.38,-149.034l-78.38,-19.332l0,168.366Z" style="fill:#55fdfe;fill-rule:nonzero;"/><path d="M4206.84,2919.84l-78.468,-87.719l-78.38,149.034l156.848,-61.315Z" style="fill:#ff55fe;fill-rule:nonzero;"/><path d="M4211.14,3030.04l-4.299,-110.207l-156.848,61.315l161.147,48.892Z" style="fill:#0aa;fill-rule:nonzero;"/><path d="M4164.21,3104.83l46.922,-74.787l-161.147,-48.892l114.225,123.679Z" style="fill:#55fdfe;fill-rule:nonzero;"/><path d="M4083.17,3146.24l81.046,-41.411l-114.225,-123.679l33.179,165.09Z" style="fill:#ff55fe;fill-rule:nonzero;"/><path d="M3989.08,2824.15l60.91,-11.365l0,168.366l-60.91,-157.001Z" style="fill:#ff55fe;fill-rule:nonzero;"/><path d="M3911.88,2884.84l77.195,-60.693l60.91,157.001l-138.105,-96.308Z" style="fill:#55fdfe;fill-rule:nonzero;"/><path d="M3882.41,2964.91l29.478,-80.071l138.105,96.308l-167.583,-16.237Z" style="fill:#0aa;fill-rule:nonzero;"/><path d="M4083.17,3146.24l-88.089,-5.891l54.91,-159.199l33.179,165.09Z" style="fill:#0aa;fill-rule:nonzero;"/><path d="M3882.41,2964.91l32.886,117.26l134.697,-101.023l-167.583,-16.237Z" style="fill:#ff55fe;fill-rule:nonzero;"/><path d="M3995.08,3140.35l-79.787,-58.176l134.697,-101.023l-54.91,159.199Z" style="fill:#55fdfe;fill-rule:nonzero;"/><path d="M4089.55,2977.72l48.697,28.646l-28.359,-6.589l-20.338,-22.057Z" style="fill:#ab5500;fill-rule:nonzero;"/><path d="M4138.25,2987.74l-0,18.62l-48.697,-28.646l48.697,10.026Z" style="fill:#5f5;fill-rule:nonzero;"/><path d="M4185.23,2977.72l-46.978,28.646l-0,-18.62l46.978,-10.026Z" style="fill:#00aa01;fill-rule:nonzero;"/><path d="M4089.55,2977.72l44.973,-101.118l-41.804,101.771l-3.169,-0.653Z" style="fill:#00aa01;fill-rule:nonzero;"/><path d="M4185.23,2977.72l-50.702,-101.118l47.787,101.74l2.915,-0.622Z" style="fill:#00aa01;fill-rule:nonzero;"/><path d="M4094.08,2975.05l44.165,12.691l-45.528,-9.373l1.363,-3.318Z" style="fill:#fff;fill-rule:nonzero;"/><path d="M3919.18,3008.62l44.165,12.691l-45.528,-9.373l1.363,-3.318Z" style="fill:#fff;fill-rule:nonzero;"/><path d="M4180.77,2975.05l-42.519,12.691l44.063,-9.404l-1.544,-3.287Z" style="fill:#fff;fill-rule:nonzero;"/><path d="M4138.25,2960.53l-0,27.213l-44.165,-12.691l44.165,-14.522Z" style="fill:#5f5;fill-rule:nonzero;"/><path d="M4180.77,2975.05l-42.519,-14.522l-0,27.213l42.519,-12.691Z" style="fill:#aa00a9;fill-rule:nonzero;"/><path d="M3914.75,3011.29l48.697,28.646l-28.359,-6.589l-20.338,-22.057Z" style="fill:#ab5500;fill-rule:nonzero;"/><path d="M3963.45,3021.31l0,18.62l-48.697,-28.646l48.697,10.026Z" style="fill:#5f5;fill-rule:nonzero;"/><path d="M4010.43,3011.29l-46.978,28.646l0,-18.62l46.978,-10.026Z" style="fill:#00aa01;fill-rule:nonzero;"/><path d="M3914.75,3011.29l44.973,-101.118l-41.804,101.771l-3.169,-0.653Z" style="fill:#00aa01;fill-rule:nonzero;"/><path d="M4010.43,3011.29l-50.702,-101.118l47.787,101.74l2.915,-0.622Z" style="fill:#00aa01;fill-rule:nonzero;"/><path d="M4005.97,3008.62l-42.519,12.691l44.063,-9.404l-1.544,-3.287Z" style="fill:#fff;fill-rule:nonzero;"/><path d="M3956.55,2912.78l180.835,-36.177l-180.835,29.218l-0,6.959Z" style="fill:#74c604;fill-rule:nonzero;"/><path d="M4137.39,2866.57l0,10.026l-180.835,29.218l180.835,-39.244Z" style="fill:#4bcb4e;fill-rule:nonzero;"/><path d="M3933.96,2982.59c-0,0.429 5.686,13.89 5.686,13.89l-16.476,2.679l10.79,-16.569Z" style="fill:#aa00a9;fill-rule:nonzero;"/><path d="M3947.72,3016.82l-8.079,-20.341l-16.476,2.679l24.555,17.662Z" style="fill:#0100ab;fill-rule:nonzero;"/><path d="M3919.18,3008.62l3.988,-9.46l24.555,17.662l-28.543,-8.202Z" style="fill:#aa00a9;fill-rule:nonzero;"/><path d="M3933.96,2982.59l16.9,35.132l-3.135,-0.901l-13.765,-34.231Z" style="fill:#fff;fill-rule:nonzero;"/><path d="M3956.01,2974.14l-22.057,8.45l16.9,35.133l5.157,-43.583Z" style="fill:#5f5;fill-rule:nonzero;"/><path d="M3978.79,2980.59l-22.773,-6.445l-5.157,43.583l27.93,-37.138Z" style="fill:#00aa01;fill-rule:nonzero;"/><path d="M3963.45,3021.31l0.603,-21.605l-13.192,18.017l12.589,3.588Z" style="fill:#5f5;fill-rule:nonzero;"/><path d="M3965.64,3020.66l-1.59,-20.95l-0.603,21.605l2.193,-0.655Z" style="fill:#fff;fill-rule:nonzero;"/><path d="M3978.79,2980.59l-14.738,19.121l16.728,-17.964l-1.99,-1.157Z" style="fill:#fff;fill-rule:nonzero;"/><path d="M3965.64,3020.66l15.138,-38.914l-16.728,17.964l1.59,20.95Z" style="fill:#0100ab;fill-rule:nonzero;"/><path d="M4005.97,3008.62l-25.188,-26.878l4.701,32.993l20.487,-6.115Z" style="fill:#0100ab;fill-rule:nonzero;"/><path d="M3965.64,3020.66l19.839,-5.921l-4.701,-32.993l-15.138,38.914Z" style="fill:#aa00a9;fill-rule:nonzero;"/><path d="M4037.74,2896.53l-0.001,199.287l34.014,0l-34.014,-199.287Z" style="fill:#00aa01;fill-rule:nonzero;"/><path d="M4040.81,2896.53l30.937,199.287l-34.014,-199.287l3.077,-0Z" style="fill:#042a33;fill-rule:nonzero;"/></g></g><g id="Layer_8"><path d="M4006.72,4410.02l76.56,-1.9l-42.823,61.086l-33.737,-59.186Z" style="fill:#aaa;fill-rule:nonzero;"/><path d="M3930.91,4277.01l-100.395,60.513l209.945,131.674l-109.55,-192.187Z" style="fill:#fff;fill-rule:nonzero;"/><path d="M3930.91,4079.26l38.269,241.095l-38.269,-22.962l0,-218.133Z" style="fill:#5ff;fill-rule:nonzero;"/><path d="M3969.18,4098.39l-38.269,-19.134c-0,-0 39.01,245.761 38.269,241.095c-0.74,-4.666 0,-221.961 0,-221.961l0,0Z" style="fill:#fff;fill-rule:nonzero;"/><path d="M4004.64,4341.57l-35.464,-21.216l0,-221.961l35.463,243.177Z" style="fill:#a0a;fill-rule:nonzero;"/><path d="M4149.93,4277.01l-109.469,192.187l209.875,-131.674l-100.406,-60.513Z" style="fill:#fff;fill-rule:nonzero;"/><path d="M4004.64,4118.39l-35.464,-19.992l35.463,243.177l0,-223.185Z" style="fill:#f5f;fill-rule:nonzero;"/><path d="M4040.45,4362.19l-35.813,-243.805l0.001,223.185l35.812,20.62Z" style="fill:#a0a;fill-rule:nonzero;"/><path d="M4040.45,4141.84l-35.813,-23.45l35.813,243.805l0,-220.355Z" style="fill:#00a;fill-rule:nonzero;"/><path d="M4040.45,4362.19l36.292,-20.62l-36.292,-199.735l0,220.355Z" style="fill:#5ff;fill-rule:nonzero;"/><path d="M4076.75,4120l-36.292,21.833c0,0 36.696,202.565 36.292,199.735c-0.405,-2.83 -0,-221.568 -0,-221.568Z" style="fill:#fff;fill-rule:nonzero;"/><path d="M4113.54,4320.35l-36.793,21.216l-0,-221.568l36.793,200.352Z" style="fill:#5ff;fill-rule:nonzero;"/><path d="M4113.54,4098.39l-36.793,21.609l36.793,200.352l-0,-221.961Z" style="fill:#fff;fill-rule:nonzero;"/><path d="M4149.93,4297.5l-36.389,22.855l-0,-221.961l36.389,199.106Z" style="fill:#555;fill-rule:nonzero;"/><path d="M4149.93,4075.93l-36.389,22.462l36.389,199.106l-0,-221.568Z" style="fill:#0a0;fill-rule:nonzero;"/><path d="M3861.51,3998.57l69.397,80.688l109.545,62.576l-178.942,-143.264Z" style="fill:#555;fill-rule:nonzero;"/><path d="M4221.36,3998.57l-71.43,77.36l-109.474,65.904l180.904,-143.264Z" style="fill:#555;fill-rule:nonzero;"/><path d="M3861.51,3998.57l179.923,107.549l179.923,-107.549l-180.904,143.264l-178.942,-143.264Z" style="fill:#a00;fill-rule:nonzero;"/><path d="M3836.58,3940.89l204.856,165.232l-204.856,-122.778l-0,-42.454Z" style="fill:#00a;fill-rule:nonzero;"/><path d="M4041.44,4065.42l-0,40.701l-204.856,-165.232l204.856,124.531Z" style="fill:#5ff;fill-rule:nonzero;"/><path d="M4244.94,3983.34l-203.508,122.778l203.508,-165.232l0,42.454Z" style="fill:#5ff;fill-rule:nonzero;"/><path d="M4041.44,4065.42l-0,40.701l203.508,-165.232l-203.508,124.531Z" style="fill:#12367e;fill-rule:nonzero;"/><path d="M3836.58,3940.89l203.875,-123.891l204.489,123.891l-203.508,124.531l-204.856,-124.531Z" style="fill:#fff;fill-rule:nonzero;"/><path d="M4108.15,3940.89l-0,70.352l-58.088,-35.176l58.088,-35.176Z" style="fill:#00a;fill-rule:nonzero;"/><path d="M4166.51,3974.04l-58.357,-33.154l-0,70.352l58.357,-37.198Z" style="fill:#5ff;fill-rule:nonzero;"/><path d="M4040.14,3982.53l-0,70.352l-58.088,-35.176l58.088,-35.176Z" style="fill:#00a;fill-rule:nonzero;"/><path d="M4098.5,4015.69l-58.357,-33.155l-0,70.352l58.357,-37.197Z" style="fill:#5ff;fill-rule:nonzero;"/><path d="M4171.63,3902.88l0,70.352l-58.087,-35.177l58.087,-35.175Z" style="fill:#00a;fill-rule:nonzero;"/><path d="M4229.98,3936.04l-58.357,-33.154l0,70.352l58.357,-37.198Z" style="fill:#5ff;fill-rule:nonzero;"/><path d="M4104.11,3863.66l0,70.352l-58.087,-35.176l58.087,-35.176Z" style="fill:#00a;fill-rule:nonzero;"/><path d="M4162.46,3896.82l-58.358,-33.154l0,70.352l58.358,-37.198Z" style="fill:#5ff;fill-rule:nonzero;"/><path d="M4040.14,3826.06l-0,70.352l-58.088,-35.176l58.088,-35.176Z" style="fill:#00a;fill-rule:nonzero;"/><path d="M4098.5,3859.22l-58.357,-33.154l-0,70.352l58.357,-37.198Z" style="fill:#5ff;fill-rule:nonzero;"/><path d="M3974.64,3863.66l-0,70.352l-58.088,-35.176l58.088,-35.176Z" style="fill:#00a;fill-rule:nonzero;"/><path d="M4033,3896.82l-58.357,-33.154l-0,70.352l58.357,-37.198Z" style="fill:#5ff;fill-rule:nonzero;"/><path d="M4041.26,3902.88l0,70.352l-58.087,-35.177l58.087,-35.175Z" style="fill:#00a;fill-rule:nonzero;"/><path d="M4099.62,3936.04l-58.357,-33.154l0,70.352l58.357,-37.198Z" style="fill:#5ff;fill-rule:nonzero;"/><path d="M3974.5,3944.12l0,70.352l-58.087,-35.177l58.087,-35.175Z" style="fill:#00a;fill-rule:nonzero;"/><path d="M4032.86,3977.28l-58.357,-33.155l0,70.353l58.357,-37.198Z" style="fill:#5ff;fill-rule:nonzero;"/><path d="M3910.82,3902.88l0,70.352l-58.087,-35.177l58.087,-35.175Z" style="fill:#00a;fill-rule:nonzero;"/><path d="M3969.18,3936.04l-58.357,-33.154l0,70.352l58.357,-37.198Z" style="fill:#5ff;fill-rule:nonzero;"/><path d="M3915.69,4301.54l15.218,-6.47l109.545,82.482l-124.763,-76.012Z" style="fill:#00a;fill-rule:nonzero;"/><path d="M4040.45,4362.19l0,15.365l-109.545,-82.482l109.545,67.117Z" style="fill:#5ff;fill-rule:nonzero;"/><path d="M4166.91,4302.35l-126.455,75.204l109.474,-80.056l16.981,4.852Z" style="fill:#5ff;fill-rule:nonzero;"/><path d="M4040.45,4362.19l0,15.365l109.474,-80.056l-109.474,64.691Z" style="fill:#faffe9;fill-rule:nonzero;"/><path d="M4166.91,4302.35l-126.455,94.072l126.455,-73.856l0,-20.216Z" style="fill:#a0a;fill-rule:nonzero;"/><path d="M3913.53,4306.39l-24.798,14.026c0,-0 152.759,92.445 151.718,91.637c-1.04,-0.809 -126.92,-105.663 -126.92,-105.663Z" style="fill:#5ff;fill-rule:nonzero;"/><path d="M4040.45,4377.56l0,18.868l126.455,-94.072l-126.455,75.204Z" style="fill:#f5f;fill-rule:nonzero;"/><path d="M4040.45,4412.06l0,-15.634l-126.92,-90.029l126.92,105.663Z" style="fill:#fdffff;fill-rule:nonzero;"/><path d="M3916.8,4301.07l123.656,95.351l-126.92,-76.003l3.264,-19.348Z" style="fill:#a0a;fill-rule:nonzero;"/><path d="M4040.45,4377.56l0,18.868l-123.656,-95.351l123.656,76.483Z" style="fill:#f5f;fill-rule:nonzero;"/><path d="M4040.45,4412.06l154.218,-91.703l-27.763,2.213l-126.455,89.49Z" style="fill:#fdffff;fill-rule:nonzero;"/><path d="M4040.45,4396.42l0,15.634l126.455,-89.49l-126.455,73.856Z" style="fill:#5ff;fill-rule:nonzero;"/><path d="M4194.67,4320.35l-1.078,21.246l-151.755,88.786l152.833,-110.032Z" style="fill:#a0a;fill-rule:nonzero;"/><path d="M4040.45,4412.06l1.385,18.329l152.833,-110.032l-154.218,91.703Z" style="fill:#f5f;fill-rule:nonzero;"/><path d="M3888.74,4320.42l0,21.15l153.103,88.816l-153.103,-109.966Z" style="fill:#a0a;fill-rule:nonzero;"/><path d="M4040.45,4412.06l-151.718,-91.637l153.103,109.966l-1.385,-18.329Z" style="fill:#f5f;fill-rule:nonzero;"/><path d="M3830.51,4337.53l209.945,162.368l-209.945,-112.401l0,-49.967Z" style="fill:#a0a;fill-rule:nonzero;"/><path d="M4040.46,4469.2l0,30.694l-209.945,-162.368l209.945,131.674Z" style="fill:#f5f;fill-rule:nonzero;"/><path d="M4250.34,4337.53l-209.875,162.368l209.875,-122.34l0,-40.028Z" style="fill:#5ff;fill-rule:nonzero;"/><path d="M4040.46,4469.2l0,30.694l209.875,-162.368l-209.875,131.674Z" style="fill:#fff;fill-rule:nonzero;"/></g></svg>