<?xml version="1.0" encoding="UTF-8"?>
<svg xmlns="http://www.w3.org/2000/svg" viewBox="0 0 1507 850.49">
  <defs>
    <style>
      .cls-1 {
        fill: #5ff;
      }

      .cls-1, .cls-2, .cls-3, .cls-4 {
        stroke: #000;
        stroke-miterlimit: 10;
      }

      .cls-2 {
        fill: #f55;
      }

      .cls-3 {
        fill: #ff5;
      }

      .cls-4 {
        fill: #f5f;
      }
    </style>
  </defs>
  <g id="Layer_3" data-name="Layer 3">
    <rect width="1507" height="848"/>
  </g>
  <g id="Layer_4" data-name="Layer 4">
    <g>
      <polygon class="cls-1" points="570.69 418.75 538 465.6 589.76 491.21 570.69 418.75"/>
      <polygon class="cls-1" points="596.02 323.13 569.87 400.5 607.19 418.75 596.02 323.13"/>
      <polygon class="cls-3" points="569.87 405.85 603.11 423.92 582.4 448.44 569.87 405.85"/>
      <polygon class="cls-4" points="560.07 481.67 592.75 497.47 576.41 556.59 560.07 481.67"/>
      <polygon class="cls-4" points="596.02 502.92 616.27 556.59 580.56 556.59 596.02 502.92"/>
      <polygon class="cls-4" points="583.49 452.25 595.48 494.21 639.88 454.98 583.49 452.25"/>
      <polygon class="cls-1" points="598.41 497.26 622.33 556.59 705.26 526.92 598.41 497.26"/>
      <polygon class="cls-1" points="603.11 494.21 644.12 454.98 713.74 474.59 603.11 494.21"/>
      <polygon class="cls-4" points="611.69 497.26 704.99 521.99 713.74 479.1 611.69 497.26"/>
      <polygon class="cls-3" points="607.19 427.15 586.49 448.44 639.88 448.44 607.19 427.15"/>
      <polygon class="cls-4" points="600.53 323.13 611.69 427.15 648.96 452.25 600.53 323.13"/>
      <polygon class="cls-1" points="603.11 320.5 655.62 454.98 679.38 293.86 603.11 320.5"/>
      <polygon class="cls-2" points="682.86 293.86 738.77 305.15 658.42 454.98 682.86 293.86"/>
      <polygon class="cls-3" points="662.71 454.98 713.74 470.17 713.74 358.03 662.71 454.98"/>
      <polygon class="cls-4" points="624.75 560.22 708.29 529.75 651.84 671 624.75 560.22"/>
      <polygon class="cls-1" points="713.74 529.75 662.71 666.76 781.26 556.31 713.74 529.75"/>
      <polygon class="cls-4" points="708.29 521.99 751.84 538.34 809.99 469.07 708.29 521.99"/>
      <polygon class="cls-1" points="719.15 478.95 713.74 515.42 809.99 466.39 719.15 478.95"/>
      <polygon class="cls-2" points="717.37 358.03 717.37 474.59 809.99 461.55 717.37 358.03"/>
      <polygon class="cls-3" points="738.77 310.81 738.77 355 759.14 332.91 738.77 310.81"/>
      <polygon class="cls-2" points="733.86 366.72 751.87 387.69 769.43 332.91 733.86 366.72"/>
      <polygon class="cls-2" points="752.15 392.47 809.05 455.64 796.38 374.77 752.15 392.47"/>
      <polygon class="cls-3" points="769.43 345.92 761.86 382.24 791.83 370.94 769.43 345.92"/>
      <polygon class="cls-2" points="731.78 323.13 717.37 355 733.86 360.3 731.78 323.13"/>
      <polygon class="cls-2" points="723.99 285.86 771.43 315.13 793.83 227.35 723.99 285.86"/>
      <polygon class="cls-2" points="802.72 374.3 809.67 429.61 892.09 392.02 802.72 374.3"/>
      <polygon class="cls-2" points="793.98 309.95 822.15 357.76 913.02 271 793.98 309.95"/>
      <polygon class="cls-2" points="853.5 448.44 853.5 502.92 892.09 469.07 853.5 448.44"/>
      <polygon class="cls-3" points="913.02 314.38 895.24 338 922.88 338 913.02 314.38"/>
      <polygon class="cls-3" points="895.24 414.7 895.24 423.49 909.06 416.31 895.24 414.7"/>
      <polygon class="cls-2" points="839.48 242.55 839.48 260.86 862.82 242.55 839.48 242.55"/>
      <polygon class="cls-3" points="851.15 357.76 847.41 368.22 862.82 364.08 851.15 357.76"/>
      <polygon class="cls-3" points="748.95 218.35 741.64 239.08 776.84 222.6 748.95 218.35"/>
      <polygon class="cls-2" points="958.82 379.24 972 396.58 950.51 401.96 958.82 379.24"/>
      <polygon class="cls-2" points="769.43 326.19 793.98 364.08 788.12 310.81 769.43 326.19"/>
      <polygon class="cls-2" points="793.98 330.59 799.93 370.94 817.06 360.3 793.98 330.59"/>
    </g>
  </g>
</svg>