<?xml version="1.0" encoding="UTF-8" standalone="no"?><!DOCTYPE svg PUBLIC "-//W3C//DTD SVG 1.1//EN" "http://www.w3.org/Graphics/SVG/1.1/DTD/svg11.dtd"><svg width="100%" height="100%" viewBox="0 0 8000 4500" version="1.1" xmlns="http://www.w3.org/2000/svg" xmlns:xlink="http://www.w3.org/1999/xlink" xml:space="preserve" xmlns:serif="http://www.serif.com/" style="fill-rule:evenodd;clip-rule:evenodd;stroke-linejoin:round;stroke-miterlimit:2;"><g><g id="Logo-2" serif:id="Logo 2"><rect x="1750" y="0" width="4500" height="4500" style="fill:none;"/><g id="Logo"><g><path d="M3980.24,4252.49c-0.87,-11.448 -1.759,-22.896 -2.721,-34.344c-57.839,-444.844 -997.632,-1474.36 -926.679,-2088.91c-16.695,-65.695 -465.619,-1881.74 929.4,-1881.74c1484.99,-0 961.062,1883.57 961.062,1883.57c-2.141,2.594 -4.282,5.207 -6.423,7.819c52.959,372.962 -430.111,1224.75 -954.639,2113.6Zm93.817,-779.252c45.43,21.264 118.182,-472.439 178.852,-596.554c34.707,-71.011 185.837,-80.227 185.147,-148.118c-0.689,-67.89 -112.957,-262.635 -189.266,-259.206c-76.29,3.429 -246.379,152.417 -268.55,279.78c-29.137,167.313 48.369,702.853 93.817,724.098Zm-106.117,643.998c-71.411,-665.805 -306.451,-1317.19 -873.225,-1939.29c-2.07,436.607 633.649,1289.99 873.225,1939.29Zm-48.278,-641.621c26.18,-17.834 37.047,-549.02 54.192,-712.324c13.335,-126.945 -187.107,-296.272 -247.577,-292.153c-60.452,4.118 -130.283,250.316 -115.188,316.846c15.076,66.511 175.477,14.895 205.721,82.278c51.417,114.608 76.671,623.169 102.852,605.353Zm954.167,-1260.75c-450.704,572.225 -740.463,1198.1 -867.082,1878.35c401.845,-587.791 958.286,-1567.67 867.082,-1878.35Z" style="fill:url(#_Radial1);"/></g><g><path d="M3962.68,1378.85c-6.733,-32.568 -10.236,-66.304 -10.26,-100.847c0.021,-31.081 2.875,-61.496 8.317,-91.001l19.517,18.973l-8.868,-64.453c6.838,-23.978 15.409,-47.218 25.622,-69.579l32.67,124.17l142.014,-330.743c0.284,-0.192 0.569,-0.384 0.854,-0.574l-94.248,330.218l398.175,-414.326c0.03,0.004 0.06,0.007 0.118,0.005l-355.157,422.073l449.552,-270.682l-416.187,286.543l684.459,-251.62c0.157,0.199 0.314,0.398 0.471,0.599l-664.58,273.432l583.316,-102.47l-577.975,129.236l737.72,-2.618l-747.911,31.122l494.285,104.884l-519.01,-77.433l491.059,254.058l-527.916,-230.345l216.463,272.171l-261.782,-254.527l36.64,266.6c-8.923,-8.825 -17.501,-17.985 -25.731,-27.46l-60.333,-229.279l-31.564,73.49c-7.772,-21.305 -14.125,-43.288 -18.947,-65.836l1.863,-6.549l-2.646,2.768Z" style="fill:#9a00ff;"/></g><g><circle cx="4450.4" cy="1278" r="497.98" style="fill:url(#_Radial2);"/></g><g><path d="M3587.68,1765.8l255.353,-299.662l-415.022,215.163l386.581,-246.18l-673.229,153.115l658.279,-189.578l-495.438,-19.17l495.438,-19.171l-658.279,-189.577l673.229,153.114l-386.581,-246.178l415.022,215.162l-391.868,-459.859l431.029,437.324l-130.087,-379.157l176.121,367.309l8.5,-194.654c15.563,32.587 27.701,67.128 35.905,103.147l3.997,91.507l7.274,-15.15c0.782,11.463 1.184,23.031 1.184,34.695c-0,83.14 -20.427,161.549 -56.522,230.481l-0.338,-7.959l-22.901,47.742c-21.251,32.801 -46.245,62.95 -74.39,89.835l51.257,-149.425l-266.665,270.561c-9.178,2.446 -18.46,4.639 -27.849,6.565Z" style="fill:#9a00ff;"/></g><g><circle cx="3487.11" cy="1278" r="497.98" style="fill:url(#_Radial3);"/></g><g><path d="M3582.14,309.05c104.085,-36.914 235.784,-61.551 398.107,-61.551c465.563,-0 720.198,205.926 767.46,284.328c-967.194,-278.911 -918.335,1976 283.064,867.36c-2.83,243.961 -31.768,487.918 -89.462,731.885c-2.141,2.594 -4.282,5.207 -6.423,7.819c52.959,372.962 -430.111,1224.75 -954.639,2113.6c-0.87,-11.448 -1.759,-22.896 -2.721,-34.344c-57.839,-444.844 -997.632,-1474.36 -926.679,-2088.91c-12.651,-14.26 -81.86,-497.891 -75.343,-504.406c1066.81,625.491 1123.51,-1226.15 271.897,-1096.14c39.731,-42.539 140.041,-159.718 334.739,-219.644Zm491.924,3164.19c45.43,21.264 118.182,-472.439 178.852,-596.554c34.707,-71.011 185.837,-80.227 185.147,-148.118c-0.689,-67.89 -112.957,-262.635 -189.266,-259.206c-76.29,3.429 -246.379,152.417 -268.55,279.78c-29.137,167.313 48.369,702.853 93.817,724.098Zm-93.817,-2093.75l0,972.615c269.766,130.138 387.967,5.025 0,-972.615Zm-12.3,2737.75c-71.411,-665.805 -306.451,-1317.19 -873.225,-1939.29c-2.07,436.607 633.649,1289.99 873.225,1939.29Zm905.889,-1902.37c-450.704,572.225 -740.463,1198.1 -867.082,1878.35c401.845,-587.791 958.286,-1567.67 867.082,-1878.35Zm-950.466,-835.382c-386.011,972.687 -268.405,1097.16 -0,967.698l-0,-967.698Zm-3.701,2096.13c26.18,-17.834 37.047,-549.02 54.192,-712.324c13.335,-126.945 -187.107,-296.272 -247.577,-292.153c-60.452,4.118 -130.283,250.316 -115.188,316.846c15.076,66.511 175.477,14.895 205.721,82.278c51.417,114.608 76.671,623.169 102.852,605.353Z" style="fill:url(#_Radial4);"/></g><g id="Cracks"><g><path d="M3996.25,3143.79l-25.381,46.046l-18.669,-55.88c0.78,-15.258 1.542,-30.607 2.304,-45.937l21.644,28.085l15.149,-12.718c1.561,13.516 3.23,27.014 4.953,40.404Z" style="fill:#302920;"/></g><g><path d="M4639.23,3073.19c-8.146,16.383 -16.437,32.875 -24.838,49.457l-5.279,-40.494c10.033,-19.849 19.884,-39.588 29.536,-59.219l0.581,50.256Z" style="fill:#302920;"/></g><g><path d="M3725.45,2375.24l-49.439,56.406l29.953,49.203c-2.757,2.377 -5.515,5.134 -8.273,8.255l-88.156,-99.423l66.476,-21.227l19.394,-27.395c7.856,15.04 17.943,26.307 30.045,34.181Z" style="fill:#302920;"/></g><g><path d="M3980.24,1946.29l-27.812,-28.629l-29.065,10.377l-0,-31.514l29.065,-24.366l27.812,37.048l0,37.084Z" style="fill:#302920;"/></g><g><path d="M4131.68,1488.42c6.259,13.555 12.99,26.67 20.229,39.287l-10.106,44.811l-57.966,-9.438l-25.491,20.082c-1.415,-3.812 -2.83,-7.642 -4.245,-11.488l24.348,-43.646l52.577,12.134l-26.488,-41.794l27.142,-9.948Z" style="fill:#302920;"/></g><g><path d="M3730.22,758.061l64.026,13.108l8.019,46.301l84.256,25.278l16.854,126.39l71.429,56.876l-96.72,-14.746l-37.918,-134.816l-67.401,-96.431l-26.924,6.677c-4.989,-9.718 -10.196,-19.268 -15.621,-28.637Z" style="fill:#302920;"/></g><g><path d="M4228.86,268.57c10.522,1.857 20.882,3.822 31.096,5.887l-64.116,38.047l84.255,84.261l-175.26,67.408l32.022,69.093l-109.528,80.89l38.408,157.013l-65.731,-161.279l95.359,-82.286l-39.497,-72.41l172.992,-72.412l-120.342,-52.663l120.342,-61.549Z" style="fill:#302920;"/></g></g><path id="Skull-shape" serif:id="Skull shape" d="M4509.2,2394.81c-9.742,-355.073 99.731,-567.09 347.127,-613.59m-1735.7,108.022c287.896,83.566 425.681,250.552 404.999,505.568" style="fill:url(#_Linear5);"/><g id="Nose-Background" serif:id="Nose Background"><path d="M3923.36,1379.48l0,967.698c-268.414,129.473 -386.007,4.984 0,-967.698Zm56.874,0c387.965,977.62 269.757,1102.75 0,972.613l0,-972.613Z" style="fill:url(#_Radial6);"/></g><g id="Nose-Light" serif:id="Nose Light"><g id="Shine-Right" serif:id="Shine Right"><path d="M3980.24,1426.85l0,-42.825c0.546,-0.127 1.092,-0.25 1.639,-0.371c13.268,33.43 25.922,65.861 37.984,97.316l138.144,463.866l-171.144,-536.345l161.813,751.96l-168.436,-733.601Zm0,82.782l0,-70.37l68.617,529.835l-68.617,-459.465Zm0,458.418l0,-34.775l2.663,87.165l-2.663,-52.39Z" style="fill:#9a00ff;"/></g><g id="Glow-Right" serif:id="Glow Right"><path d="M3980.24,1379.48c385.985,973.82 269.37,1102.57 0,972.613l0,-972.613Z" style="fill:url(#_Radial7);"/></g><g id="Shine-Left" serif:id="Shine Left"><path d="M3923.36,1653.84l0,56.031l-9.08,149.342l9.08,-205.373Zm0,-256.411l0,66.946l-64.816,554.671l64.816,-621.617Zm-14.292,18.254c4.415,-11.272 8.921,-22.665 13.473,-34.174l-83.455,469.397l69.982,-435.223Zm-32.317,83.472c5.781,-15.137 11.698,-30.506 17.752,-46.109l-123.329,515.909l105.577,-469.8Z" style="fill:#9a00ff;"/></g><g id="Glow-left" serif:id="Glow left"><path d="M3923.36,1379.48l0,967.698c-268.414,129.473 -386.007,4.984 0,-967.698Z" style="fill:url(#_Radial8);"/></g></g></g><g id="S"><g><path d="M2021.05,734.292c-0.95,-0.95 -0.97,-1.015 -0.968,-2.361c0,-0.85 0.504,-1.647 0.963,-2.362c0.396,-0.622 1.038,-1.048 1.554,-1.574c20.802,-21.055 41.709,-42.007 62.408,-63.165c48.658,-49.741 97.414,-99.392 145.663,-149.531c27.382,-28.455 54.501,-57.166 81.219,-86.243c25.239,-27.465 49.917,-55.439 74.639,-83.368c20.591,-23.266 40.769,-46.896 61.295,-70.217c20.574,-23.376 20.722,-23.241 42.175,-45.815c3.257,-3.427 7.596,-5.217 8.336,-5.52c9.508,-3.918 17.608,-0.582 19.014,0c1.452,0.597 9.814,4.044 13.858,13.855c0.579,1.407 3.918,9.509 -0,19.015c-1.269,3.076 -3.241,5.888 -5.508,8.325c-6.024,6.475 -12.727,12.289 -19.235,18.28c-8.769,8.072 -17.645,16.031 -26.592,23.908c-23.324,20.526 -46.951,40.703 -70.217,61.295c-27.931,24.72 -55.903,49.4 -83.368,74.636c-29.077,26.721 -57.79,53.84 -86.245,81.222c-50.14,48.249 -99.788,97.002 -149.529,145.663c-5.204,5.089 -5.495,5.375 -64.727,63.95c-0.96,0.95 -1.023,0.972 -2.374,0.975c-1.348,0.002 -1.411,-0.018 -2.361,-0.968Z" style="fill:url(#_Linear9);"/><path d="M2083.26,769.847c-0.95,-0.95 -0.967,-1.016 -0.965,-2.362c0,-0.85 0.507,-1.644 0.963,-2.364c0.378,-0.599 0.998,-1.01 1.496,-1.514c20.035,-20.288 40.173,-40.473 60.105,-60.864c46.853,-47.933 93.803,-95.779 140.245,-144.113c26.357,-27.43 52.453,-55.118 78.149,-83.172c24.271,-26.498 47.983,-53.504 71.738,-80.468c19.787,-22.461 39.16,-45.283 58.881,-67.802c19.769,-22.57 19.914,-22.434 40.561,-44.201c3.246,-3.425 7.598,-5.217 8.338,-5.52c1.406,-0.582 9.506,-3.919 19.014,-0c1.449,0.596 9.812,4.043 13.855,13.855c3.919,9.509 0.582,17.608 0,19.014c-1.266,3.076 -3.244,5.887 -5.507,8.326c-5.796,6.244 -12.269,11.83 -18.546,17.593c-8.463,7.763 -17.029,15.412 -25.667,22.98c-22.52,19.721 -45.342,39.094 -67.803,58.881c-26.964,23.755 -53.97,47.467 -80.468,71.738c-28.054,25.696 -55.742,51.792 -83.172,78.149c-48.334,46.442 -96.18,93.392 -144.113,140.245c-5.017,4.904 -5.297,5.177 -62.366,61.589c-0.962,0.952 -1.023,0.972 -2.376,0.975c-1.346,0.002 -1.412,-0.015 -2.362,-0.965Z" style="fill:url(#_Linear10);"/><path d="M2141.04,800.957c-0.95,-0.95 -0.968,-1.016 -0.966,-2.362c0,-0.85 0.509,-1.642 0.963,-2.364c0.359,-0.574 0.95,-0.962 1.427,-1.444c19.074,-19.327 38.252,-38.552 57.221,-57.981c44.597,-45.679 89.291,-91.266 133.477,-137.345c25.078,-26.151 49.891,-52.558 74.305,-79.331c23.066,-25.29 45.57,-51.087 68.116,-76.843c18.782,-21.456 37.149,-43.273 55.866,-64.787c18.758,-21.561 18.906,-21.426 38.542,-42.183c3.232,-3.416 7.596,-5.216 8.336,-5.52c9.508,-3.918 17.608,-0.581 19.017,0c9.811,4.044 13.258,12.407 13.855,13.856c3.918,9.508 0.579,17.608 -0,19.014c-1.266,3.076 -3.246,5.884 -5.508,8.325c-5.512,5.957 -11.697,11.259 -17.688,16.731c-8.074,7.38 -16.254,14.645 -24.507,21.825c-21.514,18.716 -43.331,37.084 -64.787,55.865c-25.755,22.546 -51.553,45.05 -76.845,68.113c-26.77,24.415 -53.18,49.23 -79.331,74.308c-46.076,44.186 -91.663,88.878 -137.343,133.477c-4.778,4.666 -5.046,4.926 -59.412,58.636c-0.963,0.95 -1.026,0.972 -2.377,0.975c-1.346,0.002 -1.411,-0.015 -2.361,-0.965Z" style="fill:url(#_Linear11);"/></g><g><path d="M2682.04,1290.76c-0.977,0.922 -1.043,0.941 -2.388,0.899c-0.85,-0.025 -1.632,-0.552 -2.333,-1.031c-0.61,-0.414 -1.017,-1.068 -1.528,-1.599c-20.442,-21.405 -40.779,-42.911 -61.326,-64.216c-48.307,-50.082 -96.521,-100.259 -145.238,-149.944c-27.648,-28.197 -55.56,-56.138 -83.848,-83.69c-26.721,-26.025 -53.966,-51.505 -81.165,-77.028c-22.659,-21.258 -45.692,-42.113 -68.407,-63.308c-22.77,-21.244 -22.63,-21.388 -44.572,-43.488c-3.33,-3.355 -4.994,-7.744 -5.275,-8.492c-0.541,-1.423 -3.641,-9.618 0.552,-19.006c4.327,-9.693 12.786,-12.896 14.252,-13.45c9.618,-3.641 17.617,-0.068 19.006,0.552c3.038,1.357 5.792,3.411 8.162,5.747c6.298,6.209 11.914,13.079 17.714,19.758c7.814,8.999 15.512,18.104 23.125,27.276c19.84,23.909 39.323,48.113 59.23,71.967c23.899,28.637 47.756,57.313 72.184,85.5c25.865,29.84 52.139,59.329 78.683,88.568c46.773,51.519 94.064,102.562 141.259,153.695c4.936,5.35 5.213,5.649 62.043,66.557c0.922,0.987 0.943,1.05 0.906,2.401c-0.037,1.348 -0.059,1.41 -1.036,2.332Z" style="fill:url(#_Linear12);"/><path d="M2719.39,1229.6c-0.978,0.922 -1.043,0.937 -2.389,0.896c-0.849,-0.025 -1.629,-0.554 -2.335,-1.031c-0.588,-0.396 -0.981,-1.027 -1.47,-1.54c-19.697,-20.615 -39.289,-41.331 -59.093,-61.846c-46.552,-48.226 -93.014,-96.546 -139.98,-144.372c-26.653,-27.142 -53.571,-54.032 -80.867,-80.531c-25.782,-25.03 -52.088,-49.517 -78.35,-74.045c-21.878,-20.43 -44.128,-40.458 -66.065,-60.825c-21.985,-20.416 -21.846,-20.557 -43.004,-41.827c-3.328,-3.344 -4.994,-7.746 -5.275,-8.494c-3.641,-9.616 -0.07,-17.618 0.552,-19.007c4.327,-9.69 12.786,-12.893 14.252,-13.447c1.422,-0.541 9.618,-3.64 19.006,0.552c3.038,1.355 5.789,3.414 8.162,5.747c6.073,5.975 11.468,12.607 17.047,19.049c7.515,8.685 14.911,17.469 22.225,26.324c19.059,23.082 37.761,46.458 56.887,69.484c22.962,27.642 45.88,55.326 69.372,82.517c24.869,28.788 50.15,57.222 75.7,85.406c45.018,49.663 90.56,98.852 136.001,148.126c4.756,5.156 5.021,5.445 59.751,64.127c0.924,0.99 0.943,1.051 0.906,2.404c-0.037,1.346 -0.056,1.41 -1.033,2.333Z" style="fill:url(#_Linear13);"/><path d="M2752.16,1172.76c-0.977,0.922 -1.043,0.938 -2.388,0.896c-0.85,-0.024 -1.627,-0.556 -2.335,-1.031c-0.564,-0.375 -0.935,-0.977 -1.402,-1.467c-18.766,-19.628 -37.426,-39.356 -56.295,-58.881c-44.365,-45.905 -88.635,-91.904 -133.411,-137.41c-25.412,-25.827 -51.087,-51.396 -77.14,-76.578c-24.609,-23.79 -49.742,-47.033 -74.832,-70.318c-20.902,-19.397 -42.176,-38.39 -63.137,-57.723c-21.008,-19.377 -20.868,-19.521 -41.046,-39.752c-3.322,-3.329 -4.994,-7.744 -5.276,-8.492c-3.64,-9.618 -0.07,-17.617 0.552,-19.009c4.327,-9.69 12.787,-12.893 14.252,-13.447c1.423,-0.538 9.619,-3.64 19.007,0.552c3.038,1.355 5.787,3.416 8.162,5.747c5.793,5.683 10.913,12.019 16.21,18.167c7.142,8.285 14.166,16.673 21.103,25.13c18.084,22.049 35.81,44.39 53.96,66.382c21.789,26.4 43.535,52.84 65.854,78.791c23.626,27.468 47.664,54.587 71.972,81.456c42.829,47.34 86.179,94.205 129.433,141.161c4.524,4.911 4.777,5.187 56.885,61.09c0.922,0.99 0.942,1.053 0.906,2.404c-0.037,1.345 -0.056,1.41 -1.034,2.332Z" style="fill:url(#_Linear14);"/></g><g><path d="M2022.44,1713.49c-0.91,-0.989 -0.927,-1.055 -0.868,-2.4c0.036,-0.849 0.572,-1.625 1.061,-2.319c0.422,-0.605 1.081,-1.004 1.619,-1.508c21.665,-20.165 43.432,-40.223 64.999,-60.495c50.699,-47.659 101.492,-95.223 151.8,-143.297c28.55,-27.283 56.848,-54.833 84.761,-82.765c26.368,-26.383 52.195,-53.299 78.066,-80.167c21.548,-22.383 42.698,-45.147 64.183,-67.587c21.535,-22.494 21.677,-22.353 44.058,-44.008c3.397,-3.288 7.807,-4.894 8.559,-5.166c9.664,-3.517 17.617,0.156 18.998,0.796c9.636,4.452 12.73,12.951 13.265,14.424c0.52,1.429 3.516,9.664 -0.797,18.998c-1.396,3.02 -3.485,5.747 -5.851,8.087c-6.29,6.217 -13.231,11.745 -19.984,17.458c-9.1,7.698 -18.302,15.278 -27.571,22.773c-24.163,19.531 -48.615,38.701 -72.723,58.299c-28.943,23.528 -57.924,47.015 -86.422,71.078c-30.171,25.479 -59.995,51.371 -89.572,77.537c-52.117,46.107 -103.764,92.737 -155.5,139.271c-5.413,4.866 -5.716,5.14 -67.349,61.182c-1,0.909 -1.063,0.929 -2.413,0.874c-1.348,-0.054 -1.41,-0.076 -2.319,-1.065Z" style="fill:url(#_Linear15);"/><path d="M2083.11,1751.62c-0.909,-0.989 -0.924,-1.055 -0.865,-2.4c0.035,-0.849 0.575,-1.622 1.061,-2.322c0.403,-0.582 1.039,-0.967 1.558,-1.45c20.867,-19.43 41.833,-38.754 62.602,-58.292c48.82,-45.928 97.734,-91.765 146.16,-138.111c27.483,-26.302 54.716,-52.872 81.564,-79.825c25.36,-25.458 50.183,-51.447 75.047,-77.392c20.71,-21.612 41.022,-43.603 61.67,-65.276c20.697,-21.721 20.837,-21.58 42.377,-42.462c3.387,-3.286 7.81,-4.894 8.562,-5.166c9.661,-3.517 17.617,0.156 18.997,0.796c9.634,4.451 12.728,12.951 13.263,14.424c0.522,1.429 3.516,9.664 -0.797,18.998c-1.393,3.02 -3.487,5.745 -5.851,8.087c-6.052,5.996 -12.753,11.305 -19.267,16.8c-8.781,7.403 -17.659,14.686 -26.607,21.885c-23.326,18.761 -46.94,37.161 -70.21,55.989c-27.936,22.604 -55.912,45.164 -83.403,68.304c-29.106,24.497 -57.863,49.411 -86.373,74.595c-50.238,44.376 -100.008,89.281 -149.863,134.085c-5.217,4.689 -5.509,4.95 -64.891,58.921c-1.001,0.912 -1.062,0.929 -2.415,0.875c-1.345,-0.054 -1.409,-0.074 -2.319,-1.063Z" style="fill:url(#_Linear16);"/><path d="M2139.53,1785.13c-0.909,-0.989 -0.924,-1.055 -0.865,-2.4c0.036,-0.849 0.577,-1.619 1.061,-2.321c0.382,-0.559 0.989,-0.922 1.485,-1.383c19.868,-18.512 39.834,-36.917 59.601,-55.533c46.471,-43.771 93.036,-87.446 139.114,-131.632c26.152,-25.078 52.049,-50.423 77.564,-76.149c24.104,-24.301 47.67,-49.133 71.275,-73.922c19.664,-20.65 38.93,-41.678 58.531,-62.389c19.645,-20.757 19.787,-20.615 40.276,-40.531c3.372,-3.278 7.808,-4.894 8.559,-5.166c1.43,-0.522 9.664,-3.516 19,0.797c9.634,4.451 12.728,12.951 13.263,14.423c3.516,9.665 -0.159,17.617 -0.797,18.998c-1.393,3.02 -3.49,5.742 -5.851,8.087c-5.757,5.72 -12.158,10.759 -18.374,15.975c-8.376,7.036 -16.853,13.951 -25.4,20.779c-22.279,17.798 -44.846,35.236 -67.07,53.102c-26.678,21.447 -53.396,42.851 -79.631,64.834c-27.77,23.271 -55.196,46.958 -82.376,70.919c-47.886,42.217 -95.306,84.96 -142.814,127.606c-4.969,4.461 -5.248,4.71 -61.816,56.094c-1.002,0.909 -1.066,0.929 -2.416,0.875c-1.345,-0.054 -1.409,-0.074 -2.319,-1.063Z" style="fill:url(#_Linear17);"/></g></g><g id="A"><g><g><path d="M3999.27,4339.45c0.594,-0.973 -0.037,-2.402 0.555,-3.374c12.622,-20.663 26.02,-40.839 38.954,-61.305c30.407,-48.112 60.858,-96.193 91.07,-144.428c17.143,-27.367 34.159,-54.811 50.988,-82.369c15.885,-26.009 31.508,-52.175 47.151,-78.328c13.025,-21.771 25.856,-43.658 38.85,-65.447c13.037,-21.865 13.104,-21.819 26.55,-43.433c2.184,-3.509 5.765,-4.297 6.372,-4.43c1.268,-0.279 2.614,-0.323 3.892,-0.098c0.62,0.11 4.204,0.739 6.638,4.246c2.356,3.395 1.746,6.864 1.641,7.466c-0.232,1.315 -0.744,2.597 -1.438,3.734c-5.623,9.206 -26.003,38.97 -28.304,42.332c-14.334,20.935 -28.819,41.762 -43.124,62.716c-17.18,25.169 -34.382,50.325 -51.332,75.651c-17.96,26.837 -35.738,53.793 -53.394,80.83c-31.118,47.655 -61.999,95.466 -92.924,143.246c-13.153,20.324 -25.853,40.949 -39.316,61.069c-0.633,0.948 -2.196,0.974 -2.829,1.922Z" style="fill:url(#_Linear18);"/></g><g><path d="M4036.24,4332.82c0.581,-0.955 -0.062,-2.363 0.52,-3.318c12.144,-19.912 25.062,-39.34 37.518,-59.057c29.282,-46.353 58.608,-92.678 87.695,-139.151c16.501,-26.367 32.88,-52.815 49.071,-79.376c15.282,-25.066 30.302,-50.289 45.344,-75.5c12.523,-20.989 24.853,-42.091 37.347,-63.097c12.534,-21.078 12.597,-21.029 25.543,-41.859c2.181,-3.509 5.764,-4.296 6.371,-4.43c1.268,-0.278 2.614,-0.323 3.892,-0.097c0.622,0.108 4.204,0.738 6.637,4.245c0.35,0.501 2.357,3.395 1.642,7.466c-0.23,1.313 -0.744,2.595 -1.439,3.734c-5.423,8.893 -25.075,37.524 -27.297,40.758c-13.83,20.152 -27.816,40.194 -41.619,60.365c-16.579,24.228 -33.177,48.441 -49.524,72.826c-17.323,25.838 -34.464,51.798 -51.48,77.835c-29.992,45.896 -59.747,91.945 -89.547,137.967c-12.676,19.576 -24.896,39.451 -37.88,58.826c-0.623,0.929 -2.171,0.935 -2.794,1.863Z" style="fill:url(#_Linear19);"/></g><path d="M4072.64,4328.07c0.569,-0.936 -0.091,-2.315 0.478,-3.251c11.544,-18.974 23.863,-37.469 35.721,-56.25c27.875,-44.154 55.796,-88.278 83.475,-132.552c15.704,-25.121 31.284,-50.32 46.678,-75.631c14.528,-23.891 28.797,-47.937 43.085,-71.972c11.897,-20.008 23.6,-40.13 35.465,-60.156c11.907,-20.095 11.972,-20.047 24.286,-39.892c2.179,-3.509 5.766,-4.297 6.373,-4.43c1.267,-0.279 2.614,-0.323 3.892,-0.098c0.62,0.109 4.204,0.739 6.637,4.245c2.357,3.396 1.746,6.864 1.642,7.467c-0.233,1.312 -0.746,2.595 -1.439,3.734c-5.175,8.5 -23.919,35.713 -26.039,38.791c-13.206,19.172 -26.563,38.235 -39.74,57.425c-15.826,23.049 -31.671,46.087 -47.266,69.295c-16.523,24.589 -32.867,49.301 -49.085,74.092c-28.585,43.697 -56.934,87.547 -85.326,131.368c-12.08,18.641 -23.701,37.58 -36.087,56.02c-0.61,0.909 -2.14,0.886 -2.75,1.795Z" style="fill:url(#_Linear20);"/></g><g><path d="M4524.48,4339.47c-0.58,-0.934 -2.113,-0.969 -2.695,-1.901c-11.852,-19.017 -22.926,-38.508 -34.464,-57.716c-27.127,-45.154 -54.207,-90.336 -81.528,-135.372c-15.502,-25.551 -31.132,-51.028 -46.944,-76.389c-14.924,-23.935 -30.106,-47.708 -45.267,-71.494c-12.622,-19.801 -25.43,-39.483 -38.083,-59.266c-12.694,-19.85 -12.62,-19.886 -24.909,-39.992c-2.155,-3.522 -1.245,-7.082 -1.091,-7.683c0.321,-1.258 0.889,-2.48 1.664,-3.52c2.551,-3.422 6.154,-3.929 6.778,-4.018c4.093,-0.576 6.916,1.529 7.406,1.893c1.07,0.798 1.982,1.833 2.688,2.965c5.306,8.516 21.327,37.756 23.138,41.063c11.284,20.593 22.406,41.276 33.72,61.853c13.591,24.717 27.162,49.445 40.998,74.025c14.659,26.045 29.508,51.982 44.485,77.845c26.397,45.585 53.041,91.027 79.637,136.494c11.314,19.343 23.099,38.411 34.094,57.937c0.539,0.956 -0.166,2.318 0.373,3.276Z" style="fill:url(#_Linear21);"/><g><path d="M4543.85,4321.11c-0.573,-0.916 -2.091,-0.932 -2.664,-1.849c-11.433,-18.307 -22.088,-37.092 -33.208,-55.592c-26.139,-43.494 -52.234,-87.013 -78.57,-130.386c-14.943,-24.608 -30.012,-49.14 -45.266,-73.557c-14.397,-23.046 -29.05,-45.928 -43.685,-68.825c-12.183,-19.06 -24.551,-38.001 -36.764,-57.045c-12.254,-19.107 -12.182,-19.143 -24.028,-38.503c-2.156,-3.521 -1.245,-7.082 -1.091,-7.683c0.321,-1.258 0.888,-2.48 1.663,-3.52c2.552,-3.422 6.155,-3.929 6.779,-4.019c4.093,-0.577 6.916,1.529 7.406,1.894c1.069,0.798 1.982,1.833 2.688,2.965c5.128,8.22 20.515,36.387 22.257,39.575c10.846,19.854 21.527,39.795 32.401,59.631c13.064,23.827 26.107,47.665 39.416,71.356c14.1,25.101 28.39,50.094 42.807,75.014c25.413,43.921 51.069,87.7 76.681,131.506c10.894,18.634 22.26,36.997 32.834,55.814c0.529,0.942 -0.185,2.282 0.344,3.224Z" style="fill:url(#_Linear22);"/></g><g><path d="M4554.99,4286.84c-0.562,-0.896 -2.065,-0.886 -2.625,-1.783c-10.909,-17.424 -21.04,-35.324 -31.636,-52.94c-24.907,-41.414 -49.769,-82.855 -74.873,-124.149c-14.244,-23.429 -28.614,-46.784 -43.169,-70.021c-13.737,-21.933 -27.733,-43.703 -41.706,-65.487c-11.634,-18.134 -23.454,-36.149 -35.118,-54.267c-11.704,-18.177 -11.632,-18.213 -22.926,-36.644c-2.156,-3.517 -1.245,-7.083 -1.091,-7.684c0.321,-1.258 0.888,-2.48 1.663,-3.52c2.552,-3.422 6.155,-3.929 6.779,-4.018c4.092,-0.576 6.916,1.529 7.406,1.893c1.069,0.799 1.98,1.834 2.688,2.966c4.909,7.852 19.503,34.678 21.155,37.715c10.296,18.928 20.428,37.944 30.755,56.854c12.403,22.715 24.787,45.44 37.436,68.018c13.401,23.921 26.992,47.736 40.711,71.477c24.181,41.843 48.605,83.544 72.984,125.271c10.369,17.75 21.212,35.227 31.262,53.16c0.518,0.924 -0.213,2.236 0.305,3.159Z" style="fill:url(#_Linear23);"/></g></g><g><path d="M4104.83,4183.3c0.968,-0.029 1.605,-1.32 2.574,-1.35c16.534,-0.495 33.083,-0.084 49.625,-0.216c38.885,-0.307 77.771,-0.561 116.655,-1.098c22.062,-0.306 44.124,-0.759 66.178,-1.429c20.821,-0.633 41.632,-1.569 62.442,-2.483c17.327,-0.759 34.644,-1.74 51.971,-2.535c17.379,-0.797 17.375,-0.716 34.773,-1.035c4.109,-0.075 6.726,2.541 7.164,2.98c0.919,0.918 1.681,2.029 2.181,3.227c1.642,3.938 0.242,7.297 -0.001,7.878c-1.59,3.815 -4.841,5.171 -5.405,5.405c-1.232,0.515 -2.589,0.764 -3.922,0.802c-7.572,0.213 -32.009,-0.908 -34.79,-1.036c-17.326,-0.794 -34.644,-1.776 -51.971,-2.535c-20.81,-0.914 -41.621,-1.85 -62.441,-2.482c-22.055,-0.671 -44.116,-1.124 -66.18,-1.429c-38.883,-0.538 -77.769,-0.792 -116.654,-1.099c-16.543,-0.131 -33.091,0.279 -49.625,-0.216c-0.969,-0.03 -1.607,-1.32 -2.574,-1.349Z" style="fill:url(#_Linear24);"/><g><path d="M4116.71,4157.11c0.955,-0.03 1.575,-1.32 2.53,-1.349c15.926,-0.496 31.868,-0.085 47.802,-0.215c37.459,-0.31 74.918,-0.563 112.375,-1.1c21.253,-0.306 42.505,-0.759 63.751,-1.429c20.056,-0.633 40.102,-1.569 60.149,-2.482c16.692,-0.76 33.373,-1.741 50.064,-2.536c16.74,-0.797 16.737,-0.717 33.496,-1.035c4.107,-0.078 6.726,2.541 7.165,2.98c0.918,0.919 1.681,2.028 2.18,3.227c0.243,0.581 1.643,3.939 0,7.878c-1.591,3.816 -4.841,5.17 -5.406,5.406c-1.231,0.514 -2.588,0.762 -3.921,0.8c-7.317,0.212 -30.835,-0.907 -33.514,-1.034c-16.691,-0.796 -33.372,-1.776 -50.064,-2.536c-20.047,-0.914 -40.093,-1.85 -60.149,-2.483c-21.246,-0.669 -42.498,-1.122 -63.751,-1.428c-37.457,-0.537 -74.916,-0.791 -112.375,-1.1c-15.934,-0.131 -31.876,0.28 -47.802,-0.215c-0.955,-0.03 -1.575,-1.319 -2.53,-1.349Z" style="fill:url(#_Linear25);"/></g><g><path d="M4128.42,4132.9c0.938,-0.031 1.534,-1.319 2.473,-1.348c15.167,-0.496 30.351,-0.086 45.527,-0.216c35.675,-0.308 71.351,-0.562 107.023,-1.1c20.242,-0.305 40.482,-0.758 60.714,-1.428c19.103,-0.633 38.194,-1.57 57.286,-2.483c15.897,-0.76 31.783,-1.741 47.68,-2.535c15.944,-0.798 15.941,-0.717 31.902,-1.035c4.102,-0.083 6.726,2.541 7.164,2.98c0.919,0.918 1.681,2.028 2.181,3.226c1.642,3.939 0.242,7.297 -0.001,7.879c-1.59,3.815 -4.841,5.17 -5.405,5.405c-1.232,0.514 -2.588,0.761 -3.922,0.801c-6.997,0.211 -29.367,-0.907 -31.918,-1.035c-15.897,-0.794 -31.784,-1.776 -47.681,-2.536c-19.091,-0.912 -38.183,-1.849 -57.285,-2.482c-20.232,-0.67 -40.473,-1.124 -60.716,-1.428c-35.671,-0.537 -71.347,-0.793 -107.023,-1.1c-15.175,-0.13 -30.359,0.279 -45.527,-0.216c-0.938,-0.03 -1.534,-1.318 -2.472,-1.349Z" style="fill:url(#_Linear26);"/></g></g></g><g id="A1" serif:id="A"><g><g><path d="M2118.34,2307.89c0.811,-1.327 -0.05,-3.277 0.758,-4.603c17.217,-28.185 35.494,-55.707 53.136,-83.625c41.478,-65.628 83.016,-131.215 124.228,-197.011c23.383,-37.331 46.594,-74.766 69.551,-112.358c21.668,-35.479 42.98,-71.171 64.318,-106.846c17.767,-29.698 35.27,-59.553 52.994,-89.276c17.785,-29.822 17.876,-29.759 36.216,-59.245c2.98,-4.788 7.865,-5.861 8.693,-6.043c1.729,-0.38 3.566,-0.44 5.309,-0.133c0.846,0.149 5.732,1.008 9.054,5.791c0.474,0.683 3.215,4.631 2.239,10.184c-0.316,1.794 -1.017,3.546 -1.966,5.101c-5.144,8.419 -10.775,16.53 -16.261,24.733c-7.384,11.045 -14.838,22.043 -22.344,33.003c-19.552,28.558 -39.312,56.967 -58.824,85.551c-23.435,34.332 -46.9,68.648 -70.022,103.194c-24.498,36.608 -48.749,73.379 -72.833,110.259c-42.448,65.005 -84.572,130.223 -126.756,195.399c-17.943,27.723 -35.265,55.857 -53.63,83.304c-0.864,1.292 -2.996,1.328 -3.86,2.621Z" style="fill:url(#_Linear27);"/></g><g><path d="M2168.77,2298.85c0.793,-1.302 -0.085,-3.223 0.709,-4.526c16.565,-27.162 34.187,-53.664 51.177,-80.559c39.944,-63.229 79.947,-126.42 119.624,-189.814c22.509,-35.967 44.851,-72.043 66.938,-108.275c20.845,-34.192 41.334,-68.598 61.853,-102.988c17.082,-28.631 33.9,-57.416 50.943,-86.069c17.096,-28.749 17.187,-28.689 34.844,-57.099c2.974,-4.787 7.862,-5.861 8.689,-6.043c1.73,-0.38 3.567,-0.44 5.31,-0.133c5.734,1.007 8.563,5.082 9.054,5.791c0.476,0.683 3.217,4.631 2.238,10.184c-0.316,1.794 -1.016,3.543 -1.966,5.101c-4.949,8.113 -10.384,15.92 -15.673,23.819c-7.123,10.633 -14.315,21.221 -21.558,31.771c-18.866,27.488 -37.944,54.828 -56.772,82.342c-22.615,33.049 -45.257,66.078 -67.555,99.341c-23.63,35.245 -47.011,70.657 -70.223,106.174c-40.911,62.605 -81.5,125.421 -122.15,188.198c-17.291,26.703 -33.959,53.814 -51.671,80.244c-0.85,1.266 -2.961,1.275 -3.811,2.541Z" style="fill:url(#_Linear28);"/></g><path d="M2218.42,2292.38c0.776,-1.276 -0.124,-3.158 0.652,-4.434c15.747,-25.883 32.552,-51.111 48.726,-76.73c38.025,-60.229 76.11,-120.418 113.867,-180.812c21.422,-34.268 42.674,-68.641 63.672,-103.168c19.818,-32.588 39.283,-65.389 58.773,-98.175c16.228,-27.292 32.192,-54.74 48.377,-82.057c16.239,-27.409 16.333,-27.346 33.128,-54.416c2.972,-4.786 7.865,-5.862 8.693,-6.044c1.729,-0.38 3.566,-0.44 5.309,-0.133c0.846,0.149 5.734,1.008 9.054,5.791c0.474,0.684 3.215,4.632 2.239,10.185c-0.316,1.793 -1.02,3.543 -1.966,5.1c-4.708,7.731 -9.899,15.161 -14.943,22.676c-6.794,10.12 -13.658,20.195 -20.573,30.232c-18.014,26.152 -36.235,52.155 -54.208,78.333c-21.588,31.44 -43.202,62.865 -64.476,94.523c-22.537,33.542 -44.832,67.25 -66.955,101.067c-38.992,59.607 -77.663,119.423 -116.392,179.198c-16.478,25.427 -32.33,51.262 -49.225,76.415c-0.833,1.24 -2.919,1.209 -3.752,2.449Z" style="fill:url(#_Linear29);"/></g><g><path d="M2834.78,2307.92c-0.792,-1.274 -2.882,-1.322 -3.677,-2.594c-16.166,-25.94 -31.272,-52.527 -47.011,-78.729c-37.003,-61.594 -73.943,-123.226 -111.211,-184.658c-21.145,-34.855 -42.466,-69.607 -64.036,-104.201c-20.356,-32.649 -41.066,-65.078 -61.747,-97.524c-17.218,-27.01 -34.689,-53.858 -51.948,-80.844c-17.314,-27.077 -17.218,-27.13 -33.978,-54.552c-2.94,-4.805 -1.699,-9.661 -1.489,-10.481c0.439,-1.715 1.212,-3.383 2.27,-4.801c3.48,-4.666 8.395,-5.36 9.246,-5.481c0.826,-0.115 5.583,-0.788 10.103,2.582c1.461,1.09 2.705,2.504 3.67,4.051c4.829,7.752 9.167,15.798 13.65,23.755c6.038,10.714 12,21.468 17.908,32.253c15.393,28.09 30.564,56.303 45.997,84.372c18.539,33.715 37.051,67.447 55.924,100.976c19.997,35.528 40.252,70.908 60.682,106.186c36.008,62.182 72.352,124.169 108.631,186.19c15.433,26.386 31.509,52.396 46.507,79.03c0.735,1.305 -0.226,3.163 0.509,4.47Z" style="fill:url(#_Linear30);"/><g><path d="M2861.19,2282.88c-0.781,-1.25 -2.852,-1.271 -3.633,-2.521c-15.596,-24.974 -30.131,-50.598 -45.299,-75.833c-35.656,-59.329 -71.251,-118.693 -107.176,-177.858c-20.384,-33.567 -40.938,-67.03 -61.747,-100.337c-19.638,-31.436 -39.626,-62.65 -59.589,-93.883c-16.619,-25.999 -33.49,-51.836 -50.15,-77.813c-16.713,-26.061 -16.618,-26.117 -32.776,-52.522c-2.94,-4.802 -1.698,-9.661 -1.489,-10.481c0.439,-1.715 1.213,-3.383 2.27,-4.801c3.481,-4.668 8.395,-5.36 9.246,-5.482c5.583,-0.787 9.435,2.084 10.103,2.583c1.461,1.09 2.706,2.503 3.67,4.051c4.658,7.462 8.825,15.221 13.139,22.889c5.806,10.327 11.539,20.693 17.218,31.088c14.795,27.083 29.364,54.284 44.198,81.342c17.821,32.503 35.611,65.019 53.766,97.335c19.234,34.24 38.727,68.333 58.393,102.326c34.664,59.911 69.662,119.63 104.599,179.384c14.86,25.419 30.364,50.468 44.789,76.136c0.721,1.285 -0.253,3.112 0.468,4.397Z" style="fill:url(#_Linear31);"/></g><g><path d="M2876.39,2236.13c-0.768,-1.222 -2.818,-1.209 -3.582,-2.433c-14.881,-23.767 -28.7,-48.185 -43.153,-72.214c-33.976,-56.492 -67.889,-113.021 -102.134,-169.349c-19.429,-31.96 -39.032,-63.817 -58.886,-95.515c-18.738,-29.918 -37.83,-59.614 -56.89,-89.329c-15.87,-24.736 -31.993,-49.31 -47.904,-74.025c-15.963,-24.792 -15.866,-24.847 -31.273,-49.986c-2.942,-4.798 -1.698,-9.661 -1.489,-10.481c0.439,-1.716 1.213,-3.383 2.27,-4.801c0.515,-0.689 3.48,-4.666 9.246,-5.482c0.826,-0.115 5.583,-0.788 10.103,2.583c1.461,1.09 2.705,2.506 3.67,4.051c4.442,7.105 8.4,14.503 12.499,21.809c5.519,9.841 10.963,19.722 16.355,29.633c14.044,25.819 27.865,51.757 41.952,77.553c16.918,30.984 33.812,61.983 51.066,92.781c18.28,32.631 36.819,65.117 55.533,97.501c32.985,57.077 66.302,113.961 99.556,170.881c14.145,24.212 28.935,48.052 42.644,72.514c0.707,1.26 -0.29,3.049 0.417,4.309Z" style="fill:url(#_Linear32);"/></g></g><g><path d="M2262.34,2094.89c1.322,-0.041 2.191,-1.802 3.512,-1.842c22.554,-0.676 45.129,-0.115 67.692,-0.295c53.043,-0.419 106.087,-0.766 159.128,-1.498c30.094,-0.417 60.188,-1.035 90.272,-1.949c28.401,-0.863 56.789,-2.141 85.175,-3.386c23.637,-1.037 47.258,-2.375 70.893,-3.459c23.712,-1.087 23.707,-0.977 47.434,-1.412c5.605,-0.102 9.174,3.467 9.773,4.065c1.252,1.253 2.292,2.768 2.974,4.401c2.238,5.373 0.33,9.954 -0.001,10.748c-0.321,0.769 -2.169,5.204 -7.373,7.373c-1.683,0.701 -3.535,1.04 -5.356,1.093c-6.741,0.19 -13.487,-0.172 -20.228,-0.372c-9.077,-0.269 -18.151,-0.624 -27.223,-1.042c-23.633,-1.082 -47.256,-2.421 -70.893,-3.458c-28.386,-1.246 -56.774,-2.523 -85.174,-3.385c-30.085,-0.915 -60.178,-1.532 -90.275,-1.948c-53.039,-0.734 -106.083,-1.082 -159.126,-1.5c-22.565,-0.179 -45.138,0.381 -67.692,-0.295c-1.321,-0.041 -2.191,-1.8 -3.512,-1.839Z" style="fill:url(#_Linear33);"/><g><path d="M2278.54,2059.18c1.302,-0.04 2.148,-1.8 3.451,-1.84c21.724,-0.676 43.471,-0.115 65.206,-0.293c51.097,-0.422 102.194,-0.768 153.289,-1.5c28.99,-0.418 57.981,-1.035 86.962,-1.949c27.357,-0.863 54.702,-2.14 82.048,-3.386c22.769,-1.037 45.523,-2.375 68.291,-3.46c22.841,-1.086 22.837,-0.977 45.692,-1.411c5.601,-0.106 9.174,3.467 9.773,4.065c1.253,1.253 2.293,2.766 2.974,4.402c2.238,5.372 0.331,9.952 0,10.745c-0.321,0.771 -2.17,5.206 -7.374,7.375c-1.682,0.701 -3.534,1.039 -5.355,1.093c-6.494,0.188 -12.994,-0.172 -19.487,-0.37c-8.744,-0.272 -17.485,-0.626 -26.223,-1.042c-22.768,-1.085 -45.522,-2.423 -68.291,-3.46c-27.346,-1.246 -54.691,-2.523 -82.048,-3.386c-28.981,-0.914 -57.972,-1.531 -86.962,-1.949c-51.095,-0.732 -102.192,-1.078 -153.289,-1.5c-21.735,-0.178 -43.482,0.383 -65.206,-0.293c-1.303,-0.041 -2.149,-1.8 -3.451,-1.841Z" style="fill:url(#_Linear34);"/></g><g><path d="M2294.51,2026.14c1.28,-0.042 2.093,-1.799 3.374,-1.839c20.689,-0.676 41.402,-0.118 62.103,-0.295c48.663,-0.42 97.328,-0.766 145.988,-1.5c27.611,-0.416 55.22,-1.033 82.819,-1.948c26.058,-0.864 52.1,-2.141 78.143,-3.387c21.685,-1.036 43.355,-2.374 65.039,-3.458c21.744,-1.088 21.741,-0.977 43.517,-1.412c5.596,-0.112 9.174,3.466 9.773,4.065c1.253,1.253 2.292,2.767 2.974,4.401c2.238,5.373 0.33,9.954 -0.001,10.747c-2.169,5.204 -6.604,7.053 -7.373,7.373c-1.683,0.702 -3.535,1.038 -5.356,1.094c-6.185,0.185 -12.375,-0.171 -18.559,-0.371c-8.328,-0.271 -16.653,-0.625 -24.974,-1.042c-21.684,-1.083 -43.355,-2.423 -65.04,-3.459c-26.042,-1.245 -52.085,-2.523 -78.142,-3.385c-27.598,-0.915 -55.209,-1.534 -82.821,-1.949c-48.659,-0.732 -97.324,-1.081 -145.989,-1.5c-20.699,-0.178 -41.412,0.38 -62.102,-0.294c-1.28,-0.042 -2.093,-1.799 -3.373,-1.841Z" style="fill:url(#_Linear35);"/></g></g></g><g id="R"><g><g><path d="M5340.41,2251.38c-0.034,-1.691 -1.965,-2.973 -2.002,-4.661c-0.742,-35.904 -0.124,-71.821 -0.32,-107.729c-0.456,-84.415 -0.832,-168.827 -1.63,-253.24c-0.452,-47.894 -1.123,-95.783 -2.119,-143.666c-0.937,-45.192 -2.327,-90.372 -3.681,-135.551c-1.125,-37.612 -2.583,-75.212 -3.762,-112.822c-1.183,-37.734 -1.062,-37.73 -1.535,-75.485c-0.076,-6.132 3.77,-9.977 4.421,-10.629c1.362,-1.361 3.009,-2.492 4.785,-3.232c5.841,-2.434 10.822,-0.361 11.687,0c0.834,0.348 5.658,2.359 8.017,8.017c0.761,1.828 1.146,3.844 1.187,5.824c0.222,10.725 -0.185,21.454 -0.404,32.182c-0.293,14.443 -0.678,28.884 -1.131,43.321c-1.179,37.614 -2.635,75.212 -3.762,112.826c-1.353,45.177 -2.742,90.357 -3.682,135.547c-0.993,47.885 -1.664,95.774 -2.118,143.666c-0.798,84.412 -1.174,168.829 -1.63,253.244c-0.194,35.906 0.421,71.825 -0.321,107.725c-0.034,1.69 -1.965,2.972 -2,4.663Z" style="fill:url(#_Linear36);"/></g><g><path d="M5381.31,2213.55c-0.037,-1.658 -1.966,-2.904 -2.002,-4.562c-0.74,-34.585 -0.125,-69.184 -0.319,-103.774c-0.456,-81.318 -0.834,-162.636 -1.63,-243.95c-0.454,-46.132 -1.125,-92.266 -2.12,-138.394c-0.938,-43.532 -2.327,-87.051 -3.68,-130.573c-1.127,-36.233 -2.585,-72.453 -3.761,-108.684c-1.183,-36.349 -1.063,-36.345 -1.536,-72.716c-0.079,-6.127 3.768,-9.974 4.42,-10.626c1.361,-1.361 3.008,-2.492 4.785,-3.232c0.864,-0.361 5.843,-2.436 11.686,0c0.836,0.346 5.66,2.357 8.017,8.018c0.762,1.828 1.147,3.843 1.187,5.823c0.22,10.332 -0.185,20.667 -0.402,31.001c-0.294,13.912 -0.679,27.824 -1.133,41.732c-1.176,36.231 -2.635,72.451 -3.761,108.684c-1.353,43.522 -2.742,87.041 -3.68,130.573c-0.996,46.128 -1.667,92.262 -2.121,138.394c-0.795,81.314 -1.174,162.632 -1.63,243.95c-0.193,34.59 0.422,69.189 -0.318,103.774c-0.037,1.658 -1.966,2.904 -2.002,4.562Z" style="fill:url(#_Linear37);"/></g><path d="M5422.99,2178.53c-0.037,-1.624 -1.964,-2.82 -2,-4.443c-0.74,-32.934 -0.127,-65.888 -0.321,-98.83c-0.456,-77.447 -0.832,-154.892 -1.63,-232.333c-0.453,-43.938 -1.124,-87.875 -2.118,-131.802c-0.94,-41.462 -2.327,-82.91 -3.682,-124.36c-1.125,-34.506 -2.583,-69.002 -3.761,-103.506c-1.183,-34.62 -1.063,-34.616 -1.536,-69.253c-0.081,-6.125 3.77,-9.976 4.422,-10.628c1.361,-1.361 3.009,-2.493 4.785,-3.232c5.841,-2.435 10.822,-0.362 11.686,-0c5.661,2.357 7.667,7.18 8.018,8.017c0.761,1.828 1.142,3.843 1.187,5.824c0.219,9.841 -0.185,19.686 -0.402,29.525c-0.295,13.25 -0.68,26.5 -1.134,39.745c-1.178,34.508 -2.634,69.002 -3.761,103.51c-1.355,41.446 -2.742,82.894 -3.682,124.355c-0.994,43.928 -1.667,87.867 -2.118,131.803c-0.796,77.443 -1.175,154.89 -1.63,232.332c-0.196,32.945 0.419,65.896 -0.321,98.835c-0.036,1.623 -1.966,2.817 -2.002,4.441Z" style="fill:url(#_Linear38);"/></g><g><path d="M5490.8,1773.28c0.844,-0.924 -0.011,-2.737 0.833,-3.663c10.702,-11.724 22.361,-22.538 33.449,-33.899c26.066,-26.713 52.188,-53.37 78.008,-80.316c14.654,-15.296 29.154,-30.744 43.411,-46.409c13.472,-14.798 26.609,-29.899 39.771,-44.973c10.964,-12.56 21.683,-25.334 32.607,-37.927c10.95,-12.622 11.035,-12.538 22.511,-24.684c4.149,-4.388 9.72,-4.388 10.64,-4.388c1.925,-0 3.89,0.363 5.672,1.098c5.852,2.409 7.907,7.397 8.262,8.261c2.333,5.669 0.346,10.5 -0,11.339c-0.755,1.832 -1.934,3.504 -3.28,4.959c-3.223,3.485 -6.843,6.581 -10.35,9.782c-4.726,4.309 -9.514,8.551 -14.344,12.743c-12.594,10.924 -25.368,21.64 -37.928,32.607c-15.076,13.162 -30.175,26.299 -44.976,39.768c-15.664,14.261 -31.112,28.757 -46.405,43.411c-26.95,25.821 -53.607,51.946 -80.317,78.011c-11.361,11.088 -22.175,22.747 -33.902,33.449c-0.923,0.842 -2.736,-0.014 -3.662,0.831Z" style="fill:url(#_Linear39);"/><g><path d="M5524.29,1794.36c0.864,-0.943 0.034,-2.787 0.901,-3.73c11.611,-12.638 24.182,-24.36 36.179,-36.632c28.205,-28.853 56.469,-57.649 84.432,-86.737c15.867,-16.509 31.58,-33.173 47.053,-50.051c14.617,-15.947 28.9,-32.191 43.208,-48.413c11.918,-13.514 23.588,-27.242 35.47,-40.79c11.91,-13.582 11.994,-13.497 24.424,-26.595c4.166,-4.388 9.72,-4.388 10.641,-4.388c1.925,-0 3.89,0.363 5.669,1.095c5.852,2.412 7.907,7.4 8.264,8.264c2.334,5.669 0.344,10.499 0,11.338c-0.754,1.833 -1.931,3.508 -3.279,4.96c-3.493,3.758 -7.389,7.124 -11.167,10.595c-5.092,4.676 -10.246,9.284 -15.442,13.841c-13.548,11.881 -27.276,23.552 -40.79,35.47c-16.222,14.308 -32.467,28.59 -48.413,43.208c-16.878,15.473 -33.542,31.186 -50.051,47.053c-29.089,27.963 -57.885,56.227 -86.737,84.432c-12.273,11.997 -23.994,24.571 -36.632,36.179c-0.943,0.867 -2.787,0.037 -3.73,0.901Z" style="fill:url(#_Linear40);"/></g><g><path d="M5577.64,1797.78c0.87,-0.946 0.043,-2.795 0.91,-3.741c11.76,-12.788 24.48,-24.658 36.624,-37.077c28.557,-29.199 57.167,-58.344 85.476,-87.781c16.067,-16.707 31.977,-33.565 47.647,-50.643c14.8,-16.129 29.272,-32.562 43.765,-48.97c12.073,-13.669 23.898,-27.552 35.935,-41.254c12.064,-13.737 12.149,-13.652 24.734,-26.907c4.169,-4.389 9.72,-4.389 10.643,-4.389c1.922,0 3.887,0.363 5.669,1.098c5.852,2.409 7.907,7.397 8.262,8.262c2.336,5.669 0.346,10.499 -0,11.338c-0.755,1.832 -1.931,3.507 -3.28,4.96c-3.535,3.802 -7.476,7.214 -11.298,10.73c-5.152,4.734 -10.365,9.401 -15.62,14.018c-13.703,12.033 -27.586,23.861 -41.255,35.934c-16.408,14.494 -32.841,28.962 -48.97,43.766c-17.078,15.67 -33.939,31.58 -50.645,47.647c-29.435,28.309 -58.58,56.919 -87.778,85.473c-12.422,12.146 -24.292,24.866 -37.078,36.624c-0.945,0.87 -2.795,0.042 -3.741,0.912Z" style="fill:url(#_Linear41);"/></g></g><g><path d="M5969.61,2217.59c-1.039,-0.979 -3.051,-0.284 -4.093,-1.264c-17.556,-16.517 -34.18,-34 -51.362,-50.909c-40.394,-39.749 -80.733,-79.554 -121.363,-119.057c-23.056,-22.418 -46.265,-44.675 -69.696,-66.701c-22.119,-20.791 -44.545,-41.252 -66.946,-61.739c-18.654,-17.06 -37.527,-33.876 -56.215,-50.898c-18.744,-17.072 -18.66,-17.156 -36.92,-34.746c-4.388,-4.228 -4.388,-9.72 -4.388,-10.641c-0,-1.925 0.366,-3.89 1.098,-5.669c2.409,-5.852 7.397,-7.907 8.261,-8.261c5.672,-2.337 10.502,-0.347 11.341,-0c1.833,0.754 3.516,1.917 4.957,3.279c5.239,4.946 10.058,10.316 14.995,15.563c6.651,7.066 13.233,14.193 19.766,21.365c17.021,18.688 33.837,37.564 50.895,56.216c20.487,22.403 40.951,44.829 61.741,66.948c22.024,23.428 44.284,46.64 66.699,69.693c39.503,40.633 79.308,80.973 119.057,121.366c16.909,17.182 34.392,33.806 50.912,51.362c0.977,1.039 0.284,3.055 1.261,4.093Z" style="fill:url(#_Linear42);"/><g><path d="M5947.03,2249.59c-1.067,-1.011 -3.124,-0.355 -4.194,-1.365c-18.941,-17.9 -36.945,-36.768 -55.509,-55.056c-43.644,-43 -87.232,-86.053 -131.113,-128.808c-24.9,-24.259 -49.953,-48.362 -75.227,-72.229c-23.856,-22.531 -48.022,-44.731 -72.165,-66.958c-20.101,-18.507 -40.421,-36.77 -60.559,-55.241c-20.196,-18.522 -20.109,-18.609 -39.822,-37.652c-4.388,-4.239 -4.388,-9.719 -4.388,-10.64c0,-1.925 0.363,-3.89 1.095,-5.669c0.358,-0.864 2.412,-5.852 8.265,-8.264c5.669,-2.334 10.499,-0.344 11.338,-0c1.832,0.754 3.521,1.917 4.96,3.279c5.652,5.357 10.882,11.144 16.233,16.805c7.203,7.619 14.342,15.304 21.429,23.031c18.469,20.137 36.734,40.458 55.242,60.559c22.226,24.143 44.427,48.308 66.957,72.164c23.867,25.275 47.971,50.327 72.229,75.227c42.755,43.881 85.808,87.469 128.808,131.114c18.288,18.564 37.156,36.567 55.056,55.509c1.01,1.069 0.355,3.127 1.365,4.194Z" style="fill:url(#_Linear43);"/></g><g><path d="M5890.27,2249.59c-1.07,-1.007 -3.128,-0.354 -4.197,-1.365c-18.941,-17.9 -36.945,-36.765 -55.509,-55.056c-43.645,-42.997 -87.233,-86.053 -131.114,-128.808c-24.897,-24.258 -49.949,-48.362 -75.224,-72.229c-23.859,-22.53 -48.024,-44.731 -72.164,-66.957c-20.101,-18.508 -40.425,-36.771 -60.559,-55.239c-20.197,-18.524 -20.112,-18.609 -39.825,-37.654c-4.388,-4.239 -4.388,-9.72 -4.388,-10.64c-0,-1.926 0.363,-3.89 1.098,-5.669c2.409,-5.853 7.397,-7.907 8.261,-8.262c5.669,-2.336 10.502,-0.346 11.341,-0c1.83,0.754 3.519,1.914 4.957,3.276c5.652,5.36 10.882,11.144 16.233,16.805c7.207,7.62 14.345,15.305 21.433,23.034c18.468,20.135 36.731,40.458 55.239,60.556c22.226,24.143 44.429,48.309 66.959,72.168c23.868,25.271 47.968,50.324 72.23,75.224c42.752,43.881 85.808,87.469 128.805,131.113c18.291,18.564 37.159,36.568 55.058,55.509c1.011,1.07 0.355,3.127 1.366,4.194Z" style="fill:url(#_Linear44);"/></g></g><g><g><path d="M5878.26,1488.49c-1.292,0.052 -2.03,1.948 -3.322,2.001c-17.825,0.728 -35.68,0.126 -53.518,0.32c-41.937,0.456 -83.877,0.834 -125.81,1.631c-23.796,0.451 -47.591,1.125 -71.372,2.118c-22.461,0.939 -44.9,2.327 -67.34,3.681c-18.69,1.128 -37.361,2.583 -56.049,3.762c-18.736,1.182 -18.736,1.063 -37.501,1.535c-6.055,0.153 -9.976,-3.768 -10.628,-4.42c-1.361,-1.361 -2.491,-3.009 -3.232,-4.785c-2.435,-5.843 -0.36,-10.822 0,-11.687c0.349,-0.837 2.358,-5.659 8.018,-8.017c1.829,-0.763 3.845,-1.116 5.824,-1.188c5.331,-0.191 10.667,0.186 15.996,0.404c7.179,0.294 14.353,0.68 21.523,1.131c18.689,1.18 37.358,2.635 56.049,3.762c22.44,1.354 44.88,2.743 67.34,3.681c23.782,0.995 47.576,1.667 71.372,2.119c41.934,0.798 83.873,1.174 125.809,1.631c17.839,0.193 35.693,-0.408 53.518,0.321c1.292,0.052 2.031,1.947 3.323,2Z" style="fill:url(#_Linear45);"/></g><g><path d="M5865.46,1451.28c-1.279,0.055 -1.998,1.947 -3.274,2.001c-17.171,0.728 -34.371,0.126 -51.555,0.321c-40.398,0.455 -80.798,0.833 -121.192,1.63c-22.924,0.453 -45.845,1.124 -68.753,2.119c-21.638,0.939 -43.254,2.328 -64.869,3.681c-18.006,1.127 -35.989,2.582 -53.992,3.761c-18.049,1.182 -18.049,1.062 -36.125,1.536c-6.05,0.158 -9.977,-3.77 -10.628,-4.42c-1.361,-1.361 -2.491,-3.009 -3.232,-4.786c-2.434,-5.843 -0.361,-10.823 0,-11.686c0.349,-0.837 2.358,-5.659 8.018,-8.017c1.829,-0.763 3.845,-1.114 5.825,-1.188c5.133,-0.189 10.275,0.186 15.409,0.403c6.916,0.294 13.826,0.68 20.733,1.132c18.003,1.18 35.986,2.635 53.992,3.762c21.615,1.353 43.231,2.742 64.869,3.681c22.908,0.994 45.829,1.665 68.753,2.118c40.394,0.797 80.794,1.176 121.192,1.631c17.184,0.194 34.384,-0.407 51.555,0.32c1.277,0.054 1.995,1.947 3.274,2.001Z" style="fill:url(#_Linear46);"/></g><g><path d="M5852.83,1414.7c-1.261,0.056 -1.953,1.945 -3.214,2c-16.35,0.726 -32.734,0.126 -49.099,0.321c-38.474,0.456 -76.952,0.832 -115.421,1.63c-21.833,0.452 -43.663,1.124 -65.479,2.119c-20.608,0.939 -41.194,2.328 -61.78,3.68c-17.149,1.128 -34.275,2.583 -51.421,3.762c-17.182,1.182 -17.184,1.062 -34.405,1.535c-6.041,0.167 -9.977,-3.769 -10.628,-4.419c-1.361,-1.362 -2.491,-3.009 -3.232,-4.786c-2.434,-5.843 -0.36,-10.822 0,-11.686c0.349,-0.838 2.358,-5.659 8.018,-8.017c1.829,-0.763 3.844,-1.111 5.825,-1.188c4.89,-0.187 9.787,0.185 14.676,0.403c6.587,0.293 13.168,0.68 19.746,1.132c17.146,1.18 34.272,2.635 51.421,3.762c20.585,1.354 41.172,2.741 61.78,3.681c21.816,0.994 43.646,1.666 65.479,2.118c38.469,0.798 76.947,1.174 115.422,1.632c16.364,0.193 32.748,-0.406 49.098,0.319c1.262,0.057 1.954,1.946 3.214,2.002Z" style="fill:url(#_Linear47);"/></g></g></g><g id="R1" serif:id="R"><g><path d="M5314.85,3010.59c-0.7,-0.661 -2.057,-0.192 -2.76,-0.852c-11.836,-11.137 -23.045,-22.924 -34.629,-34.325c-27.234,-26.799 -54.432,-53.636 -81.826,-80.27c-15.545,-15.115 -31.192,-30.121 -46.99,-44.972c-14.913,-14.017 -30.033,-27.812 -45.136,-41.625c-12.577,-11.503 -25.302,-22.84 -37.902,-34.317c-12.638,-11.51 -12.579,-11.565 -24.892,-23.426c-2.959,-2.851 -2.959,-6.554 -2.959,-7.174c0,-1.298 0.247,-2.621 0.74,-3.822c0.24,-0.583 1.625,-3.948 5.571,-5.571c0.565,-0.233 3.824,-1.573 7.646,0c1.234,0.507 2.368,1.291 3.338,2.206c5.419,5.118 21.598,22.882 23.44,24.903c11.477,12.6 22.814,25.327 34.315,37.902c13.813,15.105 27.61,30.225 41.627,45.138c14.849,15.796 29.857,31.445 44.97,46.988c26.634,27.396 53.471,54.594 80.271,81.828c11.4,11.584 23.187,22.793 34.326,34.629c0.658,0.701 0.191,2.06 0.85,2.76Z" style="fill:url(#_Linear48);"/><g><path d="M5299.63,3032.16c-0.72,-0.681 -2.107,-0.239 -2.828,-0.92c-12.771,-12.069 -24.909,-24.79 -37.425,-37.12c-29.426,-28.991 -58.814,-58.019 -88.4,-86.845c-16.788,-16.356 -33.679,-32.607 -50.719,-48.699c-16.085,-15.19 -32.378,-30.158 -48.655,-45.143c-13.553,-12.479 -27.253,-24.792 -40.83,-37.245c-13.617,-12.488 -13.557,-12.543 -26.849,-25.386c-2.959,-2.858 -2.959,-6.553 -2.959,-7.174c0,-1.298 0.245,-2.623 0.739,-3.822c0.241,-0.583 1.624,-3.947 5.572,-5.572c0.565,-0.232 3.822,-1.571 7.644,0c1.234,0.509 2.37,1.291 3.338,2.207c5.813,5.508 23.401,24.683 25.399,26.862c12.452,13.577 24.767,27.278 37.245,40.83c14.985,16.278 29.954,32.571 45.144,48.655c16.092,17.041 32.343,33.931 48.698,50.72c28.827,29.585 57.854,58.973 86.845,88.399c12.331,12.516 25.052,24.655 37.12,37.425c0.682,0.722 0.239,2.109 0.921,2.828Z" style="fill:url(#_Linear49);"/></g><g><path d="M5261.36,3032.16c-0.721,-0.68 -2.109,-0.239 -2.83,-0.921c-12.77,-12.068 -24.909,-24.787 -37.425,-37.119c-29.426,-28.99 -58.814,-58.019 -88.399,-86.845c-16.787,-16.356 -33.678,-32.607 -50.718,-48.699c-16.086,-15.19 -32.379,-30.158 -48.655,-45.144c-13.553,-12.478 -27.255,-24.791 -40.83,-37.243c-13.617,-12.49 -13.558,-12.545 -26.851,-25.387c-2.958,-2.858 -2.958,-6.553 -2.958,-7.174c-0,-1.298 0.246,-2.623 0.74,-3.822c1.624,-3.948 4.987,-5.331 5.57,-5.57c0.565,-0.234 3.822,-1.574 7.646,-0c1.234,0.506 2.371,1.288 3.338,2.205c5.812,5.509 23.401,24.683 25.399,26.864c12.452,13.575 24.765,27.277 37.243,40.828c14.986,16.278 29.956,32.571 45.146,48.657c16.092,17.038 32.341,33.929 48.699,50.717c28.824,29.586 57.853,58.974 86.843,88.4c12.332,12.516 25.053,24.655 37.121,37.425c0.682,0.721 0.24,2.109 0.921,2.828Z" style="fill:url(#_Linear50);"/></g></g><g><path d="M4971.87,2703.98c0.659,-0.7 0.192,-2.059 0.85,-2.759c11.139,-11.837 22.926,-23.045 34.326,-34.63c26.8,-27.234 53.637,-54.432 80.271,-81.827c15.113,-15.543 30.121,-31.193 44.97,-46.988c14.017,-14.914 27.814,-30.034 41.627,-45.139c11.501,-12.575 22.838,-25.302 34.314,-37.901c11.511,-12.638 11.566,-12.579 23.427,-24.89c2.853,-2.959 6.554,-2.959 7.174,-2.959c1.298,-0 2.623,0.245 3.824,0.74c0.583,0.239 3.946,1.623 5.57,5.57c1.574,3.822 0.234,7.079 0,7.645c-0.506,1.233 -1.29,2.37 -2.207,3.34c-5.116,5.418 -22.88,21.597 -24.903,23.438c-12.6,11.476 -25.325,22.814 -37.902,34.317c-15.103,13.812 -30.223,27.608 -45.136,41.625c-15.798,14.851 -31.445,29.857 -46.99,44.971c-27.394,26.634 -54.592,53.472 -81.826,80.271c-11.584,11.4 -22.793,23.188 -34.63,34.324c-0.702,0.661 -2.059,0.192 -2.759,0.852Z" style="fill:url(#_Linear51);"/><g><path d="M4987.09,2725.55c0.682,-0.719 0.239,-2.107 0.921,-2.828c12.068,-12.771 24.789,-24.909 37.119,-37.425c28.992,-29.426 58.019,-58.814 86.845,-88.4c16.356,-16.788 32.607,-33.679 48.699,-50.719c15.19,-16.084 30.158,-32.377 45.144,-48.655c12.478,-13.553 24.793,-27.253 37.245,-40.83c12.488,-13.617 12.543,-13.556 25.385,-26.849c2.858,-2.959 6.554,-2.959 7.174,-2.959c1.298,0 2.623,0.245 3.822,0.739c0.583,0.241 3.948,1.624 5.572,5.572c1.572,3.822 0.232,7.079 0,7.644c-0.508,1.234 -1.29,2.371 -2.207,3.338c-5.507,5.814 -24.683,23.401 -26.862,25.399c-13.577,12.454 -27.277,24.767 -40.83,37.245c-16.278,14.986 -32.57,29.954 -48.655,45.144c-17.04,16.092 -33.931,32.343 -50.719,48.699c-29.586,28.826 -58.974,57.853 -88.4,86.845c-12.516,12.33 -24.654,25.051 -37.425,37.119c-0.721,0.682 -2.108,0.239 -2.828,0.921Z" style="fill:url(#_Linear52);"/></g><g><path d="M5025.37,2725.55c0.681,-0.719 0.239,-2.106 0.921,-2.827c12.068,-12.771 24.789,-24.909 37.121,-37.426c28.99,-29.426 58.019,-58.814 86.843,-88.399c16.358,-16.788 32.607,-33.679 48.699,-50.718c15.19,-16.086 30.16,-32.379 45.146,-48.656c12.478,-13.551 24.791,-27.253 37.243,-40.829c12.489,-13.617 12.544,-13.558 25.385,-26.85c2.86,-2.959 6.553,-2.959 7.176,-2.959c1.296,0 2.621,0.245 3.822,0.74c0.583,0.239 3.946,1.623 5.57,5.57c0.234,0.566 1.574,3.823 0,7.645c-0.506,1.233 -1.288,2.37 -2.207,3.34c-5.507,5.811 -24.681,23.398 -26.862,25.399c-13.575,12.451 -27.277,24.765 -40.83,37.243c-16.276,14.985 -32.569,29.953 -48.655,45.144c-17.04,16.091 -33.931,32.343 -50.718,48.698c-29.585,28.826 -58.973,57.856 -88.399,86.845c-12.516,12.332 -24.655,25.052 -37.425,37.12c-0.721,0.681 -2.109,0.241 -2.83,0.92Z" style="fill:url(#_Linear53);"/></g></g><g><path d="M5695.12,2703.98c-0.701,-0.66 -2.058,-0.191 -2.76,-0.852c-11.837,-11.136 -23.045,-22.924 -34.63,-34.324c-27.234,-26.799 -54.432,-53.637 -81.825,-80.271c-15.545,-15.114 -31.193,-30.12 -46.99,-44.971c-14.914,-14.017 -30.034,-27.813 -45.137,-41.625c-12.577,-11.503 -25.302,-22.841 -37.901,-34.317c-12.638,-11.51 -12.579,-11.565 -24.892,-23.427c-2.959,-2.85 -2.959,-6.553 -2.959,-7.174c-0,-1.298 0.247,-2.621 0.74,-3.822c0.239,-0.582 1.625,-3.947 5.57,-5.57c3.824,-1.573 7.081,-0.233 7.647,-0c1.233,0.507 2.368,1.291 3.338,2.205c5.418,5.119 21.597,22.882 23.44,24.904c11.476,12.599 22.814,25.326 34.315,37.901c13.812,15.105 27.61,30.225 41.627,45.139c14.849,15.795 29.857,31.445 44.969,46.988c26.635,27.395 53.472,54.593 80.271,81.827c11.401,11.585 23.188,22.793 34.326,34.63c0.659,0.7 0.192,2.059 0.851,2.759Z" style="fill:url(#_Linear54);"/><g><path d="M5679.89,2725.55c-0.719,-0.682 -2.106,-0.239 -2.827,-0.921c-12.771,-12.068 -24.909,-24.789 -37.426,-37.119c-29.426,-28.992 -58.814,-58.019 -88.399,-86.845c-16.788,-16.356 -33.679,-32.607 -50.72,-48.699c-16.084,-15.19 -32.377,-30.158 -48.655,-45.144c-13.552,-12.478 -27.252,-24.791 -40.83,-37.245c-13.617,-12.488 -13.556,-12.543 -26.848,-25.385c-2.959,-2.858 -2.959,-6.553 -2.959,-7.174c-0,-1.298 0.245,-2.623 0.738,-3.822c1.625,-3.948 4.99,-5.331 5.572,-5.572c0.566,-0.232 3.823,-1.572 7.645,-0c1.233,0.508 2.37,1.29 3.338,2.207c5.813,5.507 23.4,24.683 25.399,26.862c12.452,13.577 24.767,27.277 37.245,40.83c14.985,16.278 29.953,32.571 45.144,48.655c16.091,17.04 32.343,33.931 48.698,50.719c28.826,29.586 57.854,58.974 86.845,88.4c12.33,12.516 25.052,24.654 37.12,37.425c0.681,0.721 0.239,2.109 0.92,2.828Z" style="fill:url(#_Linear55);"/></g><g><path d="M5641.62,2725.55c-0.722,-0.679 -2.109,-0.239 -2.83,-0.92c-12.771,-12.068 -24.909,-24.788 -37.425,-37.12c-29.426,-28.989 -58.814,-58.019 -88.4,-86.845c-16.786,-16.355 -33.677,-32.607 -50.718,-48.698c-16.086,-15.191 -32.379,-30.159 -48.654,-45.144c-13.553,-12.478 -27.255,-24.792 -40.83,-37.243c-13.617,-12.49 -13.559,-12.545 -26.851,-25.388c-2.959,-2.858 -2.959,-6.553 -2.959,-7.173c0,-1.299 0.247,-2.623 0.74,-3.823c1.625,-3.947 4.988,-5.331 5.571,-5.57c0.565,-0.233 3.822,-1.573 7.646,0c1.233,0.507 2.37,1.289 3.338,2.205c5.811,5.51 23.401,24.684 25.399,26.864c12.452,13.576 24.765,27.278 37.243,40.829c14.985,16.277 29.956,32.57 45.146,48.656c16.092,17.039 32.341,33.93 48.698,50.718c28.825,29.585 57.854,58.973 86.843,88.399c12.333,12.517 25.054,24.655 37.122,37.426c0.681,0.721 0.239,2.108 0.921,2.827Z" style="fill:url(#_Linear56);"/></g></g><g><path d="M5352.14,2999.62c0.658,-0.7 0.191,-2.059 0.85,-2.759c11.138,-11.837 22.926,-23.046 34.326,-34.63c26.799,-27.234 53.637,-54.432 80.271,-81.827c15.112,-15.544 30.121,-31.193 44.969,-46.989c14.018,-14.913 27.815,-30.033 41.627,-45.138c11.501,-12.575 22.839,-25.302 34.315,-37.902c11.51,-12.637 11.566,-12.579 23.427,-24.89c2.852,-2.959 6.553,-2.959 7.174,-2.959c1.298,0 2.623,0.245 3.824,0.741c3.946,1.622 5.331,4.987 5.57,5.57c1.573,3.822 0.234,7.079 0,7.644c-0.507,1.234 -1.29,2.371 -2.207,3.34c-5.117,5.419 -22.88,21.598 -24.903,23.439c-12.6,11.476 -25.325,22.814 -37.902,34.316c-15.103,13.813 -30.223,27.608 -45.136,41.626c-15.798,14.85 -31.446,29.856 -46.991,44.971c-27.393,26.634 -54.591,53.471 -81.825,80.271c-11.584,11.4 -22.793,23.187 -34.63,34.324c-0.702,0.66 -2.059,0.192 -2.759,0.852Z" style="fill:url(#_Linear57);"/><g><path d="M5367.36,3021.19c0.681,-0.719 0.239,-2.106 0.92,-2.827c12.069,-12.771 24.79,-24.909 37.12,-37.426c28.991,-29.426 58.019,-58.814 86.845,-88.399c16.356,-16.788 32.607,-33.679 48.699,-50.72c15.19,-16.084 30.158,-32.377 45.143,-48.655c12.479,-13.552 24.794,-27.252 37.245,-40.83c12.488,-13.617 12.543,-13.556 25.386,-26.848c2.858,-2.959 6.553,-2.959 7.174,-2.959c1.298,-0 2.623,0.245 3.822,0.738c0.583,0.241 3.947,1.625 5.572,5.572c1.571,3.823 0.232,7.079 0,7.645c-0.509,1.233 -1.29,2.37 -2.207,3.338c-5.508,5.813 -24.683,23.4 -26.862,25.399c-13.577,12.453 -27.278,24.767 -40.83,37.245c-16.278,14.985 -32.571,29.953 -48.655,45.144c-17.041,16.091 -33.931,32.343 -50.72,48.698c-29.585,28.826 -58.973,57.854 -88.399,86.845c-12.516,12.33 -24.655,25.052 -37.425,37.12c-0.722,0.681 -2.109,0.239 -2.828,0.92Z" style="fill:url(#_Linear58);"/></g><g><path d="M5405.63,3021.19c0.681,-0.719 0.239,-2.107 0.92,-2.828c12.069,-12.77 24.79,-24.909 37.122,-37.425c28.989,-29.426 58.019,-58.814 86.843,-88.399c16.357,-16.789 32.607,-33.679 48.698,-50.718c15.191,-16.086 30.161,-32.379 45.146,-48.657c12.478,-13.55 24.792,-27.253 37.243,-40.828c12.49,-13.617 12.545,-13.558 25.386,-26.851c2.86,-2.958 6.553,-2.958 7.176,-2.958c1.296,-0 2.62,0.244 3.822,0.74c0.582,0.239 3.945,1.622 5.57,5.57c0.233,0.565 1.573,3.822 -0,7.644c-0.507,1.234 -1.289,2.371 -2.207,3.341c-5.508,5.811 -24.682,23.398 -26.862,25.398c-13.575,12.452 -27.278,24.765 -40.83,37.244c-16.276,14.985 -32.569,29.953 -48.655,45.143c-17.041,16.092 -33.932,32.343 -50.718,48.699c-29.585,28.826 -58.973,57.855 -88.399,86.845c-12.516,12.332 -24.655,25.051 -37.426,37.12c-0.721,0.681 -2.108,0.241 -2.829,0.92Z" style="fill:url(#_Linear59);"/></g></g></g><g id="S1" serif:id="S"><g><path d="M3069.27,3547.03c0.861,-0.934 0.05,-2.765 0.911,-3.701c11.784,-12.796 24.514,-24.689 36.68,-37.125c28.599,-29.235 57.255,-58.417 85.613,-87.887c16.094,-16.724 32.033,-33.599 47.737,-50.689c14.834,-16.142 29.338,-32.584 43.869,-48.999c12.102,-13.675 23.961,-27.563 36.026,-41.27c12.095,-13.744 12.179,-13.661 24.788,-26.928c4.111,-4.326 9.58,-4.326 10.488,-4.326c1.897,0 3.833,0.358 5.587,1.082c5.77,2.375 7.794,7.292 8.145,8.143c0.34,0.827 2.301,5.589 -0,11.176c-0.744,1.806 -1.902,3.458 -3.231,4.887c-3.544,3.809 -7.485,7.227 -11.312,10.75c-5.154,4.744 -10.371,9.423 -15.63,14.052c-13.708,12.064 -27.595,23.923 -41.269,36.026c-16.417,14.529 -32.857,29.035 -49,43.867c-17.09,15.705 -33.966,31.645 -50.69,47.738c-29.47,28.359 -58.65,57.014 -87.886,85.614c-12.435,12.165 -24.328,24.896 -37.126,36.68c-0.934,0.86 -2.766,0.05 -3.7,0.91Z" style="fill:url(#_Linear60);"/><path d="M3105.84,3567.93c0.851,-0.927 0.028,-2.742 0.879,-3.668c11.333,-12.345 23.611,-23.788 35.326,-35.772c27.537,-28.173 55.133,-56.294 82.429,-84.703c15.491,-16.122 30.829,-32.396 45.931,-48.884c14.266,-15.574 28.203,-31.447 42.165,-47.295c11.629,-13.201 23.016,-26.615 34.607,-39.851c11.618,-13.263 11.702,-13.182 23.839,-25.979c4.104,-4.326 9.58,-4.326 10.488,-4.326c1.898,0 3.834,0.358 5.589,1.082c5.768,2.375 7.792,7.292 8.143,8.143c2.302,5.589 0.34,10.349 0,11.176c-0.743,1.806 -1.902,3.457 -3.231,4.887c-3.41,3.673 -7.215,6.958 -10.906,10.346c-4.974,4.564 -10.009,9.059 -15.086,13.507c-13.236,11.591 -26.65,22.978 -39.851,34.607c-15.848,13.962 -31.721,27.899 -47.295,42.164c-16.489,15.103 -32.762,30.441 -48.884,45.932c-28.409,27.296 -56.53,54.891 -84.703,82.429c-11.984,11.715 -23.427,23.993 -35.772,35.326c-0.926,0.851 -2.741,0.028 -3.668,0.879Z" style="fill:url(#_Linear61);"/><path d="M3139.8,3586.21c0.837,-0.916 -0,-2.711 0.837,-3.626c10.767,-11.779 22.482,-22.659 33.631,-34.078c26.212,-26.848 52.481,-53.642 78.451,-80.724c14.74,-15.371 29.324,-30.891 43.673,-46.627c13.557,-14.864 26.784,-30.027 40.035,-45.164c11.039,-12.611 21.835,-25.434 32.835,-38.079c11.024,-12.671 11.108,-12.59 22.654,-24.793c4.093,-4.326 9.58,-4.326 10.487,-4.326c1.898,0 3.834,0.358 5.589,1.082c5.768,2.375 7.793,7.292 8.143,8.143c2.302,5.589 0.341,10.349 0,11.176c-0.744,1.806 -1.905,3.454 -3.231,4.887c-3.243,3.503 -6.878,6.62 -10.402,9.84c-4.746,4.337 -9.554,8.607 -14.404,12.827c-12.645,11 -25.468,21.796 -38.078,32.835c-15.138,13.251 -30.301,26.478 -45.166,40.033c-15.734,14.35 -31.257,28.935 -46.627,43.675c-27.081,25.97 -53.875,52.238 -80.723,78.451c-11.42,11.149 -22.298,22.862 -34.078,33.632c-0.917,0.836 -2.711,-0 -3.626,0.836Z" style="fill:url(#_Linear62);"/></g><g><path d="M3457.77,3874.09c-0.909,-0.887 -2.763,-0.13 -3.673,-1.017c-12.449,-12.151 -23.967,-25.221 -36.044,-37.743c-28.393,-29.436 -56.73,-58.927 -85.364,-88.129c-16.25,-16.573 -32.655,-32.996 -49.281,-49.189c-15.705,-15.296 -31.719,-30.272 -47.705,-45.273c-13.317,-12.495 -26.855,-24.752 -40.206,-37.209c-13.387,-12.49 -13.302,-12.571 -26.197,-25.56c-4.204,-4.235 -4.046,-9.702 -4.019,-10.609c0.055,-1.897 0.469,-3.822 1.243,-5.554c2.542,-5.698 7.515,-7.579 8.377,-7.905c5.653,-2.138 10.354,-0.039 11.171,0.325c1.784,0.796 3.401,2.002 4.791,3.372c3.704,3.652 7.007,7.691 10.417,11.618c4.592,5.29 9.117,10.641 13.592,16.032c11.661,14.053 23.112,28.278 34.812,42.298c14.046,16.832 28.068,33.686 42.426,50.253c15.202,17.539 30.645,34.871 46.246,52.055c27.491,30.281 55.286,60.281 83.025,90.335c11.799,12.783 24.179,25.041 35.586,38.176c0.833,0.959 -0.03,2.766 0.803,3.724Z" style="fill:url(#_Linear63);"/><path d="M3479.72,3838.15c-0.901,-0.876 -2.74,-0.107 -3.64,-0.984c-12.011,-11.687 -23.092,-24.292 -34.731,-36.35c-27.362,-28.344 -54.67,-56.744 -82.274,-84.854c-15.665,-15.953 -31.486,-31.757 -47.529,-47.332c-15.153,-14.712 -30.615,-29.104 -46.051,-43.52c-12.858,-12.008 -25.935,-23.779 -38.829,-35.75c-12.92,-11.998 -12.837,-12.079 -25.275,-24.583c-4.205,-4.228 -4.046,-9.702 -4.02,-10.609c0.055,-1.897 0.469,-3.822 1.243,-5.555c2.542,-5.697 7.515,-7.578 8.377,-7.904c0.836,-0.316 5.653,-2.138 11.171,0.325c1.784,0.795 3.4,2.002 4.791,3.372c3.573,3.514 6.745,7.414 10.025,11.202c4.417,5.104 8.764,10.267 13.063,15.471c11.202,13.567 22.194,27.306 33.435,40.84c13.496,16.246 26.966,32.517 40.773,48.499c14.618,16.92 29.477,33.632 44.493,50.197c26.46,29.19 53.227,58.1 79.935,87.061c11.362,12.32 23.302,24.114 34.272,36.783c0.823,0.95 -0.051,2.74 0.771,3.691Z" style="fill:url(#_Linear64);"/><path d="M3498.98,3804.74c-0.892,-0.863 -2.71,-0.078 -3.601,-0.941c-11.462,-11.106 -21.996,-23.131 -33.087,-34.608c-26.075,-26.98 -52.095,-54.016 -78.412,-80.762c-14.936,-15.18 -30.026,-30.208 -45.339,-45.008c-14.464,-13.983 -29.236,-27.644 -43.982,-41.33c-12.285,-11.4 -24.789,-22.564 -37.109,-33.927c-12.346,-11.387 -12.262,-11.469 -24.125,-23.364c-4.205,-4.217 -4.046,-9.701 -4.019,-10.608c0.055,-1.897 0.469,-3.822 1.243,-5.555c2.542,-5.697 7.515,-7.578 8.377,-7.904c0.836,-0.316 5.653,-2.138 11.171,0.325c1.784,0.796 3.396,2.004 4.791,3.371c3.407,3.344 6.417,7.068 9.533,10.684c4.198,4.87 8.327,9.799 12.404,14.77c10.628,12.959 21.047,26.09 31.715,39.016c12.806,15.516 25.587,31.057 38.705,46.309c13.886,16.145 28.015,32.084 42.302,47.876c25.173,27.824 50.651,55.369 76.074,82.967c10.812,11.739 22.205,22.953 32.627,35.041c0.81,0.94 -0.078,2.71 0.732,3.648Z" style="fill:url(#_Linear65);"/></g><g><path d="M3070.09,4122.55c0.899,-0.897 0.166,-2.761 1.065,-3.659c12.31,-12.292 25.527,-23.641 38.203,-35.556c29.798,-28.012 59.652,-55.968 89.22,-84.223c16.781,-16.036 33.413,-32.228 49.819,-48.645c15.497,-15.507 30.677,-31.326 45.883,-47.118c12.665,-13.156 25.095,-26.535 37.723,-39.724c12.66,-13.225 12.741,-13.139 25.895,-25.866c4.288,-4.15 9.753,-3.921 10.66,-3.883c1.896,0.08 3.815,0.519 5.537,1.315c0.837,0.386 5.665,2.615 7.796,8.477c0.306,0.841 2.065,5.681 -0.468,11.166c-0.819,1.774 -2.045,3.376 -3.433,4.748c-3.7,3.657 -7.781,6.907 -11.752,10.267c-5.348,4.524 -10.757,8.979 -16.205,13.384c-14.201,11.479 -28.573,22.747 -42.743,34.266c-17.01,13.828 -34.044,27.632 -50.794,41.776c-17.733,14.975 -35.262,30.193 -52.646,45.572c-30.632,27.099 -60.987,54.506 -91.395,81.856c-12.934,11.634 -25.35,23.855 -38.63,35.093c-0.97,0.82 -2.766,-0.066 -3.735,0.754Z" style="fill:url(#_Linear66);"/><path d="M3105.75,4144.97c0.888,-0.89 0.142,-2.738 1.031,-3.627c11.84,-11.86 24.587,-22.778 36.793,-34.261c28.694,-26.995 57.443,-53.935 85.906,-81.175c16.153,-15.459 32.159,-31.076 47.939,-46.917c14.906,-14.963 29.495,-30.238 44.109,-45.487c12.172,-12.703 24.111,-25.628 36.246,-38.366c12.163,-12.765 12.244,-12.68 24.907,-24.957c4.281,-4.15 9.753,-3.921 10.66,-3.883c1.896,0.08 3.815,0.519 5.538,1.315c5.664,2.615 7.481,7.612 7.795,8.477c2.066,5.68 -0.093,10.355 -0.468,11.166c-0.817,1.774 -2.045,3.374 -3.433,4.748c-3.56,3.527 -7.5,6.649 -11.33,9.88c-5.161,4.351 -10.379,8.631 -15.639,12.863c-13.709,11.026 -27.588,21.841 -41.265,32.907c-16.419,13.286 -32.862,26.545 -49.02,40.146c-17.107,14.398 -34.009,29.041 -50.766,43.843c-29.527,26.082 -58.78,52.475 -88.081,78.808c-12.465,11.203 -24.412,22.99 -37.222,33.796c-0.96,0.811 -2.739,-0.086 -3.7,0.724Z" style="fill:url(#_Linear67);"/><path d="M3138.91,4164.66c0.875,-0.881 0.114,-2.709 0.988,-3.588c11.252,-11.318 23.412,-21.698 35.03,-32.639c27.314,-25.727 54.682,-51.396 81.764,-77.367c15.371,-14.74 30.592,-29.636 45.588,-44.757c14.168,-14.282 28.018,-28.878 41.892,-43.447c11.558,-12.137 22.881,-24.496 34.402,-36.669c11.545,-12.198 11.625,-12.114 23.672,-23.822c4.271,-4.151 9.753,-3.921 10.66,-3.883c1.896,0.08 3.815,0.519 5.538,1.315c5.664,2.615 7.48,7.612 7.795,8.477c0.305,0.84 2.065,5.68 -0.468,11.166c-0.819,1.774 -2.048,3.371 -3.433,4.748c-3.387,3.363 -7.149,6.326 -10.806,9.395c-4.923,4.135 -9.905,8.199 -14.928,12.212c-13.095,10.461 -26.359,20.71 -39.421,31.211c-15.679,12.606 -31.383,25.186 -46.803,38.106c-16.322,13.678 -32.441,27.6 -48.416,41.683c-28.145,24.812 -56.016,49.935 -83.939,75c-11.877,10.661 -23.236,21.908 -35.457,32.174c-0.951,0.798 -2.709,-0.113 -3.658,0.685Z" style="fill:url(#_Linear68);"/></g></g></g></g><defs><radialGradient id="_Radial1" cx="0" cy="0" r="1" gradientUnits="userSpaceOnUse" gradientTransform="matrix(6.93145e-14,-1131.99,1131.99,6.93145e-14,3980.24,1379.49)"><stop offset="0" style="stop-color:#000;stop-opacity:1"/><stop offset="0.5" style="stop-color:#27221b;stop-opacity:1"/><stop offset="1" style="stop-color:#98856b;stop-opacity:1"/></radialGradient><radialGradient id="_Radial2" cx="0" cy="0" r="1" gradientUnits="userSpaceOnUse" gradientTransform="matrix(222.909,383.272,-744.434,432.957,4111.88,1434.12)"><stop offset="0" style="stop-color:#6800ff;stop-opacity:1"/><stop offset="0.53" style="stop-color:#5100c6;stop-opacity:0.78"/><stop offset="1" style="stop-color:#000;stop-opacity:0"/></radialGradient><radialGradient id="_Radial3" cx="0" cy="0" r="1" gradientUnits="userSpaceOnUse" gradientTransform="matrix(-205.555,398.211,773.452,399.254,3825.63,1434.12)"><stop offset="0" style="stop-color:#6800ff;stop-opacity:1"/><stop offset="0.53" style="stop-color:#5100c6;stop-opacity:0.78"/><stop offset="1" style="stop-color:#000;stop-opacity:0"/></radialGradient><radialGradient id="_Radial4" cx="0" cy="0" r="1" gradientUnits="userSpaceOnUse" gradientTransform="matrix(56.8754,2063.64,-2063.64,56.8754,3923.37,1700.29)"><stop offset="0" style="stop-color:#98856b;stop-opacity:1"/><stop offset="0.53" style="stop-color:#80705a;stop-opacity:1"/><stop offset="1" style="stop-color:#302920;stop-opacity:1"/></radialGradient><linearGradient id="_Linear5" x1="0" y1="0" x2="1" y2="0" gradientUnits="userSpaceOnUse" gradientTransform="matrix(19.7555,1855.87,-1855.87,19.7555,3980.24,1543.7)"><stop offset="0" style="stop-color:#4b3d2a;stop-opacity:1"/><stop offset="1" style="stop-color:#98856b;stop-opacity:1"/></linearGradient><radialGradient id="_Radial6" cx="0" cy="0" r="1" gradientUnits="userSpaceOnUse" gradientTransform="matrix(27.808,-1059.54,1945.89,51.0706,3952.42,1615.61)"><stop offset="0" style="stop-color:#000;stop-opacity:1"/><stop offset="0.5" style="stop-color:#27221b;stop-opacity:1"/><stop offset="1" style="stop-color:#98856b;stop-opacity:1"/></radialGradient><radialGradient id="_Radial7" cx="0" cy="0" r="1" gradientUnits="userSpaceOnUse" gradientTransform="matrix(-550.574,65.0446,-119.458,-1011.16,3985.08,1383.65)"><stop offset="0" style="stop-color:#6800ff;stop-opacity:1"/><stop offset="0.53" style="stop-color:#5100c6;stop-opacity:0.78"/><stop offset="1" style="stop-color:#000;stop-opacity:0"/></radialGradient><radialGradient id="_Radial8" cx="0" cy="0" r="1" gradientUnits="userSpaceOnUse" gradientTransform="matrix(61.7241,-1042.9,1915.34,113.36,3923.36,1379.48)"><stop offset="0" style="stop-color:#6800ff;stop-opacity:1"/><stop offset="0.53" style="stop-color:#5100c6;stop-opacity:0.78"/><stop offset="1" style="stop-color:#000;stop-opacity:0"/></radialGradient><linearGradient id="_Linear9" x1="0" y1="0" x2="1" y2="0" gradientUnits="userSpaceOnUse" gradientTransform="matrix(-503.891,493.069,-493.069,-503.891,2570.54,287.319)"><stop offset="0" style="stop-color:#98856b;stop-opacity:1"/><stop offset="1" style="stop-color:#4b3d2a;stop-opacity:1"/></linearGradient><linearGradient id="_Linear10" x1="0" y1="0" x2="1" y2="0" gradientUnits="userSpaceOnUse" gradientTransform="matrix(-503.891,493.069,-493.069,-503.891,2570.54,287.319)"><stop offset="0" style="stop-color:#98856b;stop-opacity:1"/><stop offset="1" style="stop-color:#4b3d2a;stop-opacity:1"/></linearGradient><linearGradient id="_Linear11" x1="0" y1="0" x2="1" y2="0" gradientUnits="userSpaceOnUse" gradientTransform="matrix(-503.891,493.069,-493.069,-503.891,2570.54,287.319)"><stop offset="0" style="stop-color:#98856b;stop-opacity:1"/><stop offset="1" style="stop-color:#4b3d2a;stop-opacity:1"/></linearGradient><linearGradient id="_Linear12" x1="0" y1="0" x2="1" y2="0" gradientUnits="userSpaceOnUse" gradientTransform="matrix(478.228,517.998,-517.998,478.228,2251.21,728.517)"><stop offset="0" style="stop-color:#98856b;stop-opacity:1"/><stop offset="1" style="stop-color:#4b3d2a;stop-opacity:1"/></linearGradient><linearGradient id="_Linear13" x1="0" y1="0" x2="1" y2="0" gradientUnits="userSpaceOnUse" gradientTransform="matrix(478.228,517.998,-517.998,478.228,2251.21,728.517)"><stop offset="0" style="stop-color:#98856b;stop-opacity:1"/><stop offset="1" style="stop-color:#4b3d2a;stop-opacity:1"/></linearGradient><linearGradient id="_Linear14" x1="0" y1="0" x2="1" y2="0" gradientUnits="userSpaceOnUse" gradientTransform="matrix(478.228,517.998,-517.998,478.228,2251.21,728.517)"><stop offset="0" style="stop-color:#98856b;stop-opacity:1"/><stop offset="1" style="stop-color:#4b3d2a;stop-opacity:1"/></linearGradient><linearGradient id="_Linear15" x1="0" y1="0" x2="1" y2="0" gradientUnits="userSpaceOnUse" gradientTransform="matrix(-524.107,471.526,-471.526,-524.107,2590.18,1289.93)"><stop offset="0" style="stop-color:#98856b;stop-opacity:1"/><stop offset="1" style="stop-color:#4b3d2a;stop-opacity:1"/></linearGradient><linearGradient id="_Linear16" x1="0" y1="0" x2="1" y2="0" gradientUnits="userSpaceOnUse" gradientTransform="matrix(-524.107,471.526,-471.526,-524.107,2590.18,1289.93)"><stop offset="0" style="stop-color:#98856b;stop-opacity:1"/><stop offset="1" style="stop-color:#4b3d2a;stop-opacity:1"/></linearGradient><linearGradient id="_Linear17" x1="0" y1="0" x2="1" y2="0" gradientUnits="userSpaceOnUse" gradientTransform="matrix(-524.107,471.526,-471.526,-524.107,2590.18,1289.93)"><stop offset="0" style="stop-color:#98856b;stop-opacity:1"/><stop offset="1" style="stop-color:#4b3d2a;stop-opacity:1"/></linearGradient><linearGradient id="_Linear18" x1="0" y1="0" x2="1" y2="0" gradientUnits="userSpaceOnUse" gradientTransform="matrix(-315.976,482.409,-482.409,-315.976,4359.02,3887.03)"><stop offset="0" style="stop-color:#98856b;stop-opacity:1"/><stop offset="1" style="stop-color:#4b3d2a;stop-opacity:1"/></linearGradient><linearGradient id="_Linear19" x1="0" y1="0" x2="1" y2="0" gradientUnits="userSpaceOnUse" gradientTransform="matrix(-315.976,482.409,-482.409,-315.976,4340.04,3862.93)"><stop offset="0" style="stop-color:#98856b;stop-opacity:1"/><stop offset="1" style="stop-color:#4b3d2a;stop-opacity:1"/></linearGradient><linearGradient id="_Linear20" x1="0" y1="0" x2="1" y2="0" gradientUnits="userSpaceOnUse" gradientTransform="matrix(-315.976,482.409,-482.409,-315.976,4324.82,3843.47)"><stop offset="0" style="stop-color:#98856b;stop-opacity:1"/><stop offset="1" style="stop-color:#4b3d2a;stop-opacity:1"/></linearGradient><linearGradient id="_Linear21" x1="0" y1="0" x2="1" y2="0" gradientUnits="userSpaceOnUse" gradientTransform="matrix(267.168,462.045,-462.045,267.168,4300.29,3853.64)"><stop offset="0" style="stop-color:#98856b;stop-opacity:1"/><stop offset="1" style="stop-color:#4b3d2a;stop-opacity:1"/></linearGradient><linearGradient id="_Linear22" x1="0" y1="0" x2="1" y2="0" gradientUnits="userSpaceOnUse" gradientTransform="matrix(267.168,462.045,-462.045,267.168,4281.9,3874.25)"><stop offset="0" style="stop-color:#98856b;stop-opacity:1"/><stop offset="1" style="stop-color:#4b3d2a;stop-opacity:1"/></linearGradient><linearGradient id="_Linear23" x1="0" y1="0" x2="1" y2="0" gradientUnits="userSpaceOnUse" gradientTransform="matrix(267.168,462.045,-462.045,267.168,4259.4,3876.52)"><stop offset="0" style="stop-color:#98856b;stop-opacity:1"/><stop offset="1" style="stop-color:#4b3d2a;stop-opacity:1"/></linearGradient><linearGradient id="_Linear24" x1="0" y1="0" x2="1" y2="0" gradientUnits="userSpaceOnUse" gradientTransform="matrix(-393.981,4.27669,4.27669,393.981,4498.09,4142.78)"><stop offset="0" style="stop-color:#98856b;stop-opacity:1"/><stop offset="1" style="stop-color:#4b3d2a;stop-opacity:1"/></linearGradient><linearGradient id="_Linear25" x1="0" y1="0" x2="1" y2="0" gradientUnits="userSpaceOnUse" gradientTransform="matrix(-393.981,4.27669,4.27669,393.981,4499.43,4155.24)"><stop offset="0" style="stop-color:#98856b;stop-opacity:1"/><stop offset="1" style="stop-color:#4b3d2a;stop-opacity:1"/></linearGradient><linearGradient id="_Linear26" x1="0" y1="0" x2="1" y2="0" gradientUnits="userSpaceOnUse" gradientTransform="matrix(-393.981,4.27669,4.27669,393.981,4500.6,4166.14)"><stop offset="0" style="stop-color:#98856b;stop-opacity:1"/><stop offset="1" style="stop-color:#4b3d2a;stop-opacity:1"/></linearGradient><linearGradient id="_Linear27" x1="0" y1="0" x2="1" y2="0" gradientUnits="userSpaceOnUse" gradientTransform="matrix(-431.017,658.046,-658.046,-431.017,2609.07,1690.76)"><stop offset="0" style="stop-color:#98856b;stop-opacity:1"/><stop offset="1" style="stop-color:#4b3d2a;stop-opacity:1"/></linearGradient><linearGradient id="_Linear28" x1="0" y1="0" x2="1" y2="0" gradientUnits="userSpaceOnUse" gradientTransform="matrix(-431.017,658.046,-658.046,-431.017,2583.18,1657.88)"><stop offset="0" style="stop-color:#98856b;stop-opacity:1"/><stop offset="1" style="stop-color:#4b3d2a;stop-opacity:1"/></linearGradient><linearGradient id="_Linear29" x1="0" y1="0" x2="1" y2="0" gradientUnits="userSpaceOnUse" gradientTransform="matrix(-431.017,658.046,-658.046,-431.017,2562.42,1631.34)"><stop offset="0" style="stop-color:#98856b;stop-opacity:1"/><stop offset="1" style="stop-color:#4b3d2a;stop-opacity:1"/></linearGradient><linearGradient id="_Linear30" x1="0" y1="0" x2="1" y2="0" gradientUnits="userSpaceOnUse" gradientTransform="matrix(364.439,630.268,-630.268,364.439,2528.95,1645.21)"><stop offset="0" style="stop-color:#98856b;stop-opacity:1"/><stop offset="1" style="stop-color:#4b3d2a;stop-opacity:1"/></linearGradient><linearGradient id="_Linear31" x1="0" y1="0" x2="1" y2="0" gradientUnits="userSpaceOnUse" gradientTransform="matrix(364.439,630.268,-630.268,364.439,2503.88,1673.33)"><stop offset="0" style="stop-color:#98856b;stop-opacity:1"/><stop offset="1" style="stop-color:#4b3d2a;stop-opacity:1"/></linearGradient><linearGradient id="_Linear32" x1="0" y1="0" x2="1" y2="0" gradientUnits="userSpaceOnUse" gradientTransform="matrix(364.439,630.268,-630.268,364.439,2473.18,1676.42)"><stop offset="0" style="stop-color:#98856b;stop-opacity:1"/><stop offset="1" style="stop-color:#4b3d2a;stop-opacity:1"/></linearGradient><linearGradient id="_Linear33" x1="0" y1="0" x2="1" y2="0" gradientUnits="userSpaceOnUse" gradientTransform="matrix(-537.423,5.83376,5.83376,537.423,2798.78,2039.62)"><stop offset="0" style="stop-color:#98856b;stop-opacity:1"/><stop offset="1" style="stop-color:#4b3d2a;stop-opacity:1"/></linearGradient><linearGradient id="_Linear34" x1="0" y1="0" x2="1" y2="0" gradientUnits="userSpaceOnUse" gradientTransform="matrix(-537.423,5.83376,5.83376,537.423,2800.6,2056.62)"><stop offset="0" style="stop-color:#98856b;stop-opacity:1"/><stop offset="1" style="stop-color:#4b3d2a;stop-opacity:1"/></linearGradient><linearGradient id="_Linear35" x1="0" y1="0" x2="1" y2="0" gradientUnits="userSpaceOnUse" gradientTransform="matrix(-537.423,5.83376,5.83376,537.423,2802.2,2071.49)"><stop offset="0" style="stop-color:#98856b;stop-opacity:1"/><stop offset="1" style="stop-color:#4b3d2a;stop-opacity:1"/></linearGradient><linearGradient id="_Linear36" x1="0" y1="0" x2="1" y2="0" gradientUnits="userSpaceOnUse" gradientTransform="matrix(-9.28408,855.277,-855.277,-9.28408,5428.36,1398.59)"><stop offset="0" style="stop-color:#98856b;stop-opacity:1"/><stop offset="1" style="stop-color:#4b3d2a;stop-opacity:1"/></linearGradient><linearGradient id="_Linear37" x1="0" y1="0" x2="1" y2="0" gradientUnits="userSpaceOnUse" gradientTransform="matrix(-9.28408,855.277,-855.277,-9.28408,5385.38,1383.64)"><stop offset="0" style="stop-color:#98856b;stop-opacity:1"/><stop offset="1" style="stop-color:#4b3d2a;stop-opacity:1"/></linearGradient><linearGradient id="_Linear38" x1="0" y1="0" x2="1" y2="0" gradientUnits="userSpaceOnUse" gradientTransform="matrix(-9.28408,855.277,-855.277,-9.28408,5350.81,1371.5)"><stop offset="0" style="stop-color:#98856b;stop-opacity:1"/><stop offset="1" style="stop-color:#4b3d2a;stop-opacity:1"/></linearGradient><linearGradient id="_Linear39" x1="0" y1="0" x2="1" y2="0" gradientUnits="userSpaceOnUse" gradientTransform="matrix(-565.803,553.652,-553.652,-565.803,6106.56,1272.64)"><stop offset="0" style="stop-color:#98856b;stop-opacity:1"/><stop offset="1" style="stop-color:#4b3d2a;stop-opacity:1"/></linearGradient><linearGradient id="_Linear40" x1="0" y1="0" x2="1" y2="0" gradientUnits="userSpaceOnUse" gradientTransform="matrix(-565.803,553.652,-553.652,-565.803,6070.19,1253.79)"><stop offset="0" style="stop-color:#98856b;stop-opacity:1"/><stop offset="1" style="stop-color:#4b3d2a;stop-opacity:1"/></linearGradient><linearGradient id="_Linear41" x1="0" y1="0" x2="1" y2="0" gradientUnits="userSpaceOnUse" gradientTransform="matrix(-565.803,553.652,-553.652,-565.803,6058.66,1222.29)"><stop offset="0" style="stop-color:#98856b;stop-opacity:1"/><stop offset="1" style="stop-color:#4b3d2a;stop-opacity:1"/></linearGradient><linearGradient id="_Linear42" x1="0" y1="0" x2="1" y2="0" gradientUnits="userSpaceOnUse" gradientTransform="matrix(565.803,553.652,553.652,-565.803,5219.12,1582.23)"><stop offset="0" style="stop-color:#98856b;stop-opacity:1"/><stop offset="1" style="stop-color:#4b3d2a;stop-opacity:1"/></linearGradient><linearGradient id="_Linear43" x1="0" y1="0" x2="1" y2="0" gradientUnits="userSpaceOnUse" gradientTransform="matrix(565.803,553.652,553.652,-565.803,5255.49,1563.38)"><stop offset="0" style="stop-color:#98856b;stop-opacity:1"/><stop offset="1" style="stop-color:#4b3d2a;stop-opacity:1"/></linearGradient><linearGradient id="_Linear44" x1="0" y1="0" x2="1" y2="0" gradientUnits="userSpaceOnUse" gradientTransform="matrix(565.803,553.652,553.652,-565.803,5267.02,1531.87)"><stop offset="0" style="stop-color:#98856b;stop-opacity:1"/><stop offset="1" style="stop-color:#4b3d2a;stop-opacity:1"/></linearGradient><linearGradient id="_Linear45" x1="0" y1="0" x2="1" y2="0" gradientUnits="userSpaceOnUse" gradientTransform="matrix(424.896,4.61226,-4.61226,424.896,5453.6,1444.79)"><stop offset="0" style="stop-color:#98856b;stop-opacity:1"/><stop offset="1" style="stop-color:#4b3d2a;stop-opacity:1"/></linearGradient><linearGradient id="_Linear46" x1="0" y1="0" x2="1" y2="0" gradientUnits="userSpaceOnUse" gradientTransform="matrix(424.896,4.61226,-4.61226,424.896,5452.16,1449.25)"><stop offset="0" style="stop-color:#98856b;stop-opacity:1"/><stop offset="1" style="stop-color:#4b3d2a;stop-opacity:1"/></linearGradient><linearGradient id="_Linear47" x1="0" y1="0" x2="1" y2="0" gradientUnits="userSpaceOnUse" gradientTransform="matrix(424.896,4.61226,-4.61226,424.896,5450.89,1450.55)"><stop offset="0" style="stop-color:#98856b;stop-opacity:1"/><stop offset="1" style="stop-color:#4b3d2a;stop-opacity:1"/></linearGradient><linearGradient id="_Linear48" x1="0" y1="0" x2="1" y2="0" gradientUnits="userSpaceOnUse" gradientTransform="matrix(381.477,373.284,373.284,-381.477,4808.86,2582.21)"><stop offset="0" style="stop-color:#98856b;stop-opacity:1"/><stop offset="1" style="stop-color:#4b3d2a;stop-opacity:1"/></linearGradient><linearGradient id="_Linear49" x1="0" y1="0" x2="1" y2="0" gradientUnits="userSpaceOnUse" gradientTransform="matrix(381.477,373.284,373.284,-381.477,4833.38,2569.5)"><stop offset="0" style="stop-color:#98856b;stop-opacity:1"/><stop offset="1" style="stop-color:#4b3d2a;stop-opacity:1"/></linearGradient><linearGradient id="_Linear50" x1="0" y1="0" x2="1" y2="0" gradientUnits="userSpaceOnUse" gradientTransform="matrix(381.477,373.284,373.284,-381.477,4841.15,2548.26)"><stop offset="0" style="stop-color:#98856b;stop-opacity:1"/><stop offset="1" style="stop-color:#4b3d2a;stop-opacity:1"/></linearGradient><linearGradient id="_Linear51" x1="0" y1="0" x2="1" y2="0" gradientUnits="userSpaceOnUse" gradientTransform="matrix(-381.477,373.284,-373.284,-381.477,5477.86,2275.6)"><stop offset="0" style="stop-color:#98856b;stop-opacity:1"/><stop offset="1" style="stop-color:#4b3d2a;stop-opacity:1"/></linearGradient><linearGradient id="_Linear52" x1="0" y1="0" x2="1" y2="0" gradientUnits="userSpaceOnUse" gradientTransform="matrix(-381.477,373.284,-373.284,-381.477,5453.34,2262.9)"><stop offset="0" style="stop-color:#98856b;stop-opacity:1"/><stop offset="1" style="stop-color:#4b3d2a;stop-opacity:1"/></linearGradient><linearGradient id="_Linear53" x1="0" y1="0" x2="1" y2="0" gradientUnits="userSpaceOnUse" gradientTransform="matrix(-381.477,373.284,-373.284,-381.477,5445.57,2241.65)"><stop offset="0" style="stop-color:#98856b;stop-opacity:1"/><stop offset="1" style="stop-color:#4b3d2a;stop-opacity:1"/></linearGradient><linearGradient id="_Linear54" x1="0" y1="0" x2="1" y2="0" gradientUnits="userSpaceOnUse" gradientTransform="matrix(381.477,373.284,373.284,-381.477,5189.12,2275.6)"><stop offset="0" style="stop-color:#98856b;stop-opacity:1"/><stop offset="1" style="stop-color:#4b3d2a;stop-opacity:1"/></linearGradient><linearGradient id="_Linear55" x1="0" y1="0" x2="1" y2="0" gradientUnits="userSpaceOnUse" gradientTransform="matrix(381.477,373.284,373.284,-381.477,5213.64,2262.9)"><stop offset="0" style="stop-color:#98856b;stop-opacity:1"/><stop offset="1" style="stop-color:#4b3d2a;stop-opacity:1"/></linearGradient><linearGradient id="_Linear56" x1="0" y1="0" x2="1" y2="0" gradientUnits="userSpaceOnUse" gradientTransform="matrix(381.477,373.284,373.284,-381.477,5221.42,2241.65)"><stop offset="0" style="stop-color:#98856b;stop-opacity:1"/><stop offset="1" style="stop-color:#4b3d2a;stop-opacity:1"/></linearGradient><linearGradient id="_Linear57" x1="0" y1="0" x2="1" y2="0" gradientUnits="userSpaceOnUse" gradientTransform="matrix(-381.477,373.284,-373.284,-381.477,5858.13,2571.24)"><stop offset="0" style="stop-color:#98856b;stop-opacity:1"/><stop offset="1" style="stop-color:#4b3d2a;stop-opacity:1"/></linearGradient><linearGradient id="_Linear58" x1="0" y1="0" x2="1" y2="0" gradientUnits="userSpaceOnUse" gradientTransform="matrix(-381.477,373.284,-373.284,-381.477,5833.61,2558.54)"><stop offset="0" style="stop-color:#98856b;stop-opacity:1"/><stop offset="1" style="stop-color:#4b3d2a;stop-opacity:1"/></linearGradient><linearGradient id="_Linear59" x1="0" y1="0" x2="1" y2="0" gradientUnits="userSpaceOnUse" gradientTransform="matrix(-381.477,373.284,-373.284,-381.477,5825.83,2537.29)"><stop offset="0" style="stop-color:#98856b;stop-opacity:1"/><stop offset="1" style="stop-color:#4b3d2a;stop-opacity:1"/></linearGradient><linearGradient id="_Linear60" x1="0" y1="0" x2="1" y2="0" gradientUnits="userSpaceOnUse" gradientTransform="matrix(-296.162,289.801,-289.801,-296.162,3392.23,3284.32)"><stop offset="0" style="stop-color:#98856b;stop-opacity:1"/><stop offset="1" style="stop-color:#4b3d2a;stop-opacity:1"/></linearGradient><linearGradient id="_Linear61" x1="0" y1="0" x2="1" y2="0" gradientUnits="userSpaceOnUse" gradientTransform="matrix(-296.162,289.801,-289.801,-296.162,3392.23,3284.32)"><stop offset="0" style="stop-color:#98856b;stop-opacity:1"/><stop offset="1" style="stop-color:#4b3d2a;stop-opacity:1"/></linearGradient><linearGradient id="_Linear62" x1="0" y1="0" x2="1" y2="0" gradientUnits="userSpaceOnUse" gradientTransform="matrix(-296.162,289.801,-289.801,-296.162,3392.23,3284.32)"><stop offset="0" style="stop-color:#98856b;stop-opacity:1"/><stop offset="1" style="stop-color:#4b3d2a;stop-opacity:1"/></linearGradient><linearGradient id="_Linear63" x1="0" y1="0" x2="1" y2="0" gradientUnits="userSpaceOnUse" gradientTransform="matrix(281.078,304.452,-304.452,281.078,3204.55,3543.64)"><stop offset="0" style="stop-color:#98856b;stop-opacity:1"/><stop offset="1" style="stop-color:#4b3d2a;stop-opacity:1"/></linearGradient><linearGradient id="_Linear64" x1="0" y1="0" x2="1" y2="0" gradientUnits="userSpaceOnUse" gradientTransform="matrix(281.078,304.452,-304.452,281.078,3204.55,3543.64)"><stop offset="0" style="stop-color:#98856b;stop-opacity:1"/><stop offset="1" style="stop-color:#4b3d2a;stop-opacity:1"/></linearGradient><linearGradient id="_Linear65" x1="0" y1="0" x2="1" y2="0" gradientUnits="userSpaceOnUse" gradientTransform="matrix(281.078,304.452,-304.452,281.078,3204.55,3543.64)"><stop offset="0" style="stop-color:#98856b;stop-opacity:1"/><stop offset="1" style="stop-color:#4b3d2a;stop-opacity:1"/></linearGradient><linearGradient id="_Linear66" x1="0" y1="0" x2="1" y2="0" gradientUnits="userSpaceOnUse" gradientTransform="matrix(-308.043,277.139,-277.139,-308.043,3403.78,3873.61)"><stop offset="0" style="stop-color:#98856b;stop-opacity:1"/><stop offset="1" style="stop-color:#4b3d2a;stop-opacity:1"/></linearGradient><linearGradient id="_Linear67" x1="0" y1="0" x2="1" y2="0" gradientUnits="userSpaceOnUse" gradientTransform="matrix(-308.043,277.139,-277.139,-308.043,3403.78,3873.61)"><stop offset="0" style="stop-color:#98856b;stop-opacity:1"/><stop offset="1" style="stop-color:#4b3d2a;stop-opacity:1"/></linearGradient><linearGradient id="_Linear68" x1="0" y1="0" x2="1" y2="0" gradientUnits="userSpaceOnUse" gradientTransform="matrix(-308.043,277.139,-277.139,-308.043,3403.78,3873.61)"><stop offset="0" style="stop-color:#98856b;stop-opacity:1"/><stop offset="1" style="stop-color:#4b3d2a;stop-opacity:1"/></linearGradient></defs></svg>