<?xml version="1.0" encoding="UTF-8" standalone="no"?>
<!DOCTYPE svg PUBLIC "-//W3C//DTD SVG 1.1//EN" "http://www.w3.org/Graphics/SVG/1.1/DTD/svg11.dtd">
<svg width="100%" height="100%" viewBox="0 0 2482 2481" version="1.1" xmlns="http://www.w3.org/2000/svg" xmlns:xlink="http://www.w3.org/1999/xlink" xml:space="preserve" xmlns:serif="http://www.serif.com/" style="fill-rule:evenodd;clip-rule:evenodd;stroke-linejoin:round;stroke-miterlimit:2;">
    <g transform="matrix(1,0,0,1,-7361,-11465)">
        <g id="Logo-Simple-RGB-Light-No-Text" serif:id="Logo Simple RGB Light No Text" transform="matrix(1,0,0,1,7360.22,2913.22)">
            <rect x="1.612" y="8552.28" width="2480.32" height="2480.32" style="fill:none;"/>
            <g id="Skull-Top" serif:id="Skull Top" transform="matrix(1,0,0,1,18.9117,8485.73)">
                <g id="Logo-Simple" serif:id="Logo Simple">
                    <path id="Skull-Top1" serif:id="Skull Top" d="M1589.69,1787.7C1493.95,1976.73 1369.34,2191.55 1240.16,2410.45C1239.68,2404.14 1239.19,2397.83 1238.66,2391.52C1206.78,2146.33 688.783,1578.88 727.891,1240.15C720.918,1232.29 682.771,965.721 686.363,962.13C1110.07,1210.56 1244.69,750.038 1111.21,500.102L1125.8,496.485L1162.95,549.636L1183.85,623.944L1237.16,632.072L1197.79,600.723L1188.5,531.059L1142.06,517.126L1137.64,491.606L1102.35,484.381C1102.86,485.26 1103.36,486.141 1103.87,487.025C1050.96,397.404 961.393,338.85 836.228,357.958C858.127,334.511 913.416,269.924 1020.73,236.894C1078.1,216.548 1150.69,202.968 1240.16,202.968C1290.26,202.968 1335.93,207.296 1377.19,214.582L1310.86,248.507L1377.19,277.534L1281.84,317.446L1303.61,357.357L1251.05,402.712L1287.28,491.606L1266.11,405.063L1326.48,360.478L1308.83,322.395L1405.43,285.241L1358.99,238.798L1394.33,217.827C1553.62,250.038 1642.92,326.095 1663.17,359.685C1344.44,267.772 1225.9,675.097 1323.63,886.942L1308.67,892.425L1323.27,915.461L1294.29,908.773L1280.87,932.83C1268.61,899.729 1255.06,864.457 1240.16,826.902L1240.16,1118.87L1224.83,1098.45L1208.81,1111.88L1208.81,826.902C1081.81,1146.93 1053.71,1300.37 1083.16,1356.9L1072.47,1372L1035.83,1383.7L1084.42,1438.5C1056,1470.76 1029.67,1572.29 1036.69,1603.24C1045,1639.9 1133.41,1611.45 1150.08,1648.59C1178.42,1711.76 1192.34,1992.07 1206.77,1982.25C1214.6,1976.91 1219.94,1888.28 1224.7,1793.93L1234.99,1824.73L1248.98,1799.35C1260.81,1891.04 1278.76,1974.81 1291.87,1980.94C1316.91,1992.66 1357.01,1720.54 1390.45,1652.13C1409.58,1612.99 1492.88,1607.91 1492.5,1570.49C1492.12,1533.07 1430.24,1425.73 1388.18,1427.62C1346.13,1429.51 1252.38,1511.63 1240.16,1581.83C1233.18,1621.9 1237.3,1700.28 1246.25,1777.08L1237.9,1784.09L1225.97,1768.61C1229.49,1697.19 1232.78,1626.45 1236.64,1589.63C1243.99,1519.66 1133.51,1426.33 1100.18,1428.6C1096.49,1428.85 1092.73,1430.74 1088.98,1433.95L1072.47,1406.83L1099.72,1375.74C1123.74,1391.37 1162.14,1382.79 1208.81,1360.28L1208.81,1129.25L1224.83,1123.53L1240.16,1139.31L1240.16,1362.99C1377.82,1429.4 1443.88,1375.21 1283.21,939.162L1297.26,928.093L1329.21,933.295L1334.78,908.596C1406.79,1034.27 1566.88,1070.59 1819.19,837.758C1817.63,972.225 1801.68,1106.69 1769.88,1241.16C1768.7,1242.59 1767.52,1244.03 1766.34,1245.47C1781.86,1354.74 1713.89,1538.59 1603.38,1760.44L1603.06,1732.74C1696.92,1541.81 1757.19,1370.79 1732.69,1287.35C1484.27,1602.75 1324.56,1947.72 1254.77,2322.66C1362.21,2165.5 1489.71,1957.48 1586.78,1765.38L1589.69,1787.7ZM1111.21,500.102L1110.96,500.165C1108.67,495.72 1108.85,495.675 1111.21,500.102ZM1233.38,2335.9C1194.02,1968.92 1064.47,1609.89 752.074,1267C750.933,1507.65 1101.33,1978.02 1233.38,2335.9Z" style="fill:rgb(152,133,107);"/>
                </g>
            </g>
        </g>
    </g>
</svg>
