<?xml version="1.0" encoding="UTF-8" standalone="no"?>
<!DOCTYPE svg PUBLIC "-//W3C//DTD SVG 1.1//EN" "http://www.w3.org/Graphics/SVG/1.1/DTD/svg11.dtd">
<svg width="100%" height="100%" viewBox="0 0 12492 2482" version="1.1" xmlns="http://www.w3.org/2000/svg" xmlns:xlink="http://www.w3.org/1999/xlink" xml:space="preserve" xmlns:serif="http://www.serif.com/" style="fill-rule:evenodd;clip-rule:evenodd;stroke-linejoin:round;stroke-miterlimit:2;">
    <g transform="matrix(1,0,0,1,-7279,-14657)">
        <g id="Icon-Horizental-Simple-RGB-Light" serif:id="Icon Horizental Simple RGB Light" transform="matrix(3.47696,0,0,1,-1344.34,14657.8)">
            <rect x="2480.32" y="0" width="3592.36" height="2480.32" style="fill:none;"/>
            <g id="Text">
                <g id="S" transform="matrix(1.03453,0,0,3.59702,2719.85,-349.471)">
                    <g>
                        <path d="M184.45,342.072C184.392,342.014 184.063,341.685 184.064,341.13C184.064,340.959 184.097,340.784 184.162,340.626C184.228,340.463 184.337,340.319 184.451,340.184C184.641,339.962 184.863,339.769 185.068,339.56C193.366,331.161 201.706,322.803 209.963,314.363C229.373,294.521 248.822,274.715 268.069,254.714C278.992,243.363 289.81,231.91 300.468,220.311C310.536,209.355 320.38,198.196 330.242,187.055C338.456,177.774 346.505,168.348 354.693,159.045C364.855,147.499 370.119,142.181 371.517,140.769C371.95,140.331 374.423,137.833 378.635,137.833C380.619,137.833 382.141,138.45 382.427,138.567C383.007,138.802 386.359,140.162 387.955,144.094C388.071,144.381 388.689,145.903 388.689,147.887C388.689,152.098 386.193,154.57 385.755,155.003C384.342,156.401 379.023,161.667 367.477,171.829C358.173,180.017 348.748,188.066 339.467,196.28C328.325,206.141 317.167,215.986 306.211,226.053C294.612,236.712 283.158,247.53 271.807,258.453C251.806,277.7 232.001,297.148 212.159,316.559C210.083,318.589 209.967,318.703 186.339,342.069C186.281,342.126 185.947,342.457 185.392,342.458C184.836,342.459 184.507,342.13 184.45,342.072Z" style="fill:rgb(152,133,107);"/>
                        <path d="M209.269,356.255C209.212,356.197 208.883,355.868 208.884,355.313C208.884,355.142 208.917,354.967 208.981,354.809C209.048,354.646 209.157,354.501 209.271,354.367C209.453,354.152 209.667,353.966 209.865,353.766C217.857,345.673 225.89,337.621 233.841,329.487C252.531,310.366 271.26,291.28 289.786,271.999C300.3,261.057 310.71,250.012 320.96,238.821C330.642,228.251 340.101,217.478 349.577,206.722C357.47,197.762 365.198,188.658 373.065,179.675C380.95,170.672 381.01,170.726 389.245,162.043C390.56,160.657 392.275,159.961 392.571,159.841C393.133,159.612 396.363,158.301 400.156,159.841C400.735,160.076 404.088,161.436 405.683,165.368C405.8,165.655 406.417,167.177 406.417,169.161C406.417,173.373 403.921,175.844 403.483,176.277C402.122,177.624 397.001,182.692 385.849,192.459C376.866,200.326 367.762,208.054 358.802,215.947C348.046,225.423 337.273,234.882 326.703,244.564C315.512,254.814 304.467,265.224 293.525,275.738C274.244,294.264 255.158,312.993 236.037,331.683C234.036,333.639 233.924,333.748 211.159,356.251C211.101,356.309 210.766,356.639 210.211,356.64C209.656,356.641 209.327,356.312 209.269,356.255Z" style="fill:rgb(152,133,107);"/>
                        <path d="M232.316,368.665C232.259,368.607 231.93,368.278 231.931,367.723C231.931,367.552 231.963,367.377 232.028,367.219C232.095,367.056 232.204,366.912 232.318,366.777C232.491,366.572 232.695,366.395 232.884,366.204C240.493,358.494 248.143,350.825 255.71,343.075C273.5,324.853 291.329,306.668 308.955,288.287C318.959,277.855 328.857,267.321 338.596,256.641C347.797,246.553 356.774,236.262 365.768,225.988C373.26,217.429 380.587,208.726 388.053,200.144C397.326,189.486 402.146,184.613 403.428,183.317C403.861,182.879 406.332,180.381 410.546,180.381C412.53,180.381 414.052,180.998 414.339,181.115C414.918,181.35 418.27,182.71 419.866,186.642C419.982,186.929 420.6,188.451 420.6,190.435C420.6,194.648 418.104,197.118 417.666,197.551C416.369,198.833 411.495,203.655 400.837,212.928C392.255,220.394 383.552,227.721 374.993,235.213C364.719,244.207 354.428,253.184 344.339,262.384C333.66,272.123 323.125,282.022 312.693,292.026C294.313,309.652 276.128,327.48 257.906,345.271C256,347.132 255.893,347.236 234.206,368.661C234.147,368.719 233.813,369.049 233.258,369.05C232.703,369.051 232.374,368.722 232.316,368.665Z" style="fill:rgb(152,133,107);"/>
                    </g>
                    <g transform="matrix(0.0290401,-0.999578,0.999578,0.0290401,100.841,738.49)">
                        <path d="M184.45,342.072C184.392,342.014 184.063,341.685 184.064,341.13C184.064,340.959 184.097,340.784 184.162,340.626C184.228,340.463 184.337,340.319 184.451,340.184C184.641,339.962 184.863,339.769 185.068,339.56C193.366,331.161 201.706,322.803 209.963,314.363C229.373,294.521 248.822,274.715 268.069,254.714C278.992,243.363 289.81,231.91 300.468,220.311C310.536,209.355 320.38,198.196 330.242,187.055C338.456,177.774 346.505,168.348 354.693,159.045C364.855,147.499 370.119,142.181 371.517,140.769C371.95,140.331 374.423,137.833 378.635,137.833C380.619,137.833 382.141,138.45 382.427,138.567C386.359,140.162 387.72,143.515 387.955,144.094C388.071,144.381 388.689,145.903 388.689,147.887C388.689,152.098 386.193,154.57 385.755,155.003C384.342,156.401 379.023,161.667 367.477,171.829C358.173,180.017 348.748,188.066 339.467,196.28C328.325,206.141 317.167,215.986 306.211,226.053C294.612,236.712 283.158,247.53 271.807,258.453C251.806,277.7 232.001,297.148 212.159,316.559C210.083,318.589 209.967,318.703 186.339,342.069C186.281,342.126 185.947,342.457 185.392,342.458C184.836,342.459 184.507,342.13 184.45,342.072Z" style="fill:rgb(152,133,107);"/>
                        <path d="M209.269,356.255C209.212,356.197 208.883,355.868 208.884,355.313C208.884,355.142 208.917,354.967 208.981,354.809C209.048,354.646 209.157,354.501 209.271,354.367C209.453,354.152 209.667,353.966 209.865,353.766C217.857,345.673 225.89,337.621 233.841,329.487C252.531,310.366 271.26,291.28 289.786,271.999C300.3,261.057 310.71,250.012 320.96,238.821C330.642,228.251 340.101,217.478 349.577,206.722C357.47,197.762 365.198,188.658 373.065,179.675C380.95,170.672 381.01,170.726 389.245,162.043C390.56,160.657 392.275,159.961 392.571,159.841C396.363,158.301 399.594,159.612 400.156,159.841C400.735,160.076 404.088,161.436 405.683,165.368C407.223,169.161 405.912,172.391 405.683,172.953C405.563,173.249 404.867,174.964 403.481,176.279C394.798,184.514 394.852,184.574 385.849,192.459C376.866,200.326 367.762,208.054 358.802,215.947C348.046,225.423 337.273,234.882 326.703,244.564C315.512,254.814 304.467,265.224 293.525,275.738C274.244,294.264 255.158,312.993 236.037,331.683C234.036,333.639 233.924,333.748 211.159,356.251C211.101,356.309 210.766,356.639 210.211,356.64C209.656,356.641 209.327,356.312 209.269,356.255Z" style="fill:rgb(152,133,107);"/>
                        <path d="M232.316,368.665C232.259,368.607 231.93,368.278 231.931,367.723C231.931,367.552 231.963,367.377 232.028,367.219C232.095,367.056 232.204,366.912 232.318,366.777C232.491,366.572 232.695,366.395 232.884,366.204C240.493,358.494 248.143,350.825 255.71,343.075C273.5,324.853 291.329,306.668 308.955,288.287C318.959,277.855 328.857,267.321 338.596,256.641C347.797,246.553 356.774,236.262 365.768,225.988C373.26,217.429 380.587,208.726 388.053,200.144C397.326,189.486 402.146,184.613 403.428,183.317C403.861,182.879 406.332,180.381 410.546,180.381C412.53,180.381 414.052,180.998 414.339,181.115C418.27,182.71 419.631,186.063 419.866,186.642C419.982,186.929 420.6,188.451 420.6,190.435C420.6,194.648 418.104,197.118 417.666,197.551C416.369,198.833 411.495,203.655 400.837,212.928C392.255,220.394 383.552,227.721 374.993,235.213C364.719,244.207 354.428,253.184 344.339,262.384C333.66,272.123 323.125,282.022 312.693,292.026C294.313,309.652 276.128,327.48 257.906,345.271C256,347.132 255.893,347.236 234.206,368.661C234.147,368.719 233.813,369.049 233.258,369.05C232.703,369.051 232.374,368.722 232.316,368.665Z" style="fill:rgb(152,133,107);"/>
                    </g>
                    <g transform="matrix(0.999122,0.0418957,-0.0418957,0.999122,15.049,383.183)">
                        <path d="M184.45,342.072C184.392,342.014 184.063,341.685 184.064,341.13C184.064,340.959 184.097,340.784 184.162,340.626C184.228,340.463 184.337,340.319 184.451,340.184C184.641,339.962 184.863,339.769 185.068,339.56C193.366,331.161 201.706,322.803 209.963,314.363C229.373,294.521 248.822,274.715 268.069,254.714C278.992,243.363 289.81,231.91 300.468,220.311C310.536,209.355 320.38,198.196 330.242,187.055C338.456,177.774 346.505,168.348 354.693,159.045C362.9,149.72 362.959,149.774 371.517,140.769C372.836,139.381 374.547,138.687 374.842,138.567C378.635,137.027 381.865,138.338 382.427,138.567C386.359,140.162 387.72,143.515 387.955,144.094C388.183,144.656 389.494,147.887 387.955,151.679C387.835,151.975 387.141,153.686 385.753,155.005C376.748,163.563 376.802,163.622 367.477,171.829C358.173,180.017 348.748,188.066 339.467,196.28C328.325,206.141 317.167,215.986 306.211,226.053C294.612,236.712 283.158,247.53 271.807,258.453C251.806,277.7 232.001,297.148 212.159,316.559C210.083,318.589 209.967,318.703 186.339,342.069C186.281,342.126 185.947,342.457 185.392,342.458C184.836,342.459 184.507,342.13 184.45,342.072Z" style="fill:rgb(152,133,107);"/>
                        <path d="M209.269,356.255C209.212,356.197 208.883,355.868 208.884,355.313C208.884,355.142 208.917,354.967 208.981,354.809C209.048,354.646 209.157,354.501 209.271,354.367C209.453,354.152 209.667,353.966 209.865,353.766C217.857,345.673 225.89,337.621 233.841,329.487C252.531,310.366 271.26,291.28 289.786,271.999C300.3,261.057 310.71,250.012 320.96,238.821C330.642,228.251 340.101,217.478 349.577,206.722C357.47,197.762 365.198,188.658 373.065,179.675C380.95,170.672 381.01,170.726 389.245,162.043C390.56,160.657 392.275,159.961 392.571,159.841C393.133,159.612 396.363,158.301 400.156,159.841C400.735,160.076 404.088,161.436 405.683,165.368C405.912,165.93 407.223,169.161 405.683,172.953C405.563,173.249 404.867,174.964 403.481,176.279C394.798,184.514 394.852,184.574 385.849,192.459C376.866,200.326 367.762,208.054 358.802,215.947C348.046,225.423 337.273,234.882 326.703,244.564C315.512,254.814 304.467,265.224 293.525,275.738C274.244,294.264 255.158,312.993 236.037,331.683C234.036,333.639 233.924,333.748 211.159,356.251C211.101,356.309 210.766,356.639 210.211,356.64C209.656,356.641 209.327,356.312 209.269,356.255Z" style="fill:rgb(152,133,107);"/>
                        <path d="M232.316,368.665C232.259,368.607 231.93,368.278 231.931,367.723C231.931,367.552 231.963,367.377 232.028,367.219C232.095,367.056 232.204,366.912 232.318,366.777C232.491,366.572 232.695,366.395 232.884,366.204C240.493,358.494 248.143,350.825 255.71,343.075C273.5,324.853 291.329,306.668 308.955,288.287C318.959,277.855 328.857,267.321 338.596,256.641C347.797,246.553 356.774,236.262 365.768,225.988C373.26,217.429 380.587,208.726 388.053,200.144C397.326,189.486 402.146,184.613 403.428,183.317C403.861,182.879 406.332,180.381 410.546,180.381C412.53,180.381 414.052,180.998 414.339,181.115C418.27,182.71 419.631,186.063 419.866,186.642C419.982,186.929 420.6,188.451 420.6,190.435C420.6,194.648 418.104,197.118 417.666,197.551C416.369,198.833 411.495,203.655 400.837,212.928C392.255,220.394 383.552,227.721 374.993,235.213C364.719,244.207 354.428,253.184 344.339,262.384C333.66,272.123 323.125,282.022 312.693,292.026C294.313,309.652 276.128,327.48 257.906,345.271C256,347.132 255.893,347.236 234.206,368.661C234.147,368.719 233.813,369.049 233.258,369.05C232.703,369.051 232.374,368.722 232.316,368.665Z" style="fill:rgb(152,133,107);"/>
                    </g>
                </g>
                <g id="S1" serif:id="S" transform="matrix(1.03453,0,0,3.59702,4892.08,-349.471)">
                    <g>
                        <path d="M184.45,342.072C184.392,342.014 184.063,341.685 184.064,341.13C184.064,340.959 184.097,340.784 184.162,340.626C184.228,340.463 184.337,340.319 184.451,340.184C184.641,339.962 184.863,339.769 185.068,339.56C193.366,331.161 201.706,322.803 209.963,314.363C229.373,294.521 248.822,274.715 268.069,254.714C278.992,243.363 289.81,231.91 300.468,220.311C310.536,209.355 320.38,198.196 330.242,187.055C338.456,177.774 346.505,168.348 354.693,159.045C364.855,147.499 370.119,142.181 371.517,140.769C371.95,140.331 374.423,137.833 378.635,137.833C380.619,137.833 382.141,138.45 382.427,138.567C383.007,138.802 386.359,140.162 387.955,144.094C388.071,144.381 388.689,145.903 388.689,147.887C388.689,152.098 386.193,154.57 385.755,155.003C384.342,156.401 379.023,161.667 367.477,171.829C358.173,180.017 348.748,188.066 339.467,196.28C328.325,206.141 317.167,215.986 306.211,226.053C294.612,236.712 283.158,247.53 271.807,258.453C251.806,277.7 232.001,297.148 212.159,316.559C210.083,318.589 209.967,318.703 186.339,342.069C186.281,342.126 185.947,342.457 185.392,342.458C184.836,342.459 184.507,342.13 184.45,342.072Z" style="fill:rgb(152,133,107);"/>
                        <path d="M209.269,356.255C209.212,356.197 208.883,355.868 208.884,355.313C208.884,355.142 208.917,354.967 208.981,354.809C209.048,354.646 209.157,354.501 209.271,354.367C209.453,354.152 209.667,353.966 209.865,353.766C217.857,345.673 225.89,337.621 233.841,329.487C252.531,310.366 271.26,291.28 289.786,271.999C300.3,261.057 310.71,250.012 320.96,238.821C330.642,228.251 340.101,217.478 349.577,206.722C357.47,197.762 365.198,188.658 373.065,179.675C382.832,168.523 387.899,163.404 389.245,162.043C389.678,161.605 392.151,159.107 396.363,159.107C398.347,159.107 399.869,159.724 400.156,159.841C400.735,160.076 404.088,161.436 405.683,165.368C405.8,165.655 406.417,167.177 406.417,169.161C406.417,173.373 403.921,175.844 403.483,176.277C402.122,177.624 397.001,182.692 385.849,192.459C376.866,200.326 367.762,208.054 358.802,215.947C348.046,225.423 337.273,234.882 326.703,244.564C315.512,254.814 304.467,265.224 293.525,275.738C274.244,294.264 255.158,312.993 236.037,331.683C234.036,333.639 233.924,333.748 211.159,356.251C211.101,356.309 210.766,356.639 210.211,356.64C209.656,356.641 209.327,356.312 209.269,356.255Z" style="fill:rgb(152,133,107);"/>
                        <path d="M232.316,368.665C232.259,368.607 231.93,368.278 231.931,367.723C231.931,367.552 231.963,367.377 232.028,367.219C232.095,367.056 232.204,366.912 232.318,366.777C232.491,366.572 232.695,366.395 232.884,366.204C240.493,358.494 248.143,350.825 255.71,343.075C273.5,324.853 291.329,306.668 308.955,288.287C318.959,277.855 328.857,267.321 338.596,256.641C347.797,246.553 356.774,236.262 365.768,225.988C373.26,217.429 380.587,208.726 388.053,200.144C397.326,189.486 402.146,184.613 403.428,183.317C403.861,182.879 406.332,180.381 410.546,180.381C412.53,180.381 414.052,180.998 414.339,181.115C414.918,181.35 418.27,182.71 419.866,186.642C419.982,186.929 420.6,188.451 420.6,190.435C420.6,194.648 418.104,197.118 417.666,197.551C416.369,198.833 411.495,203.655 400.837,212.928C392.255,220.394 383.552,227.721 374.993,235.213C364.719,244.207 354.428,253.184 344.339,262.384C333.66,272.123 323.125,282.022 312.693,292.026C294.313,309.652 276.128,327.48 257.906,345.271C256,347.132 255.893,347.236 234.206,368.661C234.147,368.719 233.813,369.049 233.258,369.05C232.703,369.051 232.374,368.722 232.316,368.665Z" style="fill:rgb(152,133,107);"/>
                    </g>
                    <g transform="matrix(0.0290401,-0.999578,0.999578,0.0290401,100.841,738.49)">
                        <path d="M184.45,342.072C184.392,342.014 184.063,341.685 184.064,341.13C184.064,340.959 184.097,340.784 184.162,340.626C184.228,340.463 184.337,340.319 184.451,340.184C184.641,339.962 184.863,339.769 185.068,339.56C193.366,331.161 201.706,322.803 209.963,314.363C229.373,294.521 248.822,274.715 268.069,254.714C278.992,243.363 289.81,231.91 300.468,220.311C310.536,209.355 320.38,198.196 330.242,187.055C338.456,177.774 346.505,168.348 354.693,159.045C364.855,147.499 370.119,142.181 371.517,140.769C371.95,140.331 374.423,137.833 378.635,137.833C380.619,137.833 382.141,138.45 382.427,138.567C386.359,140.162 387.72,143.515 387.955,144.094C388.071,144.381 388.689,145.903 388.689,147.887C388.689,152.098 386.193,154.57 385.755,155.003C384.342,156.401 379.023,161.667 367.477,171.829C358.173,180.017 348.748,188.066 339.467,196.28C328.325,206.141 317.167,215.986 306.211,226.053C294.612,236.712 283.158,247.53 271.807,258.453C251.806,277.7 232.001,297.148 212.159,316.559C210.083,318.589 209.967,318.703 186.339,342.069C186.281,342.126 185.947,342.457 185.392,342.458C184.836,342.459 184.507,342.13 184.45,342.072Z" style="fill:rgb(152,133,107);"/>
                        <path d="M209.269,356.255C209.212,356.197 208.883,355.868 208.884,355.313C208.884,355.142 208.917,354.967 208.981,354.809C209.048,354.646 209.157,354.501 209.271,354.367C209.453,354.152 209.667,353.966 209.865,353.766C217.857,345.673 225.89,337.621 233.841,329.487C252.531,310.366 271.26,291.28 289.786,271.999C300.3,261.057 310.71,250.012 320.96,238.821C330.642,228.251 340.101,217.478 349.577,206.722C357.47,197.762 365.198,188.658 373.065,179.675C380.95,170.672 381.01,170.726 389.245,162.043C390.56,160.657 392.275,159.961 392.571,159.841C396.363,158.301 399.594,159.612 400.156,159.841C404.088,161.436 405.448,164.789 405.683,165.368C407.223,169.161 405.912,172.391 405.683,172.953C405.563,173.249 404.867,174.964 403.481,176.279C394.798,184.514 394.852,184.574 385.849,192.459C376.866,200.326 367.762,208.054 358.802,215.947C348.046,225.423 337.273,234.882 326.703,244.564C315.512,254.814 304.467,265.224 293.525,275.738C274.244,294.264 255.158,312.993 236.037,331.683C234.036,333.639 233.924,333.748 211.159,356.251C211.101,356.309 210.766,356.639 210.211,356.64C209.656,356.641 209.327,356.312 209.269,356.255Z" style="fill:rgb(152,133,107);"/>
                        <path d="M232.316,368.665C232.259,368.607 231.93,368.278 231.931,367.723C231.931,367.552 231.963,367.377 232.028,367.219C232.095,367.056 232.204,366.912 232.318,366.777C232.491,366.572 232.695,366.395 232.884,366.204C240.493,358.494 248.143,350.825 255.71,343.075C273.5,324.853 291.329,306.668 308.955,288.287C318.959,277.855 328.857,267.321 338.596,256.641C347.797,246.553 356.774,236.262 365.768,225.988C373.26,217.429 380.587,208.726 388.053,200.144C397.326,189.486 402.146,184.613 403.428,183.317C403.861,182.879 406.332,180.381 410.546,180.381C412.53,180.381 414.052,180.998 414.339,181.115C418.27,182.71 419.631,186.063 419.866,186.642C419.982,186.929 420.6,188.451 420.6,190.435C420.6,194.648 418.104,197.118 417.666,197.551C416.369,198.833 411.495,203.655 400.837,212.928C392.255,220.394 383.552,227.721 374.993,235.213C364.719,244.207 354.428,253.184 344.339,262.384C333.66,272.123 323.125,282.022 312.693,292.026C294.313,309.652 276.128,327.48 257.906,345.271C256,347.132 255.893,347.236 234.206,368.661C234.147,368.719 233.813,369.049 233.258,369.05C232.703,369.051 232.374,368.722 232.316,368.665Z" style="fill:rgb(152,133,107);"/>
                    </g>
                    <g transform="matrix(0.999122,0.0418957,-0.0418957,0.999122,15.049,383.183)">
                        <path d="M184.45,342.072C184.392,342.014 184.063,341.685 184.064,341.13C184.064,340.959 184.097,340.784 184.162,340.626C184.228,340.463 184.337,340.319 184.451,340.184C184.641,339.962 184.863,339.769 185.068,339.56C193.366,331.161 201.706,322.803 209.963,314.363C229.373,294.521 248.822,274.715 268.069,254.714C278.992,243.363 289.81,231.91 300.468,220.311C310.536,209.355 320.38,198.196 330.242,187.055C338.456,177.774 346.505,168.348 354.693,159.045C364.855,147.499 370.119,142.181 371.517,140.769C371.95,140.331 374.423,137.833 378.635,137.833C380.619,137.833 382.141,138.45 382.427,138.567C386.359,140.162 387.72,143.515 387.955,144.094C388.071,144.381 388.689,145.903 388.689,147.887C388.689,152.098 386.193,154.57 385.755,155.003C384.342,156.401 379.023,161.667 367.477,171.829C358.173,180.017 348.748,188.066 339.467,196.28C328.325,206.141 317.167,215.986 306.211,226.053C294.612,236.712 283.158,247.53 271.807,258.453C251.806,277.7 232.001,297.148 212.159,316.559C210.083,318.589 209.967,318.703 186.339,342.069C186.281,342.126 185.947,342.457 185.392,342.458C184.836,342.459 184.507,342.13 184.45,342.072Z" style="fill:rgb(152,133,107);"/>
                        <path d="M209.269,356.255C209.212,356.197 208.883,355.868 208.884,355.313C208.884,355.142 208.917,354.967 208.981,354.809C209.048,354.646 209.157,354.501 209.271,354.367C209.453,354.152 209.667,353.966 209.865,353.766C217.857,345.673 225.89,337.621 233.841,329.487C252.531,310.366 271.26,291.28 289.786,271.999C300.3,261.057 310.71,250.012 320.96,238.821C330.642,228.251 340.101,217.478 349.577,206.722C357.47,197.762 365.198,188.658 373.065,179.675C380.95,170.672 381.01,170.726 389.245,162.043C390.56,160.657 392.275,159.961 392.571,159.841C396.363,158.301 399.594,159.612 400.156,159.841C400.735,160.076 404.088,161.436 405.683,165.368C405.912,165.93 407.223,169.161 405.683,172.953C405.563,173.249 404.867,174.964 403.481,176.279C394.798,184.514 394.852,184.574 385.849,192.459C376.866,200.326 367.762,208.054 358.802,215.947C348.046,225.423 337.273,234.882 326.703,244.564C315.512,254.814 304.467,265.224 293.525,275.738C274.244,294.264 255.158,312.993 236.037,331.683C234.036,333.639 233.924,333.748 211.159,356.251C211.101,356.309 210.766,356.639 210.211,356.64C209.656,356.641 209.327,356.312 209.269,356.255Z" style="fill:rgb(152,133,107);"/>
                        <path d="M232.316,368.665C232.259,368.607 231.93,368.278 231.931,367.723C231.931,367.552 231.963,367.377 232.028,367.219C232.095,367.056 232.204,366.912 232.318,366.777C232.491,366.572 232.695,366.395 232.884,366.204C240.493,358.494 248.143,350.825 255.71,343.075C273.5,324.853 291.329,306.668 308.955,288.287C318.959,277.855 328.857,267.321 338.596,256.641C347.797,246.553 356.774,236.262 365.768,225.988C373.26,217.429 380.587,208.726 388.053,200.144C397.326,189.486 402.146,184.613 403.428,183.317C403.861,182.879 406.332,180.381 410.546,180.381C412.53,180.381 414.052,180.998 414.339,181.115C414.918,181.35 418.27,182.71 419.866,186.642C419.982,186.929 420.6,188.451 420.6,190.435C420.6,194.648 418.104,197.118 417.666,197.551C416.369,198.833 411.495,203.655 400.837,212.928C392.255,220.394 383.552,227.721 374.993,235.213C364.719,244.207 354.428,253.184 344.339,262.384C333.66,272.123 323.125,282.022 312.693,292.026C294.313,309.652 276.128,327.48 257.906,345.271C256,347.132 255.893,347.236 234.206,368.661C234.147,368.719 233.813,369.049 233.258,369.05C232.703,369.051 232.374,368.722 232.316,368.665Z" style="fill:rgb(152,133,107);"/>
                    </g>
                </g>
                <g id="A" transform="matrix(0.836012,0,0,2.90678,3226.82,-169.053)">
                    <g transform="matrix(3.05998,-0.672628,0.672628,3.05998,-940.474,-143.471)">
                        <g transform="matrix(1,0,0,1,11.7302,24.3292)">
                            <path d="M184.931,341.591C184.838,341.498 184.838,341.496 184.788,341.374C184.766,341.321 184.632,340.993 184.932,340.663C185.128,340.447 185.344,340.249 185.549,340.042C193.873,331.668 202.218,323.315 210.521,314.921C230.041,295.189 249.579,275.476 269.019,255.665C280.049,244.425 291.027,233.135 301.928,221.771C312.217,211.046 322.398,200.219 332.587,189.4C341.07,180.394 349.473,171.313 357.943,162.295C368.407,151.154 373.736,145.796 375.136,144.388C375.35,144.174 376.572,142.945 378.635,142.945C380.133,142.945 381.17,143.631 381.359,143.757C381.361,143.758 382.134,144.388 382.134,144.389C382.345,144.647 382.581,144.885 382.765,145.162C382.89,145.352 383.577,146.389 383.577,147.887C383.577,149.95 382.349,151.171 382.134,151.385C380.726,152.785 375.367,158.115 364.227,168.578C355.208,177.049 346.128,185.452 337.121,193.935C326.303,204.124 315.476,214.305 304.751,224.593C293.387,235.495 282.097,246.473 270.857,257.502C251.046,276.942 231.332,296.481 211.6,316.001L185.86,341.589C185.831,341.617 185.667,341.78 185.394,341.781C185.122,341.781 184.959,341.619 184.931,341.591Z" style="fill:rgb(152,133,107);"/>
                        </g>
                        <g transform="matrix(1,0,0,1,5.2134,10.8613)">
                            <path d="M209.751,355.773C209.658,355.68 209.657,355.679 209.608,355.557C209.586,355.503 209.452,355.176 209.752,354.845C209.94,354.637 210.148,354.447 210.346,354.247C218.364,346.18 226.402,338.133 234.399,330.046C253.199,311.034 272.017,292.04 290.737,272.95C301.357,262.119 311.927,251.237 322.42,240.281C332.323,229.942 342.118,219.501 351.922,209.068C360.084,200.382 368.166,191.622 376.316,182.925C386.385,172.179 391.516,167.019 392.865,165.662C393.078,165.448 394.3,164.219 396.363,164.219C397.861,164.219 398.898,164.905 399.088,165.031C399.089,165.032 399.862,165.662 399.863,165.663C400.073,165.921 400.31,166.159 400.493,166.436C400.619,166.626 401.305,167.663 401.305,169.161C401.305,171.224 400.077,172.445 399.863,172.659C398.506,174.008 393.345,179.139 382.599,189.208C373.902,197.358 365.142,205.44 356.456,213.602C346.023,223.406 335.582,233.201 325.243,243.104C314.287,253.597 303.405,264.167 292.574,274.787C273.484,293.507 254.49,312.325 235.478,331.125L210.679,355.772C210.651,355.8 210.487,355.963 210.214,355.964C209.941,355.964 209.779,355.802 209.751,355.773Z" style="fill:rgb(152,133,107);"/>
                        </g>
                        <path d="M232.797,368.183C232.704,368.09 232.704,368.088 232.655,367.967C232.633,367.913 232.499,367.587 232.798,367.255C232.978,367.056 233.176,366.875 233.365,366.685C240.999,359.001 248.654,351.337 256.268,343.633C274.168,325.521 292.086,307.428 309.905,289.238C320.015,278.917 330.074,268.546 340.056,258.102C349.477,248.244 358.791,238.285 368.113,228.333C375.874,220.049 383.555,211.69 391.303,203.394C400.879,193.14 405.763,188.228 407.047,186.936C407.261,186.721 408.482,185.493 410.546,185.493C412.044,185.493 413.081,186.179 413.27,186.305C413.272,186.306 414.045,186.936 414.045,186.937C414.256,187.195 414.492,187.433 414.676,187.71C414.801,187.9 415.488,188.937 415.488,190.435C415.488,192.499 414.26,193.719 414.045,193.933C412.753,195.217 407.84,200.101 397.587,209.677C389.29,217.426 380.932,225.107 372.647,232.868C362.696,242.189 352.737,251.503 342.879,260.924C332.435,270.906 322.063,280.965 311.743,291.075C293.553,308.895 275.459,326.813 257.348,344.712L233.726,368.182C233.698,368.21 233.534,368.373 233.261,368.373C232.988,368.374 232.826,368.212 232.797,368.183Z" style="fill:rgb(152,133,107);"/>
                    </g>
                    <g transform="matrix(0.718195,-2.80933,2.80933,0.718195,-382.632,1118.06)">
                        <path d="M184.893,341.628C184.793,341.528 184.793,341.526 184.739,341.395C184.715,341.336 184.571,340.984 184.894,340.626C185.09,340.409 185.306,340.211 185.512,340.004C193.834,331.629 202.178,323.275 210.478,314.878C229.989,295.137 249.52,275.416 268.945,255.591C279.966,244.343 290.932,233.039 301.815,221.657C312.086,210.915 322.241,200.062 332.405,189.218C340.866,180.19 349.242,171.083 357.69,162.042C366.166,152.973 366.197,153.002 374.855,144.107C375.029,143.928 375.968,142.963 377.612,142.645C379.77,142.227 381.309,143.246 381.579,143.424C381.579,143.425 382.415,144.106 382.415,144.107C382.642,144.385 382.899,144.643 383.097,144.943C383.276,145.213 384.295,146.751 383.877,148.909C383.559,150.554 382.594,151.493 382.415,151.667C373.519,160.325 373.549,160.356 364.479,168.831C355.439,177.279 346.332,185.656 337.304,194.117C326.46,204.281 315.607,214.436 304.865,224.707C293.482,235.59 282.179,246.555 270.931,257.576C251.105,277.001 231.384,296.533 211.644,316.044L185.897,341.626C185.866,341.657 185.689,341.833 185.394,341.834C185.099,341.834 184.924,341.659 184.893,341.628Z" style="fill:rgb(152,133,107);"/>
                        <g transform="matrix(1,0,0,1,-12.9207,-6.69472)">
                            <path d="M209.713,355.811C209.613,355.71 209.613,355.708 209.559,355.577C209.535,355.519 209.391,355.167 209.714,354.808C209.902,354.599 210.111,354.409 210.309,354.21C218.325,346.141 226.362,338.093 234.355,330.002C253.147,310.982 271.958,291.981 290.663,272.876C301.275,262.036 311.832,251.142 322.306,240.168C332.192,229.811 341.961,219.344 351.74,208.885C359.88,200.178 367.935,191.392 376.063,182.672C386.109,171.894 391.234,166.738 392.583,165.381C392.814,165.149 394.133,163.821 396.363,163.821C397.982,163.821 399.102,164.563 399.307,164.698C399.309,164.7 400.144,165.381 400.144,165.381C400.371,165.66 400.627,165.917 400.826,166.217C400.961,166.422 401.703,167.542 401.703,169.161C401.703,171.391 400.376,172.71 400.144,172.94C398.787,174.289 393.63,179.415 382.852,189.461C374.132,197.589 365.346,205.644 356.639,213.784C346.18,223.563 335.713,233.332 325.356,243.218C314.382,253.692 303.488,264.249 292.648,274.861C273.543,293.566 254.542,312.377 235.522,331.169L210.717,355.809C210.686,355.84 210.509,356.016 210.214,356.016C209.919,356.017 209.744,355.841 209.713,355.811Z" style="fill:rgb(152,133,107);"/>
                        </g>
                        <g transform="matrix(1,0,0,1,-17.0166,-17.8879)">
                            <path d="M232.76,368.221C232.66,368.12 232.659,368.118 232.606,367.987C232.582,367.929 232.438,367.578 232.761,367.218C232.94,367.019 233.139,366.838 233.328,366.648C240.96,358.962 248.615,351.297 256.225,343.589C274.116,325.469 292.027,307.369 309.831,289.164C319.933,278.835 329.98,268.451 339.943,257.988C349.347,248.113 358.634,238.127 367.931,228.151C375.67,219.845 383.324,211.46 391.051,203.141C400.604,192.856 405.481,187.947 406.766,186.655C406.996,186.423 408.315,185.095 410.546,185.095C412.165,185.095 413.285,185.837 413.49,185.972C413.491,185.974 414.326,186.655 414.327,186.655C414.554,186.934 414.81,187.191 415.008,187.491C415.144,187.696 415.885,188.816 415.885,190.435C415.885,192.665 414.559,193.984 414.327,194.214C413.034,195.498 408.125,200.377 397.84,209.93C389.521,217.656 381.136,225.31 372.83,233.05C362.853,242.346 352.868,251.634 342.993,261.038C332.53,271.001 322.146,281.047 311.817,291.149C293.612,308.954 275.511,326.865 257.391,344.756L233.764,368.219C233.733,368.25 233.555,368.426 233.261,368.426C232.966,368.427 232.791,368.251 232.76,368.221Z" style="fill:rgb(152,133,107);"/>
                        </g>
                    </g>
                    <g transform="matrix(1.51362,-1.51362,-1.51362,-1.51362,306.501,1402.33)">
                        <path d="M184.715,341.806C184.757,341.848 184.994,342.085 185.393,342.084C185.516,342.084 185.642,342.061 185.756,342.014C185.873,341.966 185.978,341.889 186.073,341.805C186.293,341.612 186.488,341.394 186.696,341.188C195.081,332.876 203.436,324.533 211.851,316.251C231.632,296.78 251.387,277.282 271.283,257.928C282.572,246.947 293.936,236.041 305.405,225.248C316.233,215.059 327.209,205.028 338.173,194.986C347.302,186.624 356.537,178.379 365.683,170.035C377.007,159.705 382.346,154.407 383.756,153.007C384.07,152.695 385.868,150.911 385.868,147.887C385.868,145.694 384.863,144.177 384.68,143.899C384.678,143.897 383.755,142.766 383.754,142.765C383.377,142.457 383.028,142.111 382.622,141.842C382.345,141.658 380.828,140.654 378.635,140.654C375.61,140.654 373.827,142.451 373.515,142.765C372.116,144.175 366.817,149.515 356.487,160.839C348.143,169.984 339.898,179.22 331.536,188.349C321.494,199.313 311.463,210.289 301.274,221.116C290.481,232.586 279.575,243.949 268.593,255.239C249.24,275.135 229.742,294.89 210.271,314.671L184.718,340.447C184.676,340.489 184.438,340.729 184.437,341.128C184.437,341.528 184.674,341.765 184.715,341.806Z" style="fill:rgb(152,133,107);"/>
                        <g transform="matrix(1,0,0,1,-5.61225,-6.96128)">
                            <path d="M209.535,355.989C209.576,356.031 209.814,356.268 210.213,356.267C210.336,356.267 210.462,356.243 210.575,356.197C210.693,356.148 210.798,356.071 210.893,355.988C211.105,355.802 211.293,355.591 211.493,355.393C219.571,347.387 227.62,339.351 235.728,331.375C254.79,312.625 273.824,293.847 293,275.213C303.881,264.641 314.836,254.143 325.897,243.758C336.339,233.955 346.929,224.31 357.508,214.653C366.316,206.612 375.23,198.688 384.056,190.665C394.984,180.73 400.125,175.629 401.484,174.281C401.798,173.969 403.596,172.186 403.596,169.161C403.596,166.968 402.592,165.451 402.408,165.173C402.406,165.171 401.484,164.04 401.483,164.039C401.105,163.731 400.757,163.385 400.351,163.116C400.073,162.932 398.556,161.928 396.363,161.928C393.338,161.928 391.556,163.724 391.244,164.039C389.896,165.398 384.794,170.54 374.859,181.468C366.836,190.294 358.912,199.208 350.871,208.016C341.214,218.595 331.569,229.185 321.766,239.627C311.381,250.688 300.883,261.643 290.311,272.524C271.677,291.7 252.899,310.734 234.149,329.796L209.537,354.63C209.496,354.672 209.258,354.912 209.257,355.311C209.256,355.71 209.493,355.948 209.535,355.989Z" style="fill:rgb(152,133,107);"/>
                        </g>
                        <g transform="matrix(1,0,0,1,-10.5266,-13.0569)">
                            <path d="M232.582,368.399C232.623,368.44 232.86,368.678 233.26,368.677C233.383,368.677 233.508,368.653 233.622,368.606C233.74,368.558 233.844,368.481 233.94,368.398C234.142,368.221 234.321,368.02 234.511,367.831C242.207,360.208 249.873,352.556 257.598,344.962C275.759,327.112 293.893,309.234 312.169,291.501C322.539,281.439 332.983,271.452 343.533,261.579C353.494,252.257 363.602,243.094 373.699,233.919C382.106,226.279 390.619,218.756 399.043,211.134C409.479,201.692 414.373,196.839 415.667,195.555C415.981,195.243 417.779,193.46 417.779,190.435C417.779,188.242 416.774,186.725 416.591,186.447C416.589,186.445 415.666,185.314 415.665,185.313C415.288,185.005 414.939,184.659 414.533,184.39C414.256,184.206 412.739,183.202 410.546,183.202C407.52,183.202 405.738,184.998 405.426,185.313C404.143,186.607 399.289,191.502 389.847,201.937C382.225,210.361 374.702,218.875 367.062,227.282C357.887,237.378 348.724,247.487 339.402,257.447C329.529,267.997 319.542,278.442 309.479,288.812C291.746,307.087 273.869,325.222 256.018,343.383L232.584,367.04C232.543,367.081 232.305,367.322 232.304,367.721C232.303,368.12 232.54,368.357 232.582,368.399Z" style="fill:rgb(152,133,107);"/>
                        </g>
                    </g>
                </g>
                <g id="A1" serif:id="A" transform="matrix(0.836012,0,0,2.90678,5399.05,-169.053)">
                    <g transform="matrix(3.05998,-0.672628,0.672628,3.05998,-940.474,-143.471)">
                        <g transform="matrix(1,0,0,1,11.7302,24.3292)">
                            <path d="M184.931,341.591C184.838,341.498 184.838,341.496 184.788,341.374C184.766,341.321 184.632,340.993 184.932,340.663C185.128,340.447 185.344,340.249 185.549,340.042C193.873,331.668 202.218,323.315 210.521,314.921C230.041,295.189 249.579,275.476 269.019,255.665C280.049,244.425 291.027,233.135 301.928,221.771C312.217,211.046 322.398,200.219 332.587,189.4C341.07,180.394 349.473,171.313 357.943,162.295C368.407,151.154 373.736,145.796 375.136,144.388C375.35,144.174 376.572,142.945 378.635,142.945C380.133,142.945 381.17,143.631 381.359,143.757C381.361,143.758 382.134,144.388 382.134,144.389C382.345,144.647 382.581,144.885 382.765,145.162C382.89,145.352 383.577,146.389 383.577,147.887C383.577,149.95 382.349,151.171 382.134,151.385C380.726,152.785 375.367,158.115 364.227,168.578C355.208,177.049 346.128,185.452 337.121,193.935C326.303,204.124 315.476,214.305 304.751,224.593C293.387,235.495 282.097,246.473 270.857,257.502C251.046,276.942 231.332,296.481 211.6,316.001L185.86,341.589C185.831,341.617 185.667,341.78 185.394,341.781C185.122,341.781 184.959,341.619 184.931,341.591Z" style="fill:rgb(152,133,107);"/>
                        </g>
                        <g transform="matrix(1,0,0,1,5.2134,10.8613)">
                            <path d="M209.751,355.773C209.658,355.68 209.657,355.679 209.608,355.557C209.586,355.503 209.452,355.176 209.752,354.845C209.94,354.637 210.148,354.447 210.346,354.247C218.364,346.18 226.402,338.133 234.399,330.046C253.199,311.034 272.017,292.04 290.737,272.95C301.357,262.119 311.927,251.237 322.42,240.281C332.323,229.942 342.118,219.501 351.922,209.068C360.084,200.382 368.166,191.622 376.316,182.925C386.385,172.179 391.516,167.019 392.865,165.662C393.078,165.448 394.3,164.219 396.363,164.219C397.861,164.219 398.898,164.905 399.088,165.031C399.089,165.032 399.862,165.662 399.863,165.663C400.073,165.921 400.31,166.159 400.493,166.436C400.619,166.626 401.305,167.663 401.305,169.161C401.305,171.224 400.077,172.445 399.863,172.659C398.506,174.008 393.345,179.139 382.599,189.208C373.902,197.358 365.142,205.44 356.456,213.602C346.023,223.406 335.582,233.201 325.243,243.104C314.287,253.597 303.405,264.167 292.574,274.787C273.484,293.507 254.49,312.325 235.478,331.125L210.679,355.772C210.651,355.8 210.487,355.963 210.214,355.964C209.941,355.964 209.779,355.802 209.751,355.773Z" style="fill:rgb(152,133,107);"/>
                        </g>
                        <path d="M232.797,368.183C232.704,368.09 232.704,368.088 232.655,367.967C232.633,367.913 232.499,367.587 232.798,367.255C232.978,367.056 233.176,366.875 233.365,366.685C240.999,359.001 248.654,351.337 256.268,343.633C274.168,325.521 292.086,307.428 309.905,289.238C320.015,278.917 330.074,268.546 340.056,258.102C349.477,248.244 358.791,238.285 368.113,228.333C375.874,220.049 383.555,211.69 391.303,203.394C400.879,193.14 405.763,188.228 407.047,186.936C407.261,186.721 408.482,185.493 410.546,185.493C412.044,185.493 413.081,186.179 413.27,186.305C413.272,186.306 414.045,186.936 414.045,186.937C414.256,187.195 414.492,187.433 414.676,187.71C414.801,187.9 415.488,188.937 415.488,190.435C415.488,192.499 414.26,193.719 414.045,193.933C412.753,195.217 407.84,200.101 397.587,209.677C389.29,217.426 380.932,225.107 372.647,232.868C362.696,242.189 352.737,251.503 342.879,260.924C332.435,270.906 322.063,280.965 311.743,291.075C293.553,308.895 275.459,326.813 257.348,344.712L233.726,368.182C233.698,368.21 233.534,368.373 233.261,368.373C232.988,368.374 232.826,368.212 232.797,368.183Z" style="fill:rgb(152,133,107);"/>
                    </g>
                    <g transform="matrix(0.718195,-2.80933,2.80933,0.718195,-382.632,1118.06)">
                        <path d="M184.893,341.628C184.793,341.528 184.793,341.526 184.739,341.395C184.715,341.336 184.571,340.984 184.894,340.626C185.09,340.409 185.306,340.211 185.512,340.004C193.834,331.629 202.178,323.275 210.478,314.878C229.989,295.137 249.52,275.416 268.945,255.591C279.966,244.343 290.932,233.039 301.815,221.657C312.086,210.915 322.241,200.062 332.405,189.218C340.866,180.19 349.242,171.083 357.69,162.042C368.131,150.87 373.455,145.515 374.855,144.107C375.085,143.875 376.405,142.547 378.635,142.547C380.254,142.547 381.374,143.289 381.579,143.424C381.58,143.426 382.415,144.107 382.416,144.107C382.643,144.386 382.899,144.643 383.097,144.943C383.233,145.148 383.974,146.268 383.974,147.887C383.974,150.117 382.648,151.435 382.416,151.666C381.007,153.066 375.652,158.391 364.479,168.831C355.439,177.279 346.332,185.656 337.304,194.117C326.46,204.281 315.607,214.436 304.865,224.707C293.482,235.59 282.179,246.555 270.931,257.576C251.105,277.001 231.384,296.533 211.644,316.044L185.897,341.626C185.866,341.657 185.689,341.833 185.394,341.834C185.099,341.834 184.924,341.659 184.893,341.628Z" style="fill:rgb(152,133,107);"/>
                        <g transform="matrix(1,0,0,1,-12.9207,-6.69472)">
                            <path d="M209.713,355.811C209.613,355.71 209.613,355.708 209.559,355.577C209.535,355.519 209.391,355.167 209.714,354.808C209.902,354.599 210.111,354.409 210.309,354.21C218.325,346.141 226.362,338.093 234.355,330.002C253.147,310.982 271.958,291.981 290.663,272.876C301.275,262.036 311.832,251.142 322.306,240.168C332.192,229.811 341.961,219.344 351.74,208.885C359.88,200.178 367.935,191.392 376.063,182.672C386.109,171.894 391.234,166.738 392.583,165.381C392.814,165.149 394.133,163.821 396.363,163.821C397.982,163.821 399.102,164.563 399.307,164.698C399.309,164.7 400.144,165.381 400.144,165.381C400.371,165.66 400.627,165.917 400.826,166.217C400.961,166.422 401.703,167.542 401.703,169.161C401.703,171.391 400.376,172.71 400.144,172.94C398.787,174.289 393.63,179.415 382.852,189.461C374.132,197.589 365.346,205.644 356.639,213.784C346.18,223.563 335.713,233.332 325.356,243.218C314.382,253.692 303.488,264.249 292.648,274.861C273.543,293.566 254.542,312.377 235.522,331.169L210.717,355.809C210.686,355.84 210.509,356.016 210.214,356.016C209.919,356.017 209.744,355.841 209.713,355.811Z" style="fill:rgb(152,133,107);"/>
                        </g>
                        <g transform="matrix(1,0,0,1,-17.0166,-17.8879)">
                            <path d="M232.76,368.221C232.66,368.12 232.659,368.118 232.606,367.987C232.582,367.929 232.438,367.578 232.761,367.218C232.94,367.019 233.139,366.838 233.328,366.648C240.96,358.962 248.615,351.297 256.225,343.589C274.116,325.469 292.027,307.369 309.831,289.164C319.933,278.835 329.98,268.451 339.943,257.988C349.347,248.113 358.634,238.127 367.931,228.151C375.67,219.845 383.324,211.46 391.051,203.141C400.604,192.856 405.481,187.947 406.766,186.655C406.996,186.423 408.315,185.095 410.546,185.095C412.165,185.095 413.285,185.837 413.49,185.972C413.491,185.974 414.326,186.655 414.327,186.655C414.554,186.934 414.81,187.191 415.008,187.491C415.144,187.696 415.885,188.816 415.885,190.435C415.885,192.665 414.559,193.984 414.327,194.214C413.034,195.498 408.125,200.377 397.84,209.93C389.521,217.656 381.136,225.31 372.83,233.05C362.853,242.346 352.868,251.634 342.993,261.038C332.53,271.001 322.146,281.047 311.817,291.149C293.612,308.954 275.511,326.865 257.391,344.756L233.764,368.219C233.733,368.25 233.555,368.426 233.261,368.426C232.966,368.427 232.791,368.251 232.76,368.221Z" style="fill:rgb(152,133,107);"/>
                        </g>
                    </g>
                    <g transform="matrix(1.51362,-1.51362,-1.51362,-1.51362,306.501,1402.33)">
                        <path d="M184.715,341.806C184.757,341.848 184.994,342.085 185.393,342.084C185.516,342.084 185.642,342.061 185.756,342.014C185.873,341.966 185.978,341.889 186.073,341.805C186.293,341.612 186.488,341.394 186.696,341.188C195.081,332.876 203.436,324.533 211.851,316.251C231.632,296.78 251.387,277.282 271.283,257.928C282.572,246.947 293.936,236.041 305.405,225.248C316.233,215.059 327.209,205.028 338.173,194.986C347.302,186.624 356.537,178.379 365.683,170.035C377.007,159.705 382.346,154.407 383.756,153.007C384.07,152.695 385.868,150.911 385.868,147.887C385.868,145.694 384.863,144.177 384.68,143.899C384.678,143.897 383.755,142.766 383.754,142.765C383.377,142.457 383.028,142.111 382.622,141.842C382.345,141.658 380.828,140.654 378.635,140.654C375.61,140.654 373.827,142.451 373.515,142.765C372.116,144.175 366.817,149.515 356.487,160.839C348.143,169.984 339.898,179.22 331.536,188.349C321.494,199.313 311.463,210.289 301.274,221.116C290.481,232.586 279.575,243.949 268.593,255.239C249.24,275.135 229.742,294.89 210.271,314.671L184.718,340.447C184.676,340.489 184.438,340.729 184.437,341.128C184.437,341.528 184.674,341.765 184.715,341.806Z" style="fill:rgb(152,133,107);"/>
                        <g transform="matrix(1,0,0,1,-5.61225,-6.96128)">
                            <path d="M209.535,355.989C209.576,356.031 209.814,356.268 210.213,356.267C210.336,356.267 210.462,356.243 210.575,356.197C210.693,356.148 210.798,356.071 210.893,355.988C211.105,355.802 211.293,355.591 211.493,355.393C219.571,347.387 227.62,339.351 235.728,331.375C254.79,312.625 273.824,293.847 293,275.213C303.881,264.641 314.836,254.143 325.897,243.758C336.339,233.955 346.929,224.31 357.508,214.653C366.316,206.612 375.23,198.688 384.056,190.665C394.984,180.73 400.125,175.629 401.484,174.281C401.798,173.969 403.596,172.186 403.596,169.161C403.596,166.968 402.592,165.451 402.408,165.173C402.406,165.171 401.484,164.04 401.483,164.039C401.105,163.731 400.757,163.385 400.351,163.116C400.073,162.932 398.556,161.928 396.363,161.928C393.338,161.928 391.556,163.724 391.244,164.039C389.896,165.398 384.794,170.54 374.859,181.468C366.836,190.294 358.912,199.208 350.871,208.016C341.214,218.595 331.569,229.185 321.766,239.627C311.381,250.688 300.883,261.643 290.311,272.524C271.677,291.7 252.899,310.734 234.149,329.796L209.537,354.63C209.496,354.672 209.258,354.912 209.257,355.311C209.256,355.71 209.493,355.948 209.535,355.989Z" style="fill:rgb(152,133,107);"/>
                        </g>
                        <g transform="matrix(1,0,0,1,-10.5266,-13.0569)">
                            <path d="M232.582,368.399C232.623,368.44 232.86,368.678 233.26,368.677C233.383,368.677 233.508,368.653 233.622,368.606C233.74,368.558 233.844,368.481 233.94,368.398C234.142,368.221 234.321,368.02 234.511,367.831C242.207,360.208 249.873,352.556 257.598,344.962C275.759,327.112 293.893,309.234 312.169,291.501C322.539,281.439 332.983,271.452 343.533,261.579C353.494,252.257 363.602,243.094 373.699,233.919C382.106,226.279 390.619,218.756 399.043,211.134C409.479,201.692 414.373,196.839 415.667,195.555C415.981,195.243 417.779,193.46 417.779,190.435C417.779,188.242 416.774,186.725 416.591,186.447C416.589,186.445 415.666,185.314 415.665,185.313C415.288,185.005 414.939,184.659 414.533,184.39C414.256,184.206 412.739,183.202 410.546,183.202C407.52,183.202 405.738,184.998 405.426,185.313C404.143,186.607 399.289,191.502 389.847,201.937C382.225,210.361 374.702,218.875 367.062,227.282C357.887,237.378 348.724,247.487 339.402,257.447C329.529,267.997 319.542,278.442 309.479,288.812C291.746,307.087 273.869,325.222 256.018,343.383L232.584,367.04C232.543,367.081 232.305,367.322 232.304,367.721C232.303,368.12 232.54,368.357 232.582,368.399Z" style="fill:rgb(152,133,107);"/>
                        </g>
                    </g>
                </g>
                <g id="R" transform="matrix(0.72006,0,0,2.50362,3971.91,-156.325)">
                    <g transform="matrix(2.21539,-2.21539,2.21539,2.21539,-1340.46,644.449)">
                        <g transform="matrix(1,0,0,1,11.7302,24.3292)">
                            <path d="M184.931,341.591C184.838,341.498 184.838,341.496 184.788,341.374C184.766,341.321 184.632,340.993 184.932,340.663C185.128,340.447 185.344,340.249 185.549,340.042C193.873,331.668 202.218,323.315 210.521,314.921C230.041,295.189 249.579,275.476 269.019,255.665C280.049,244.425 291.027,233.135 301.928,221.771C312.217,211.046 322.398,200.219 332.587,189.4C341.07,180.394 349.473,171.313 357.943,162.295C368.407,151.154 373.736,145.796 375.136,144.388C375.35,144.174 376.572,142.945 378.635,142.945C379.61,142.945 380.358,143.249 380.499,143.306C382.432,144.09 383.1,145.738 383.216,146.023C383.273,146.163 383.577,146.912 383.577,147.887C383.577,149.95 382.349,151.171 382.134,151.384C380.726,152.785 375.367,158.115 364.227,168.578C355.208,177.049 346.128,185.452 337.121,193.935C326.303,204.124 315.476,214.305 304.751,224.593C293.387,235.495 282.097,246.473 270.857,257.502C251.046,276.942 231.332,296.481 211.6,316.001L185.86,341.589C185.831,341.617 185.667,341.78 185.394,341.781C185.122,341.781 184.959,341.619 184.931,341.591Z" style="fill:rgb(152,133,107);"/>
                        </g>
                        <g transform="matrix(1,0,0,1,5.2134,10.8613)">
                            <path d="M209.751,355.773C209.658,355.68 209.657,355.679 209.608,355.557C209.586,355.503 209.452,355.176 209.751,354.846C209.94,354.637 210.148,354.447 210.346,354.247C218.364,346.18 226.402,338.133 234.399,330.046C253.199,311.034 272.017,292.04 290.737,272.95C301.357,262.119 311.927,251.237 322.42,240.281C332.323,229.942 342.118,219.501 351.922,209.068C360.084,200.382 368.166,191.622 376.316,182.925C386.385,172.179 391.516,167.019 392.865,165.662C393.078,165.448 394.3,164.219 396.363,164.219C397.338,164.219 398.087,164.523 398.227,164.58C398.512,164.695 400.16,165.364 400.944,167.297C401.001,167.437 401.305,168.186 401.305,169.161C401.305,171.224 400.077,172.445 399.863,172.658C398.506,174.007 393.345,179.139 382.599,189.208C373.902,197.358 365.142,205.44 356.456,213.602C346.023,223.406 335.582,233.201 325.243,243.104C314.287,253.597 303.405,264.167 292.574,274.787C273.484,293.507 254.49,312.325 235.478,331.125L210.679,355.772C210.651,355.8 210.487,355.963 210.214,355.964C209.941,355.964 209.779,355.802 209.751,355.773Z" style="fill:rgb(152,133,107);"/>
                        </g>
                        <path d="M232.797,368.183C232.704,368.09 232.704,368.089 232.655,367.967C232.633,367.913 232.499,367.587 232.798,367.255C232.978,367.056 233.176,366.875 233.365,366.685C240.999,359.001 248.654,351.337 256.268,343.633C274.168,325.521 292.086,307.428 309.905,289.238C320.015,278.917 330.074,268.546 340.056,258.102C349.477,248.244 358.791,238.285 368.113,228.333C375.874,220.049 383.555,211.69 391.303,203.394C400.879,193.14 405.763,188.228 407.047,186.936C407.261,186.721 408.482,185.493 410.546,185.493C411.521,185.493 412.269,185.797 412.41,185.854C414.343,186.638 415.011,188.286 415.127,188.571C415.184,188.711 415.488,189.46 415.488,190.435C415.488,192.499 414.26,193.719 414.045,193.932C412.753,195.217 407.84,200.101 397.587,209.677C389.29,217.426 380.932,225.107 372.647,232.868C362.696,242.189 352.737,251.503 342.879,260.924C332.435,270.906 322.063,280.965 311.743,291.075C293.553,308.895 275.459,326.813 257.348,344.712L233.726,368.182C233.698,368.21 233.534,368.373 233.261,368.373C232.988,368.374 232.826,368.212 232.797,368.183Z" style="fill:rgb(152,133,107);"/>
                    </g>
                    <g transform="matrix(2.89968,0,0,2.89968,-475.331,-463.693)">
                        <path d="M184.893,341.628C184.863,341.598 184.688,341.423 184.689,341.128C184.689,341.037 184.706,340.945 184.741,340.86C184.776,340.774 184.834,340.697 184.894,340.626C184.984,340.519 185.091,340.427 185.189,340.327C189.15,336.313 193.133,332.32 197.072,328.284C206.332,318.794 215.612,309.324 224.785,299.751C229.991,294.317 235.142,288.829 240.207,283.264C244.993,278.007 249.66,272.642 254.336,267.287C258.231,262.825 262.039,258.287 265.92,253.813C270.742,248.255 273.25,245.719 273.917,245.044C274.147,244.812 275.459,243.485 277.697,243.485C278.751,243.485 279.559,243.813 279.712,243.875C281.8,244.722 282.522,246.502 282.647,246.81C282.709,246.962 283.037,247.771 283.037,248.824C283.037,251.062 281.711,252.373 281.479,252.603C280.803,253.271 278.266,255.78 272.709,260.602C268.235,264.483 263.697,268.29 259.235,272.186C253.879,276.862 248.515,281.529 243.257,286.314C237.692,291.38 232.204,296.53 226.771,301.736C217.197,310.909 207.727,320.19 198.238,329.45C197.245,330.419 197.19,330.473 185.897,341.626C185.866,341.657 185.688,341.832 185.394,341.833C185.099,341.834 184.924,341.659 184.893,341.628Z" style="fill:rgb(152,133,107);"/>
                        <g transform="matrix(1,0,0,1,-12.9207,-6.69472)">
                            <path d="M209.713,355.811C209.683,355.78 209.508,355.605 209.508,355.311C209.508,355.22 209.526,355.127 209.56,355.043C209.596,354.956 209.654,354.88 209.714,354.808C209.812,354.693 209.926,354.594 210.033,354.486C214.317,350.148 218.624,345.832 222.886,341.472C232.906,331.222 242.947,320.992 252.881,310.658C258.518,304.793 264.1,298.873 269.597,292.877C274.79,287.212 279.864,281.441 284.947,275.678C289.181,270.877 293.327,266 297.548,261.187C302.786,255.213 305.503,252.468 306.225,251.739C306.455,251.506 307.768,250.18 310.005,250.18C311.059,250.18 311.867,250.508 312.019,250.569C314.107,251.417 314.83,253.197 314.955,253.505C315.016,253.657 315.344,254.465 315.344,255.519C315.344,257.756 314.019,259.068 313.786,259.298C313.057,260.02 310.311,262.738 304.337,267.976C299.524,272.197 294.647,276.343 289.846,280.577C284.083,285.66 278.312,290.734 272.647,295.927C266.651,301.424 260.731,307.006 254.866,312.643C244.532,322.577 234.302,332.618 224.052,342.638C222.98,343.686 222.92,343.745 210.717,355.809C210.686,355.84 210.508,356.015 210.213,356.016C209.919,356.016 209.744,355.841 209.713,355.811Z" style="fill:rgb(152,133,107);"/>
                        </g>
                        <g transform="matrix(1,0,0,1,-17.0166,-17.8879)">
                            <path d="M232.76,368.221C232.729,368.19 232.555,368.015 232.555,367.72C232.555,367.63 232.573,367.537 232.607,367.453C232.643,367.366 232.7,367.289 232.761,367.218C232.86,367.102 232.976,367.001 233.083,366.892C237.42,362.501 241.78,358.132 246.094,353.72C256.239,343.347 266.403,332.993 276.46,322.535C282.168,316.6 287.82,310.611 293.387,304.544C298.645,298.814 303.786,292.976 308.935,287.147C313.224,282.291 317.425,277.359 321.701,272.491C327.007,266.449 329.758,263.67 330.488,262.932C330.719,262.7 332.032,261.373 334.269,261.373C335.322,261.373 336.131,261.701 336.283,261.763C338.371,262.61 339.093,264.39 339.218,264.698C339.28,264.85 339.608,265.659 339.608,266.712C339.608,268.949 338.282,270.261 338.05,270.491C337.311,271.222 334.531,273.973 328.49,279.28C323.622,283.555 318.69,287.757 313.834,292.046C308.005,297.195 302.167,302.335 296.437,307.594C290.37,313.161 284.38,318.813 278.445,324.521C267.988,334.578 257.634,344.742 247.261,354.886C246.175,355.947 246.115,356.007 233.764,368.219C233.733,368.249 233.555,368.425 233.26,368.426C232.965,368.426 232.791,368.251 232.76,368.221Z" style="fill:rgb(152,133,107);"/>
                        </g>
                    </g>
                    <g transform="matrix(-2.89968,0,0,2.89968,951.389,-144.776)">
                        <path d="M137.032,389.49C137.062,389.521 137.237,389.696 137.532,389.695C137.623,389.695 137.716,389.678 137.8,389.643C137.886,389.608 137.964,389.551 138.034,389.489C138.193,389.349 138.335,389.191 138.486,389.041C144.568,383.013 150.629,376.962 156.733,370.955C171.083,356.834 185.414,342.693 199.848,328.659C208.039,320.695 216.284,312.788 224.608,304.963C232.466,297.577 240.433,290.308 248.391,283.03C255.018,276.969 261.723,270.995 268.362,264.948C276.583,257.461 280.455,253.619 281.478,252.604C281.71,252.374 283.037,251.057 283.037,248.824C283.037,247.771 282.709,246.962 282.647,246.81C281.8,244.722 280.019,244 279.712,243.875C279.559,243.813 278.751,243.485 277.697,243.485C275.465,243.485 274.149,244.811 273.918,245.043C272.903,246.066 269.06,249.939 261.573,258.159C255.526,264.798 249.552,271.504 243.492,278.13C236.214,286.089 228.944,294.056 221.558,301.914C213.734,310.237 205.826,318.483 197.863,326.673C183.829,341.108 169.688,355.439 155.567,369.789L137.033,388.487C137.003,388.517 136.827,388.695 136.826,388.99C136.826,389.284 137.001,389.459 137.032,389.49Z" style="fill:rgb(152,133,107);"/>
                        <g transform="matrix(1,0,0,1,-12.9207,-6.69472)">
                            <path d="M157.973,407.551C158.003,407.582 158.179,407.757 158.473,407.757C158.564,407.756 158.657,407.739 158.741,407.705C158.827,407.669 158.905,407.612 158.975,407.55C159.147,407.399 159.3,407.228 159.463,407.066C166.036,400.546 172.588,394.004 179.183,387.507C194.688,372.231 210.173,356.936 225.762,341.747C234.608,333.129 243.508,324.566 252.487,316.087C260.962,308.083 269.547,300.196 278.124,292.3C285.265,285.725 292.484,279.237 299.638,272.675C308.49,264.556 312.68,260.396 313.785,259.299C314.017,259.069 315.344,257.751 315.344,255.519C315.344,254.465 315.016,253.657 314.955,253.505C314.107,251.417 312.327,250.694 312.019,250.569C311.867,250.508 311.059,250.18 310.005,250.18C307.773,250.18 306.456,251.506 306.226,251.738C305.128,252.843 300.968,257.034 292.849,265.886C286.288,273.04 279.799,280.259 273.224,287.4C265.328,295.977 257.441,304.562 249.437,313.037C240.958,322.016 232.395,330.916 223.777,339.762C208.588,355.351 193.293,370.836 178.017,386.341L157.975,406.548C157.944,406.579 157.768,406.756 157.767,407.051C157.767,407.345 157.942,407.521 157.973,407.551Z" style="fill:rgb(152,133,107);"/>
                        </g>
                        <g transform="matrix(1,0,0,1,-17.0166,-17.8879)">
                            <path d="M182.236,418.744C182.267,418.775 182.442,418.95 182.737,418.95C182.828,418.95 182.92,418.932 183.004,418.898C183.091,418.862 183.169,418.806 183.239,418.744C183.41,418.592 183.564,418.421 183.727,418.259C190.3,411.74 196.852,405.198 203.447,398.7C218.952,383.425 234.437,368.129 250.026,352.94C258.871,344.322 267.771,335.759 276.75,327.28C285.226,319.276 293.811,311.389 302.387,303.493C309.528,296.918 316.748,290.43 323.901,283.869C332.754,275.749 336.943,271.59 338.049,270.492C338.281,270.262 339.608,268.944 339.608,266.712C339.608,265.659 339.28,264.85 339.218,264.698C338.371,262.61 336.59,261.887 336.283,261.763C336.131,261.701 335.322,261.373 334.269,261.373C332.036,261.373 330.72,262.699 330.489,262.931C329.392,264.036 325.232,268.227 317.112,277.08C310.551,284.233 304.063,291.453 297.488,298.593C289.592,307.17 281.704,315.755 273.7,324.231C265.221,333.209 256.659,342.109 248.04,350.955C232.852,366.544 217.556,382.029 202.281,397.534L182.238,417.741C182.207,417.772 182.032,417.949 182.031,418.244C182.03,418.539 182.206,418.714 182.236,418.744Z" style="fill:rgb(152,133,107);"/>
                        </g>
                    </g>
                    <g transform="matrix(-1.10059,-1.10059,1.10059,-1.10059,286.484,793.007)">
                        <g transform="matrix(1,0,0,1,-9.0946,-9.0946)">
                            <path d="M184.46,342.062C184.403,342.005 184.077,341.679 184.078,341.13C184.078,340.961 184.111,340.788 184.175,340.631C184.241,340.47 184.348,340.327 184.461,340.194C184.651,339.972 184.873,339.779 185.078,339.571C193.377,331.172 201.717,322.814 209.974,314.375C229.387,294.535 248.838,274.731 268.089,254.734C279.014,243.386 289.835,231.935 300.499,220.341C310.571,209.39 320.423,198.239 330.291,187.104C338.51,177.829 346.567,168.41 354.761,159.113C364.929,147.575 370.195,142.257 371.593,140.844C372.021,140.411 374.468,137.939 378.635,137.939C380.598,137.939 382.104,138.551 382.387,138.666C382.96,138.898 386.277,140.244 387.856,144.135C387.971,144.418 388.582,145.924 388.582,147.887C388.582,152.053 386.112,154.499 385.679,154.927C384.267,156.326 378.947,161.592 367.409,171.761C358.111,179.955 348.693,188.011 339.418,196.231C328.283,206.099 317.131,215.951 306.181,226.023C294.586,236.687 283.136,247.508 271.788,258.433C251.79,277.684 231.987,297.135 212.147,316.547C210.072,318.578 209.955,318.692 186.329,342.059C186.272,342.116 185.941,342.443 185.392,342.444C184.842,342.445 184.517,342.119 184.46,342.062Z" style="fill:rgb(152,133,107);"/>
                        </g>
                        <g transform="matrix(1,0,0,1,-10.5093,-11.8584)">
                            <path d="M209.279,356.245C209.222,356.188 208.897,355.862 208.898,355.313C208.898,355.143 208.93,354.971 208.994,354.814C209.061,354.653 209.168,354.51 209.281,354.377C209.463,354.162 209.677,353.976 209.875,353.776C217.868,345.684 225.901,337.632 233.852,329.499C252.545,310.38 271.275,291.296 289.806,272.019C300.322,261.079 310.735,250.038 320.99,238.852C330.677,228.286 340.143,217.52 349.626,206.771C357.525,197.817 365.26,188.72 373.133,179.743C382.907,168.6 387.974,163.479 389.321,162.118C389.75,161.685 392.196,159.213 396.363,159.213C398.326,159.213 399.832,159.825 400.115,159.94C400.689,160.172 404.006,161.518 405.584,165.409C405.699,165.692 406.311,167.198 406.311,169.161C406.311,173.328 403.84,175.773 403.407,176.201C402.047,177.548 396.924,182.617 385.781,192.391C376.804,200.264 367.707,207.999 358.753,215.898C348.004,225.381 337.238,234.847 326.672,244.534C315.486,254.789 304.445,265.202 293.505,275.718C274.228,294.249 255.144,312.979 236.025,331.672C234.025,333.627 233.913,333.737 211.149,356.241C211.091,356.298 210.76,356.625 210.211,356.626C209.662,356.627 209.336,356.302 209.279,356.245Z" style="fill:rgb(152,133,107);"/>
                        </g>
                        <g transform="matrix(1,0,0,1,-10.5266,-13.0569)">
                            <path d="M232.326,368.654C232.269,368.598 231.944,368.272 231.945,367.723C231.945,367.553 231.977,367.381 232.041,367.224C232.107,367.063 232.215,366.92 232.328,366.787C232.501,366.582 232.705,366.405 232.894,366.214C240.503,358.505 248.154,350.836 255.722,343.086C273.514,324.867 291.345,306.684 308.975,288.307C318.981,277.878 328.883,267.347 338.627,256.672C347.832,246.588 356.816,236.304 365.817,226.037C373.315,217.484 380.649,208.788 388.121,200.212C397.4,189.562 402.221,184.689 403.504,183.392C403.932,182.959 406.377,180.487 410.546,180.487C412.509,180.487 414.015,181.099 414.298,181.214C418.188,182.792 419.534,186.109 419.767,186.683C419.882,186.966 420.493,188.472 420.493,190.435C420.493,194.603 418.023,197.047 417.59,197.475C416.294,198.758 411.419,203.58 400.769,212.86C392.193,220.332 383.497,227.666 374.944,235.164C364.677,244.164 354.393,253.149 344.309,262.354C333.634,272.098 323.103,282 312.674,292.006C294.297,309.636 276.114,327.467 257.894,345.259C255.989,347.12 255.882,347.224 234.196,368.651C234.138,368.708 233.807,369.035 233.258,369.036C232.709,369.037 232.383,368.711 232.326,368.654Z" style="fill:rgb(152,133,107);"/>
                        </g>
                    </g>
                </g>
                <g id="R1" serif:id="R" transform="matrix(0.698605,0,0,2.42902,4405.84,-225.971)">
                    <g transform="matrix(-2.89968,0,0,2.89968,752.73,-84.8976)">
                        <path d="M137.032,389.49C137.062,389.521 137.237,389.696 137.532,389.695C137.623,389.695 137.716,389.678 137.8,389.643C137.886,389.608 137.964,389.551 138.034,389.489C138.193,389.349 138.335,389.191 138.486,389.041C144.568,383.013 150.629,376.962 156.733,370.955C171.083,356.834 185.414,342.693 199.848,328.659C208.039,320.695 216.284,312.788 224.608,304.963C232.466,297.577 240.433,290.308 248.391,283.03C255.018,276.969 261.723,270.995 268.362,264.948C276.583,257.461 280.455,253.619 281.478,252.604C281.71,252.374 283.037,251.057 283.037,248.824C283.037,247.771 282.709,246.962 282.647,246.81C282.522,246.502 281.8,244.722 279.712,243.875C279.559,243.813 278.751,243.485 277.697,243.485C275.465,243.485 274.149,244.811 273.918,245.043C272.903,246.066 269.06,249.939 261.573,258.159C255.526,264.798 249.552,271.504 243.492,278.13C236.214,286.089 228.944,294.056 221.558,301.914C213.734,310.237 205.826,318.483 197.863,326.673C183.829,341.108 169.688,355.439 155.567,369.789L137.033,388.487C137.003,388.517 136.827,388.695 136.826,388.99C136.826,389.284 137.001,389.459 137.032,389.49Z" style="fill:rgb(152,133,107);"/>
                        <g transform="matrix(1,0,0,1,-12.9207,-6.69472)">
                            <path d="M157.973,407.551C158.003,407.582 158.179,407.757 158.473,407.757C158.564,407.756 158.657,407.739 158.741,407.705C158.827,407.669 158.905,407.612 158.975,407.55C159.147,407.399 159.3,407.228 159.463,407.066C166.036,400.546 172.588,394.004 179.183,387.507C194.688,372.231 210.173,356.936 225.762,341.747C234.608,333.129 243.508,324.566 252.487,316.087C260.962,308.083 269.547,300.196 278.124,292.3C285.265,285.725 292.484,279.237 299.638,272.675C308.49,264.556 312.68,260.396 313.785,259.299C314.017,259.069 315.344,257.751 315.344,255.519C315.344,254.465 315.016,253.657 314.955,253.505C314.107,251.417 312.327,250.694 312.019,250.569C311.867,250.508 311.059,250.18 310.005,250.18C307.773,250.18 306.456,251.506 306.226,251.738C305.128,252.843 300.968,257.034 292.849,265.886C286.288,273.04 279.799,280.259 273.224,287.4C265.328,295.977 257.441,304.562 249.437,313.037C240.958,322.016 232.395,330.916 223.777,339.762C208.588,355.351 193.293,370.836 178.017,386.341L157.975,406.548C157.944,406.579 157.768,406.756 157.767,407.051C157.767,407.345 157.942,407.521 157.973,407.551Z" style="fill:rgb(152,133,107);"/>
                        </g>
                        <g transform="matrix(1,0,0,1,-17.0166,-17.8879)">
                            <path d="M182.236,418.744C182.267,418.775 182.442,418.95 182.737,418.95C182.828,418.95 182.92,418.932 183.004,418.898C183.091,418.862 183.169,418.806 183.239,418.744C183.41,418.592 183.564,418.421 183.727,418.259C190.3,411.74 196.852,405.198 203.447,398.7C218.952,383.425 234.437,368.129 250.026,352.94C258.871,344.322 267.771,335.759 276.75,327.28C285.226,319.276 293.811,311.389 302.387,303.493C309.528,296.918 316.748,290.43 323.901,283.869C332.754,275.749 336.943,271.59 338.049,270.492C338.281,270.262 339.608,268.944 339.608,266.712C339.608,265.659 339.28,264.85 339.218,264.698C338.371,262.61 336.59,261.887 336.283,261.763C336.131,261.701 335.322,261.373 334.269,261.373C332.036,261.373 330.72,262.699 330.489,262.931C329.392,264.036 325.232,268.227 317.112,277.08C310.551,284.233 304.063,291.453 297.488,298.593C289.592,307.17 281.704,315.755 273.7,324.231C265.221,333.209 256.659,342.109 248.04,350.955C232.852,366.544 217.556,382.029 202.281,397.534L182.238,417.741C182.207,417.772 182.032,417.949 182.031,418.244C182.03,418.539 182.206,418.714 182.236,418.744Z" style="fill:rgb(152,133,107);"/>
                        </g>
                    </g>
                    <g transform="matrix(2.89968,0,0,2.89968,-566.004,-553.356)">
                        <path d="M137.032,389.49C137.001,389.459 136.826,389.284 136.826,388.99C136.827,388.899 136.844,388.806 136.878,388.722C136.914,388.635 136.971,388.558 137.032,388.488C137.172,388.328 137.331,388.187 137.48,388.036C143.509,381.954 149.56,375.893 155.567,369.789C169.688,355.439 183.829,341.108 197.863,326.673C205.826,318.483 213.734,310.237 221.558,301.914C228.944,294.056 236.214,286.089 243.492,278.13C249.552,271.504 255.526,264.798 261.573,258.159C269.061,249.939 272.902,246.067 273.917,245.044C274.148,244.812 275.465,243.485 277.697,243.485C278.751,243.485 279.559,243.813 279.712,243.875C281.8,244.722 282.522,246.502 282.647,246.81C282.709,246.962 283.037,247.771 283.037,248.824C283.037,251.057 281.711,252.373 281.479,252.603C280.456,253.618 276.583,257.461 268.362,264.948C261.723,270.995 255.018,276.969 248.391,283.03C240.433,290.308 232.466,297.577 224.608,304.963C216.284,312.788 208.039,320.695 199.848,328.659C185.414,342.693 171.083,356.834 156.733,370.955L138.035,389.488C138.004,389.519 137.827,389.695 137.532,389.695C137.237,389.696 137.062,389.521 137.032,389.49Z" style="fill:rgb(152,133,107);"/>
                        <g transform="matrix(1,0,0,1,-12.9207,-6.69472)">
                            <path d="M157.973,407.551C157.942,407.521 157.767,407.345 157.767,407.051C157.768,406.96 157.785,406.867 157.819,406.783C157.855,406.697 157.912,406.619 157.974,406.549C158.125,406.377 158.296,406.224 158.458,406.061C164.978,399.488 171.52,392.936 178.017,386.341C193.293,370.836 208.588,355.351 223.777,339.762C232.395,330.916 240.958,322.016 249.437,313.037C257.441,304.562 265.328,295.977 273.224,287.4C279.799,280.259 286.288,273.04 292.849,265.886C300.968,257.034 305.128,252.844 306.225,251.739C306.455,251.507 307.773,250.18 310.005,250.18C311.059,250.18 311.867,250.508 312.019,250.569C312.327,250.694 314.107,251.417 314.955,253.505C315.016,253.657 315.344,254.465 315.344,255.519C315.344,257.751 314.018,259.068 313.786,259.298C312.681,260.396 308.49,264.556 299.638,272.675C292.484,279.237 285.265,285.725 278.124,292.3C269.547,300.196 260.962,308.083 252.487,316.087C243.508,324.566 234.608,333.129 225.762,341.747C210.173,356.936 194.688,372.231 179.183,387.507L158.976,407.549C158.945,407.58 158.768,407.756 158.473,407.757C158.179,407.757 158.003,407.582 157.973,407.551Z" style="fill:rgb(152,133,107);"/>
                        </g>
                        <g transform="matrix(1,0,0,1,-17.0166,-17.8879)">
                            <path d="M182.236,418.744C182.206,418.714 182.03,418.539 182.031,418.244C182.031,418.153 182.048,418.06 182.083,417.976C182.119,417.89 182.175,417.812 182.237,417.742C182.389,417.57 182.56,417.417 182.721,417.254C189.241,410.681 195.783,404.129 202.281,397.534C217.556,382.029 232.852,366.544 248.04,350.955C256.659,342.109 265.221,333.209 273.7,324.231C281.704,315.755 289.592,307.17 297.488,298.593C304.063,291.453 310.551,284.233 317.112,277.08C325.232,268.227 329.391,264.037 330.488,262.932C330.719,262.7 332.036,261.373 334.269,261.373C335.322,261.373 336.131,261.701 336.283,261.763C338.371,262.61 339.093,264.39 339.218,264.698C339.28,264.85 339.608,265.659 339.608,266.712C339.608,268.944 338.282,270.261 338.05,270.491C336.944,271.589 332.754,275.749 323.901,283.869C316.748,290.43 309.528,296.918 302.387,303.493C293.811,311.389 285.226,319.276 276.75,327.28C267.771,335.759 258.871,344.322 250.026,352.94C234.437,368.129 218.952,383.425 203.447,398.7L183.24,418.743C183.209,418.773 183.032,418.949 182.737,418.95C182.442,418.95 182.267,418.775 182.236,418.744Z" style="fill:rgb(152,133,107);"/>
                        </g>
                    </g>
                    <g transform="matrix(-2.89968,0,0,2.89968,1333.73,-553.356)">
                        <path d="M137.032,389.49C137.062,389.521 137.237,389.696 137.532,389.695C137.623,389.695 137.716,389.678 137.8,389.643C137.886,389.608 137.964,389.551 138.034,389.489C138.193,389.349 138.335,389.191 138.486,389.041C144.568,383.013 150.629,376.962 156.733,370.955C171.083,356.834 185.414,342.693 199.848,328.659C208.039,320.695 216.284,312.788 224.608,304.963C232.466,297.577 240.433,290.308 248.391,283.03C255.018,276.969 261.723,270.995 268.362,264.948C276.583,257.461 280.455,253.619 281.478,252.604C281.71,252.374 283.037,251.057 283.037,248.824C283.037,247.771 282.709,246.962 282.647,246.81C281.8,244.722 280.019,244 279.712,243.875C279.559,243.813 278.751,243.485 277.697,243.485C275.465,243.485 274.149,244.811 273.918,245.043C272.903,246.066 269.06,249.939 261.573,258.159C255.526,264.798 249.552,271.504 243.492,278.13C236.214,286.089 228.944,294.056 221.558,301.914C213.734,310.237 205.826,318.483 197.863,326.673C183.829,341.108 169.688,355.439 155.567,369.789L137.033,388.487C137.003,388.517 136.827,388.695 136.826,388.99C136.826,389.284 137.001,389.459 137.032,389.49Z" style="fill:rgb(152,133,107);"/>
                        <g transform="matrix(1,0,0,1,-12.9207,-6.69472)">
                            <path d="M157.973,407.551C158.003,407.582 158.179,407.757 158.473,407.757C158.564,407.756 158.657,407.739 158.741,407.705C158.827,407.669 158.905,407.612 158.975,407.55C159.147,407.399 159.3,407.228 159.463,407.066C166.036,400.546 172.588,394.004 179.183,387.507C194.688,372.231 210.173,356.936 225.762,341.747C234.608,333.129 243.508,324.566 252.487,316.087C260.962,308.083 269.547,300.196 278.124,292.3C285.265,285.725 292.484,279.237 299.638,272.675C308.49,264.556 312.68,260.396 313.785,259.299C314.017,259.069 315.344,257.751 315.344,255.519C315.344,254.465 315.016,253.657 314.955,253.505C314.107,251.417 312.327,250.694 312.019,250.569C311.867,250.508 311.059,250.18 310.005,250.18C307.773,250.18 306.456,251.506 306.226,251.738C305.128,252.843 300.968,257.034 292.849,265.886C286.288,273.04 279.799,280.259 273.224,287.4C265.328,295.977 257.441,304.562 249.437,313.037C240.958,322.016 232.395,330.916 223.777,339.762C208.588,355.351 193.293,370.836 178.017,386.341L157.975,406.548C157.944,406.579 157.768,406.756 157.767,407.051C157.767,407.345 157.942,407.521 157.973,407.551Z" style="fill:rgb(152,133,107);"/>
                        </g>
                        <g transform="matrix(1,0,0,1,-17.0166,-17.8879)">
                            <path d="M182.236,418.744C182.267,418.775 182.442,418.95 182.737,418.95C182.828,418.95 182.92,418.932 183.004,418.898C183.091,418.862 183.169,418.806 183.239,418.744C183.41,418.592 183.564,418.421 183.727,418.259C190.3,411.74 196.852,405.198 203.447,398.7C218.952,383.425 234.437,368.129 250.026,352.94C258.871,344.322 267.771,335.759 276.75,327.28C285.226,319.276 293.811,311.389 302.387,303.493C309.528,296.918 316.748,290.43 323.901,283.869C332.754,275.749 336.943,271.59 338.049,270.492C338.281,270.262 339.608,268.944 339.608,266.712C339.608,265.659 339.28,264.85 339.218,264.698C338.371,262.61 336.59,261.887 336.283,261.763C336.131,261.701 335.322,261.373 334.269,261.373C332.036,261.373 330.72,262.699 330.489,262.931C329.392,264.036 325.232,268.227 317.112,277.08C310.551,284.233 304.063,291.453 297.488,298.593C289.592,307.17 281.704,315.755 273.7,324.231C265.221,333.209 256.659,342.109 248.04,350.955C232.852,366.544 217.556,382.029 202.281,397.534L182.238,417.741C182.207,417.772 182.032,417.949 182.031,418.244C182.03,418.539 182.206,418.714 182.236,418.744Z" style="fill:rgb(152,133,107);"/>
                        </g>
                    </g>
                    <g transform="matrix(2.89968,0,0,2.89968,14.9959,-101.649)">
                        <path d="M137.032,389.49C137.001,389.459 136.826,389.284 136.826,388.99C136.827,388.899 136.844,388.806 136.878,388.722C136.914,388.635 136.971,388.558 137.032,388.488C137.172,388.328 137.331,388.187 137.48,388.036C143.509,381.954 149.56,375.893 155.567,369.789C169.688,355.439 183.829,341.108 197.863,326.673C205.826,318.483 213.734,310.237 221.558,301.914C228.944,294.056 236.214,286.089 243.492,278.13C249.552,271.504 255.526,264.798 261.573,258.159C269.061,249.939 272.902,246.067 273.917,245.044C274.148,244.812 275.465,243.485 277.697,243.485C278.751,243.485 279.559,243.813 279.712,243.875C280.019,244 281.8,244.722 282.647,246.81C282.709,246.962 283.037,247.771 283.037,248.824C283.037,251.057 281.711,252.373 281.479,252.603C280.456,253.618 276.583,257.461 268.362,264.948C261.723,270.995 255.018,276.969 248.391,283.03C240.433,290.308 232.466,297.577 224.608,304.963C216.284,312.788 208.039,320.695 199.848,328.659C185.414,342.693 171.083,356.834 156.733,370.955L138.035,389.488C138.004,389.519 137.827,389.695 137.532,389.695C137.237,389.696 137.062,389.521 137.032,389.49Z" style="fill:rgb(152,133,107);"/>
                        <g transform="matrix(1,0,0,1,-12.9207,-6.69472)">
                            <path d="M157.973,407.551C157.942,407.521 157.767,407.345 157.767,407.051C157.768,406.96 157.785,406.867 157.819,406.783C157.855,406.697 157.912,406.619 157.974,406.549C158.125,406.377 158.296,406.224 158.458,406.061C164.978,399.488 171.52,392.936 178.017,386.341C193.293,370.836 208.588,355.351 223.777,339.762C232.395,330.916 240.958,322.016 249.437,313.037C257.441,304.562 265.328,295.977 273.224,287.4C279.799,280.259 286.288,273.04 292.849,265.886C300.968,257.034 305.128,252.844 306.225,251.739C306.455,251.507 307.773,250.18 310.005,250.18C311.059,250.18 311.867,250.508 312.019,250.569C312.327,250.694 314.107,251.417 314.955,253.505C315.016,253.657 315.344,254.465 315.344,255.519C315.344,257.751 314.018,259.068 313.786,259.298C312.681,260.396 308.49,264.556 299.638,272.675C292.484,279.237 285.265,285.725 278.124,292.3C269.547,300.196 260.962,308.083 252.487,316.087C243.508,324.566 234.608,333.129 225.762,341.747C210.173,356.936 194.688,372.231 179.183,387.507L158.976,407.549C158.945,407.58 158.768,407.756 158.473,407.757C158.179,407.757 158.003,407.582 157.973,407.551Z" style="fill:rgb(152,133,107);"/>
                        </g>
                        <g transform="matrix(1,0,0,1,-17.0166,-17.8879)">
                            <path d="M182.236,418.744C182.206,418.714 182.03,418.539 182.031,418.244C182.031,418.153 182.048,418.06 182.083,417.976C182.119,417.89 182.175,417.812 182.237,417.742C182.389,417.57 182.56,417.417 182.721,417.254C189.241,410.681 195.783,404.129 202.281,397.534C217.556,382.029 232.852,366.544 248.04,350.955C256.659,342.109 265.221,333.209 273.7,324.231C281.704,315.755 289.592,307.17 297.488,298.593C304.063,291.453 310.551,284.233 317.112,277.08C325.232,268.227 329.391,264.037 330.488,262.932C330.719,262.7 332.036,261.373 334.269,261.373C335.322,261.373 336.131,261.701 336.283,261.763C338.371,262.61 339.093,264.39 339.218,264.698C339.28,264.85 339.608,265.659 339.608,266.712C339.608,268.944 338.282,270.261 338.05,270.491C336.944,271.589 332.754,275.749 323.901,283.869C316.748,290.43 309.528,296.918 302.387,303.493C293.811,311.389 285.226,319.276 276.75,327.28C267.771,335.759 258.871,344.322 250.026,352.94C234.437,368.129 218.952,383.425 203.447,398.7L183.24,418.743C183.209,418.773 183.032,418.949 182.737,418.95C182.442,418.95 182.267,418.775 182.236,418.744Z" style="fill:rgb(152,133,107);"/>
                        </g>
                    </g>
                </g>
            </g>
            <g id="Skull-Front" serif:id="Skull Front" transform="matrix(0.287608,0,0,1,2364.84,-20.4882)">
                <path d="M1589.69,1787.7C1493.95,1976.73 1369.34,2191.55 1240.16,2410.45C1239.68,2404.14 1239.19,2397.83 1238.66,2391.52C1206.78,2146.33 688.783,1578.88 727.891,1240.15C720.918,1232.29 682.771,965.721 686.363,962.13C1110.07,1210.56 1244.69,750.038 1111.21,500.102L1125.8,496.485L1162.95,549.636L1183.85,623.944L1237.16,632.072L1197.79,600.723L1188.5,531.059L1142.06,517.126L1137.64,491.606L1102.35,484.381C1102.86,485.26 1103.36,486.141 1103.87,487.025C1050.96,397.404 961.393,338.85 836.228,357.958C858.127,334.511 913.416,269.924 1020.73,236.894C1078.1,216.548 1150.69,202.968 1240.16,202.968C1290.26,202.968 1335.93,207.296 1377.19,214.582L1310.86,248.507L1377.19,277.534L1281.84,317.446L1303.61,357.357L1251.05,402.712L1287.28,491.606L1266.11,405.063L1326.48,360.478L1308.83,322.395L1405.43,285.241L1358.99,238.798L1394.33,217.827C1553.62,250.038 1642.92,326.095 1663.17,359.685C1344.44,267.772 1225.9,675.097 1323.63,886.942L1308.67,892.425L1323.27,915.461L1294.29,908.773L1280.87,932.83C1268.61,899.729 1255.06,864.457 1240.16,826.902L1240.16,1118.87L1224.83,1098.45L1208.81,1111.88L1208.81,826.902C1081.81,1146.93 1053.71,1300.37 1083.16,1356.9L1072.47,1372L1035.83,1383.7L1084.42,1438.5C1056,1470.76 1029.67,1572.29 1036.69,1603.24C1045,1639.9 1133.41,1611.45 1150.08,1648.59C1178.42,1711.76 1192.34,1992.07 1206.77,1982.25C1214.6,1976.91 1219.94,1888.28 1224.7,1793.93L1234.99,1824.73L1248.98,1799.35C1260.81,1891.04 1278.76,1974.81 1291.87,1980.94C1316.91,1992.66 1357.01,1720.54 1390.45,1652.13C1409.58,1612.99 1492.88,1607.91 1492.5,1570.49C1492.12,1533.07 1430.24,1425.73 1388.18,1427.62C1346.13,1429.51 1252.38,1511.63 1240.16,1581.83C1233.18,1621.9 1237.3,1700.28 1246.25,1777.08L1237.9,1784.09L1225.97,1768.61C1229.49,1697.19 1232.78,1626.45 1236.64,1589.63C1243.99,1519.66 1133.51,1426.33 1100.18,1428.6C1096.49,1428.85 1092.73,1430.74 1088.98,1433.95L1072.47,1406.83L1099.72,1375.74C1123.74,1391.37 1162.14,1382.79 1208.81,1360.28L1208.81,1129.25L1224.83,1123.53L1240.16,1139.31L1240.16,1362.99C1377.82,1429.4 1443.88,1375.21 1283.21,939.162L1297.26,928.093L1329.21,933.295L1334.78,908.596C1406.79,1034.27 1566.88,1070.59 1819.19,837.758C1817.63,972.225 1801.68,1106.69 1769.88,1241.16C1768.7,1242.59 1767.52,1244.03 1766.34,1245.47C1781.86,1354.74 1713.89,1538.59 1603.38,1760.44L1603.06,1732.74C1696.92,1541.81 1757.19,1370.79 1732.69,1287.35C1484.27,1602.75 1324.56,1947.72 1254.77,2322.66C1362.21,2165.5 1489.71,1957.48 1586.78,1765.38L1589.69,1787.7ZM1111.21,500.102L1110.96,500.165M1233.38,2335.9C1194.02,1968.92 1064.47,1609.89 752.074,1267C750.933,1507.65 1101.33,1978.02 1233.38,2335.9Z" style="fill:rgb(152,133,107);"/>
            </g>
        </g>
    </g>
</svg>
