<?xml version="1.0" encoding="UTF-8"?>
<svg xmlns="http://www.w3.org/2000/svg" viewBox="0 0 1080 1080">
  <defs>
    <style>
      .cls-1 {
        fill: #a00;
      }

      .cls-2 {
        fill: #fff;
      }

      .cls-3 {
        fill: #02080d;
      }

      .cls-4 {
        fill: #55f;
      }

      .cls-5 {
        fill: #00a;
      }

      .cls-6 {
        fill: #f55;
      }

      .cls-7 {
        fill: #555;
      }

      .cls-8 {
        fill: #6d6d6d;
      }

      .cls-9 {
        fill: #a50;
      }

      .cls-10 {
        fill: #aaa;
      }
    </style>
  </defs>
  <g id="Layer_1">
    <polyline class="cls-3" points="514.7254 251.4986 549.6478 338.9151 606.6683 256.1429 613.0955 157.708 552.6243 100.8397 517.1482 144.7836 510.2907 156.9581 521.1387 177.8277 496.1361 191.9364 489.5298 208.1755 501.5092 227.6538 519.3559 236.0016 514.7254 247.2407 514.7254 251.4986"/>
    <polygon class="cls-9" points="414.8994 306.9581 418.3776 267.306 436.4646 277.0451 414.8994 306.9581"/>
    <polygon class="cls-10" points="439.9428 227.6538 436.4646 277.0451 418.3776 267.306 439.9428 227.6538"/>
    <polygon class="cls-9" points="466.3776 232.5233 436.4646 277.0451 439.9428 227.6538 466.3776 232.5233"/>
    <polygon class="cls-10" points="459.4211 208.1755 466.3776 232.5233 439.9428 227.6538 459.4211 208.1755"/>
    <polygon class="cls-9" points="500.4646 236.0016 466.3776 232.5233 436.4646 277.0451 500.4646 236.0016"/>
    <polygon class="cls-9" points="570.0298 227.6538 459.4211 208.1755 466.3776 232.5233 570.0298 227.6538"/>
    <polygon class="cls-10" points="500.4646 236.0016 570.0298 227.6538 466.3776 232.5233 500.4646 236.0016"/>
    <polygon class="cls-10" points="459.4211 208.1755 503.5081 177.8277 492.9987 214.0886 459.4211 208.1755"/>
    <polygon class="cls-8" points="506.8823 216.5335 496.1361 203.2637 492.9987 214.0886 506.8823 216.5335"/>
    <polygon class="cls-2" points="508.9863 208.1755 501.5092 209.8986 506.8823 216.5335 508.9863 208.1755"/>
    <polygon class="cls-10" points="570.0298 227.6538 508.9863 208.1755 506.8823 216.5335 570.0298 227.6538"/>
    <polygon class="cls-2" points="573.4211 214.0886 550.7717 221.5088 570.0298 227.6538 573.4211 214.0886"/>
    <polygon class="cls-2" points="518.2037 198.6973 562.0964 217.7987 508.9863 208.1755 518.2037 198.6973"/>
    <polygon class="cls-9" points="550.7717 221.5088 562.0964 217.7987 508.9863 208.1755 550.7717 221.5088"/>
    <polygon class="cls-9" points="496.1361 203.2637 559.595 129.8277 503.5081 177.8277 496.1361 203.2637"/>
    <polygon class="cls-10" points="510.2907 156.9581 510.2907 172.023 559.595 129.8277 510.2907 156.9581"/>
    <polygon class="cls-2" points="559.595 129.8277 510.2907 156.9581 530.4863 135.9364 559.595 129.8277"/>
    <polygon class="cls-2" points="502.4491 195.9581 553.5811 155.196 579.7037 134.3712 559.595 129.8277 502.4491 195.9581"/>
    <polygon class="cls-7" points="595.5298 148.1103 553.5811 155.196 579.7037 134.3712 595.5298 148.1103"/>
    <polygon class="cls-2" points="584.7472 191.9364 597.4428 190.8929 595.5298 148.1103 584.7472 191.9364"/>
    <polygon class="cls-9" points="588.5259 176.5776 567.7879 152.7963 595.5298 148.1103 588.5259 176.5776"/>
    <polygon class="cls-7" points="584.7472 191.9364 580.8103 167.7297 588.5259 176.5776 584.7472 191.9364"/>
    <polygon class="cls-7" points="544.6147 162.344 519.3559 198.6973 512.5708 187.8891 544.6147 162.344"/>
    <polygon class="cls-7" points="537.4607 207.0776 541.0764 167.4364 519.3559 198.6973 537.4607 207.0776"/>
    <polygon class="cls-9" points="582.7787 179.8331 567.7879 209.8986 588.5259 209.8986 582.7787 179.8331"/>
    <polygon class="cls-9" points="609.2689 199.4147 586.9942 201.8853 588.5259 209.8986 609.2689 199.4147"/>
    <polygon class="cls-9" points="539.587 183.7659 567.7879 209.8986 537.4607 207.0776 539.587 183.7659"/>
    <polygon class="cls-2" points="575.9118 193.6054 556.9542 199.8594 567.7879 209.8986 575.9118 193.6054"/>
    <polygon points="414.8994 306.9581 437.8776 284.632 436.4646 277.0451 414.8994 306.9581"/>
    <polygon class="cls-7" points="462.9207 260.0787 437.8776 284.632 436.4646 277.0451 462.9207 260.0787"/>
    <polygon points="500.4646 236.0016 437.8776 284.632 462.9207 260.0787 500.4646 236.0016"/>
    <polygon class="cls-7" points="570.0298 227.6538 437.8776 284.632 500.4646 236.0016 570.0298 227.6538"/>
    <polygon class="cls-10" points="521.1387 248.7335 578.1569 244.1973 567.7879 228.6204 521.1387 248.7335"/>
    <polygon class="cls-9" points="588.5259 221.5088 570.3859 232.5233 578.1569 244.1973 588.5259 221.5088"/>
    <polygon class="cls-7" points="593.8776 230.632 588.5259 221.5088 578.1569 244.1973 593.8776 230.632"/>
  </g>
  <g id="Layer_4">
    <polygon class="cls-5" points="526.6602 299.6755 548.2254 340.9799 503.5081 350.6016 526.6602 299.6755"/>
    <polygon class="cls-4" points="496.1361 387.5886 548.2254 340.9799 503.5081 350.6016 496.1361 387.5886"/>
    <polygon class="cls-10" points="478.3994 459.5886 496.1361 387.5886 548.2254 340.9799 478.3994 459.5886"/>
    <polygon class="cls-10" points="658.4863 296.632 548.2254 340.9799 695.3982 529.9469 658.4863 296.632"/>
    <polygon class="cls-5" points="478.3994 459.5886 695.3982 529.9469 548.2254 340.9799 478.3994 459.5886"/>
    <polygon class="cls-5" points="606.6683 256.1429 658.4863 296.632 548.2254 340.9799 606.6683 256.1429"/>
    <polygon class="cls-4" points="613.0955 162.8929 658.4863 296.632 606.6683 256.1429 613.0955 162.8929"/>
    <polygon class="cls-10" points="665.1948 187.257 613.0955 162.8929 658.4863 296.632 665.1948 187.257"/>
    <polygon class="cls-4" points="707.182 172.023 613.0955 162.8929 665.1948 187.257 707.182 172.023"/>
    <polygon class="cls-10" points="707.182 172.023 680.5952 143.3929 613.0955 162.8929 707.182 172.023"/>
    <polygon class="cls-4" points="603.3559 105.241 613.0955 162.8929 680.5952 143.3929 603.3559 105.241"/>
    <polygon class="cls-5" points="552.6243 100.8397 603.3559 105.241 613.0955 157.708 552.6243 100.8397"/>
    <polygon class="cls-10" points="517.1482 144.7836 552.6243 100.8397 528.5928 115.4601 517.1482 144.7836"/>
    <polygon class="cls-4" points="658.4863 296.632 688.0697 400.2842 695.3982 529.9469 658.4863 296.632"/>
    <polygon class="cls-5" points="680.6998 339.4918 657.7706 295.1439 688.0697 400.2842 680.6998 339.4918"/>
    <path class="cls-4" d="M695.3982,529.9469c-2.9988,2.1635-280.4988,96.0765-280.4988,96.0765l63.5-166.4348,216.9988,70.3583Z"/>
    <polygon class="cls-10" points="695.3982 626.0233 414.8994 626.0233 695.3982 529.9469 695.3982 626.0233"/>
    <polygon class="cls-5" points="501.4428 886.1973 695.3982 626.0233 500.4672 626.0233 501.4428 886.1973"/>
    <polygon class="cls-4" points="681.6167 863.9364 692.3994 626.0233 501.4428 886.1973 681.6167 863.9364"/>
    <polygon class="cls-5" points="414.8994 459.7625 478.3994 459.5886 414.8994 626.0233 414.8994 459.7625"/>
    <polygon class="cls-5" points="431.8776 939.7625 501.4428 886.1973 702.1385 939.7625 431.8776 939.7625"/>
    <polygon class="cls-5" points="681.6167 863.9364 748.3994 939.7625 501.4428 886.1973 681.6167 863.9364"/>
    <polygon class="cls-4" points="702.1385 939.7625 748.3994 939.7625 501.4428 886.1973 702.1385 939.7625"/>
    <polygon class="cls-5" points="526.6602 299.6755 514.7254 251.4986 549.6478 338.9151 526.6602 299.6755"/>
    <polygon class="cls-4" points="548.2254 340.9799 549.6478 338.9151 526.6602 299.6755 548.2254 340.9799"/>
  </g>
  <g id="Layer_5">
    <polygon class="cls-4" points="155.182 340.9799 163.2689 306.9581 167.4428 311.0668 155.182 340.9799"/>
    <polygon class="cls-5" points="184.1385 275.0668 163.2689 306.9581 167.4428 311.0668 184.1385 275.0668"/>
    <polygon class="cls-10" points="179.7037 272.3554 184.1385 275.0668 163.2689 306.9581 179.7037 272.3554"/>
    <polygon class="cls-10" points="169.8036 305.9764 189.6167 278.1973 184.1385 275.0668 169.8036 305.9764"/>
    <polygon class="cls-10" points="179.7037 272.3554 210.4863 229.4147 210.4863 254.7842 179.7037 272.3554"/>
    <polygon class="cls-5" points="189.6167 278.1973 210.4863 254.7842 179.7037 272.3554 189.6167 278.1973"/>
    <polygon class="cls-5" points="210.4863 229.4147 278.0515 174.632 210.4863 254.7842 210.4863 229.4147"/>
    <polygon class="cls-4" points="268.9211 212.3545 210.4863 254.7842 278.0515 174.632 268.9211 212.3545"/>
    <polygon class="cls-4" points="382.9211 138.1103 383.4877 173.5567 268.9211 212.3545 382.9211 138.1103"/>
    <polygon class="cls-10" points="278.0515 174.632 382.9211 138.1103 268.9211 212.3545 278.0515 174.632"/>
    <polygon class="cls-7" points="382.9211 202.0668 242.1023 231.8277 382.9211 173.5525 382.9211 202.0668"/>
    <polygon points="268.9211 212.3545 380.3124 174.632 242.1023 231.8277 268.9211 212.3545"/>
    <polygon points="296.4364 220.0748 222.7472 260.3168 242.1023 231.8277 296.4364 220.0748"/>
    <polygon class="cls-7" points="210.4863 254.7842 222.7472 260.3168 242.1023 231.8277 210.4863 254.7842"/>
    <polygon class="cls-7" points="155.182 340.9799 188.0515 293.0668 169.8036 305.9764 155.182 340.9799"/>
    <polygon points="210.4863 254.7842 189.6167 278.1973 222.7472 260.3168 210.4863 254.7842"/>
    <polygon points="188.0515 293.0668 189.6167 278.1973 169.8036 305.9764 188.0515 293.0668"/>
    <polygon class="cls-7" points="222.7472 260.3168 188.0515 293.0668 189.6167 278.1973 222.7472 260.3168"/>
    <polygon class="cls-10" points="382.9211 138.1103 395.7907 943.1538 399.9646 138.1103 382.9211 138.1103"/>
    <polygon class="cls-7" points="382.9211 943.1538 395.7907 943.1538 382.9211 138.1103 382.9211 943.1538"/>
  </g>
  <g id="Layer_6">
    <polygon class="cls-6" points="414.8994 460.5451 398.3994 442.1103 405.5298 471.5016 414.8994 460.5451"/>
    <polygon class="cls-1" points="414.8994 471.5016 414.8994 460.5451 405.5298 471.5016 414.8994 471.5016"/>
    <polygon class="cls-1" points="398.3994 442.1103 405.5298 471.5016 391.095 442.1103 398.3994 442.1103"/>
    <polygon class="cls-6" points="385.3559 450.4581 393.5638 447.1371 391.095 442.1103 385.3559 450.4581"/>
    <polygon class="cls-1" points="382.7472 447.1538 385.3559 450.4581 391.095 442.1103 382.7472 447.1538"/>
    <polygon class="cls-6" points="370.7472 451.5016 370.7472 455.1538 385.3559 453.3277 370.7472 451.5016"/>
    <polygon class="cls-1" points="383.9646 456.0233 385.3559 453.3277 370.7472 455.1538 383.9646 456.0233"/>
    <polygon class="cls-1" points="370.7472 451.5016 375.095 449.0668 385.3559 453.3277 370.7472 451.5016"/>
    <polygon class="cls-6" points="370.7472 460.5451 395.4428 461.5886 383.9646 467.6755 370.7472 460.5451"/>
    <polygon class="cls-1" points="394.3994 467.6755 383.9646 467.6755 395.4428 461.5886 394.3994 467.6755"/>
    <polygon class="cls-1" points="370.7472 460.5451 370.7472 467.6755 383.9646 467.6755 370.7472 460.5451"/>
    <polygon class="cls-1" points="370.7472 472.8929 370.7472 479.3277 396.6602 476.8929 370.7472 472.8929"/>
    <polygon class="cls-6" points="396.6602 472.8929 396.6602 476.8929 370.7472 472.8929 396.6602 472.8929"/>
    <polygon class="cls-6" points="372.1385 481.9364 395.4428 483.3277 395.4428 488.3712 372.1385 481.9364"/>
    <polygon class="cls-1" points="372.1385 487.6755 372.1385 481.9364 395.4428 488.3712 372.1385 487.6755"/>
    <polygon points="414.8994 488.3712 398.2257 473.5018 398.3994 456.983 414.8994 488.3712"/>
    <polygon points="405.5298 471.5016 414.8994 471.5016 414.8994 488.3712 405.5298 471.5016"/>
    <polygon points="398.3994 488.3712 414.8994 488.3712 398.2257 473.5018 398.3994 488.3712"/>
  </g>
</svg>