<?xml version="1.0" encoding="UTF-8"?>
<svg id="Layer_1" data-name="Layer 1" xmlns="http://www.w3.org/2000/svg" viewBox="0 0 64.82 66.51">
  <defs>
    <style>
      .cls-1 {
        fill: none;
      }

      .cls-2 {
        fill: #5861ac;
      }

      .cls-3 {
        fill: #ababab;
      }

      .cls-4 {
        fill: #565656;
      }

      .cls-5 {
        fill: #606161;
      }
    </style>
  </defs>
  <g>
    <path class="cls-3" d="M14.64,3.04l.31,12.2L21.33,1.67s-5.73.18-6.69,1.37"/>
    <polygon class="cls-3" points="52.3 2.57 59.39 14.13 62.88 11 52.3 2.57"/>
    <polygon class="cls-3" points="51.94 2.23 51.94 15.23 58.43 13.22 51.94 2.23"/>
    <path class="cls-3" d="M44.08,1.62s7.14.23,7.48,1.46l.13,12.14-7.6-13.6Z"/>
    <path class="cls-3" d="M43.62,1.43l2.47,14.84s4.6-.33,5.1-1.19l-7.57-13.65Z"/>
    <polygon class="cls-3" points="2.17 9.96 5.82 13.46 13.81 3.04 2.17 9.96"/>
    <path class="cls-3" d="M21.66,1.67l-6.27,13.8s2.63.83,6.29.79l-.02-14.59Z"/>
    <polygon class="cls-3" points="29.07 1.26 22.3 16.8 29.07 17.23 29.07 1.26"/>
    <path class="cls-3" d="M35.13,1.15l-5.05,15.69L42.47,1.61s-4.89-1.53-7.34-.46Z"/>
    <polygon class="cls-3" points="29.45 .44 29.45 17.23 35.13 .23 29.45 .44"/>
    <path class="cls-3" d="M22.02,1.67s4.66-1.38,6.66-.41l-6.66,14.78V1.67Z"/>
    <polygon class="cls-3" points="14.18 3.04 14.64 15.15 6.82 13.07 14.18 3.04"/>
    <path class="cls-3" d="M30.6,16.84L43.22,1.5l2.44,14.76s-13.22,1.34-14.6.65"/>
    <polygon class="cls-3" points="6.55 5.11 2.68 9.23 13.25 3.28 6.55 5.11"/>
    <polygon class="cls-3" points="54.14 3.93 61.99 10.15 58.72 5.07 54.14 3.93"/>
    <polygon class="cls-3" points="59.16 5.57 62.15 10.15 62.72 9.03 59.16 5.57"/>
  </g>
  <path class="cls-3" d="M3.44,13.23l21.49,52.59s-9.22-1.82-13.22-6.95L3.44,13.23Z"/>
  <path class="cls-4" d="M57.22,56.03l5.49-43.09-15,50.43s6.76-3.34,9.51-7.34Z"/>
  <path class="cls-4" d="M26.71,66.03L4.76,15.47s5.65,2.74,13.98,3.65l7.97,46.91Z"/>
  <path class="cls-4" d="M18.71,16.03l8.95,50s7.03.74,10.04.37L18.71,16.03Z"/>
  <polyline class="cls-3" points="20.71 19.03 38.71 66.03 35.49 20.03"/>
  <polygon class="cls-4" points="35.68 17.23 40.35 65.81 45.56 64.37 35.68 17.23"/>
  <path class="cls-4" d="M51.48,18.55l-5.01,45.36-9.78-43.95s6.98.11,14.79-1.41Z"/>
  <polyline class="cls-3" points="52.19 18.23 61.68 14.8 47.26 63.37 52.19 18.23"/>
  <polyline class="cls-2" points="4.87 13.91 2.71 9.03 6.82 13.07 4.87 13.91"/>
  <path class="cls-4" d="M32.77.03C20.86.03.71,2.14.71,10.03s20.15,10,32.06,10,32.06-2.11,32.06-10S44.67.03,32.77.03ZM32.77,17.03c-16.6,0-30.05-3.58-30.05-8S16.17,1.03,32.77,1.03s30.05,3.58,30.05,8-13.45,8-30.05,8Z"/>
  <polyline class="cls-3" points="6.38 16.13 5.14 13.61 6.82 13.07 6.38 16.13"/>
  <polyline class="cls-5" points="6.38 16.13 6.82 13.07 17.6 15.94 6.38 16.13"/>
  <polyline class="cls-5" points="33.58 19.79 32.77 17.03 41.6 17.82 33.58 19.79"/>
  <polyline class="cls-5" points="47.94 15.94 58.72 13.07 59.16 16.13 47.94 15.94"/>
  <polyline class="cls-3" points="59.16 16.13 58.72 13.07 61.68 12.8 59.16 16.13"/>
  <polyline class="cls-5" points="58.72 13.07 60.9 12.13 61.68 12.8 58.72 13.07"/>
  <polyline class="cls-3" points="62.82 9.03 59.16 3.93 64.82 9.93 62.82 9.03"/>
  <polyline class="cls-3" points=".71 10.03 2.71 9.03 5.14 13.61 .71 10.03"/>
  <polyline class="cls-3" points="2.71 9.03 .71 10.03 6.38 3.93 2.71 9.03"/>
  <polyline class="cls-5" points="46.09 18.41 41.6 17.82 47.94 15.94 46.09 18.41"/>
  <polyline class="cls-5" points="5.14 13.61 2.71 9.03 6.82 13.07 5.14 13.61"/>
  <polyline class="cls-3" points="17.6 2.13 6.38 3.93 19.16 .87 17.6 2.13"/>
  <polyline class="cls-5" points="2.71 9.03 6.38 3.93 6.82 5 2.71 9.03"/>
  <polyline class="cls-5" points="6.82 5 17.6 2.13 6.38 3.93 6.82 5"/>
  <polyline class="cls-5" points="59.16 16.13 61.68 12.8 64.82 10.03 59.16 16.13"/>
  <polyline class="cls-3" points="47.94 2.13 46.37 .87 59.16 3.93 47.94 2.13"/>
  <polyline class="cls-5" points="58.72 5 47.94 2.13 59.16 3.93 58.72 5"/>
  <polyline class="cls-4" points="58.72 5 59.16 3.93 62.82 9.03 58.72 5"/>
  <polyline class="cls-5" points="32.77 20.03 19.16 19.2 32.81 19.64 32.77 20.03"/>
  <polyline class="cls-3" points="19.16 19.2 32.77 17.03 32.81 19.64 19.16 19.2"/>
  <polyline class="cls-5" points="19.16 19.2 17.6 15.94 32.77 17.03 19.16 19.2"/>
  <polyline class="cls-5" points="41.6 17.82 46.09 18.41 46.37 19.2 41.6 17.82"/>
  <polyline class="cls-5" points="46.37 19.2 46.09 18.41 47.94 15.94 46.37 19.2"/>
  <polyline class="cls-3" points="33.58 19.79 41.6 17.82 46.37 19.2 33.58 19.79"/>
  <polyline class="cls-3" points="46.37 19.2 47.94 15.94 59.16 16.13 46.37 19.2"/>
  <polyline class="cls-5" points="32.77 20.03 33.58 19.79 46.37 19.2 32.77 20.03"/>
  <path class="cls-1" d="M17.54,2.32s6.31-1.47,15.22-1.28"/>
  <path class="cls-1" d="M35.4,1.06s10.85.82,12.07.99"/>
  <polygon class="cls-5" points="19.16 .87 26.45 1.2 17.6 2.13 19.16 .87"/>
  <path class="cls-3" d="M19.16.87l7.48.28L29.45.09s-7.8.43-10.28.79Z"/>
  <polygon class="cls-3" points="29.45 .09 31.81 1.02 32.68 .03 29.45 .09"/>
  <path class="cls-3" d="M32.68.03l9.4,1.39,1.13-.9S32.68-.16,32.68.03Z"/>
  <polygon class="cls-3" points="43.22 .53 46.09 1.86 46.37 .87 43.22 .53"/>
  <polygon class="cls-3" points="6.38 16.13 19.16 19.2 17.6 15.94 6.38 16.13 4.68 15.23 3.63 14.65 3.72 12.46 6.38 16.13"/>
  <polygon class="cls-4" points=".71 10.03 3.63 14.65 3.72 12.46 .71 10.03"/>
  <polygon class="cls-3" points=".71 10.03 3.63 14.65 1.41 12.44 .71 10.03"/>
  <path class="cls-4" d="M2.25,6.56l.21,1.58-1.75,1.88s.1-2.13,1.54-3.47Z"/>
  <path class="cls-3" d="M2.25,6.56l2.16-.51,1.97-2.13s-2.57.97-4.13,2.63Z"/>
</svg>