<?xml version="1.0" encoding="UTF-8"?>
<svg xmlns="http://www.w3.org/2000/svg" viewBox="0 0 64.11 66.78">
  <defs>
    <style>
      .cls-1 {
        fill: none;
      }

      .cls-2 {
        fill: #5861ac;
      }

      .cls-3 {
        fill: #ababab;
      }

      .cls-4 {
        fill: #565656;
      }

      .cls-5 {
        fill: #606161;
      }

      .cls-6 {
        fill: #293592;
      }
    </style>
  </defs>
  <g id="Layer_13" data-name="Layer 13">
    <g id="Layer_8" data-name="Layer 8">
      <path class="cls-3" d="M3.02,14.7l21.49,51.29s-9.22-1.78-13.22-6.78L3.02,14.7Z"/>
      <path class="cls-4" d="M56.8,56.21l5.49-43.09-15,50.43s6.76-3.34,9.51-7.34Z"/>
      <path class="cls-4" d="M26.29,66.21L4.34,15.65s5.65,2.74,13.98,3.65l7.97,46.91Z"/>
      <path class="cls-4" d="M18.29,16.21l8.95,50s7.03.74,10.04.37L18.29,16.21Z"/>
      <polyline class="cls-3" points="20.29 19.21 38.29 66.21 35.07 20.21"/>
      <polygon class="cls-4" points="35.29 17.21 39.93 65.99 45.14 64.61 35.29 17.21"/>
      <path class="cls-4" d="M51.06,18.21l-4.64,45.87-9.05-44.45s6.46.11,13.69-1.42Z"/>
      <polyline class="cls-3" points="51.77 18.41 61.26 14.98 46.84 63.55 51.77 18.41"/>
    </g>
  </g>
  <g id="Layer_7" data-name="Layer 7">
    <path class="cls-6" d="M14.32,3.31l.31,12.2L21.01,1.94s-5.73.18-6.69,1.37"/>
    <polygon class="cls-6" points="51.98 2.84 59.07 14.39 62.56 11.27 51.98 2.84"/>
    <polygon class="cls-6" points="52.46 2.85 63.29 11.21 60.29 5.21 52.46 2.85"/>
    <polygon class="cls-6" points="51.62 2.49 51.62 15.49 58.11 13.49 51.62 2.49"/>
    <path class="cls-6" d="M43.76,1.89s7.14.23,7.48,1.46l.13,12.14-7.6-13.6Z"/>
    <path class="cls-6" d="M43.3,1.7l2.47,14.84s4.6-.33,5.1-1.19l-7.57-13.65Z"/>
    <polygon class="cls-6" points="1.85 10.23 5.5 13.73 13.49 3.31 1.85 10.23"/>
    <path class="cls-6" d="M21.35,1.94l-6.27,13.8s2.63.83,6.29.79l-.02-14.59Z"/>
    <polygon class="cls-6" points="28.75 1.53 21.98 17.07 28.75 17.49 28.75 1.53"/>
    <path class="cls-6" d="M34.81,1.42l-5.05,15.69L42.15,1.88s-4.89-1.53-7.34-.46Z"/>
    <polygon class="cls-6" points="29.13 .71 29.13 17.49 34.81 .49 29.13 .71"/>
    <path class="cls-6" d="M21.71,1.94s4.66-1.38,6.66-.41l-6.66,14.78V1.94Z"/>
    <polygon class="cls-6" points="13.86 3.31 14.32 15.42 6.5 13.34 13.86 3.31"/>
    <path class="cls-6" d="M30.28,17.11L42.9,1.77l2.44,14.76s-13.22,1.34-14.6.65"/>
    <polygon class="cls-6" points="6.42 4.97 2.37 9.49 13.29 3.21 6.42 4.97"/>
    <g>
      <polyline class="cls-2" points="4.16 13.91 2 9.03 6.11 13.07 4.16 13.91"/>
      <path class="cls-4" d="M32.06.03C20.15.03,0,2.14,0,10.03s20.15,10,32.06,10,32.06-2.11,32.06-10S43.96.03,32.06.03ZM32.06,17.03c-16.6,0-30.05-3.58-30.05-8S15.46,1.03,32.06,1.03s30.05,3.58,30.05,8-13.45,8-30.05,8Z"/>
      <polyline class="cls-3" points="5.66 16.13 4.42 13.61 6.11 13.07 5.66 16.13"/>
      <polyline class="cls-5" points="5.66 16.13 6.11 13.07 16.89 15.94 5.66 16.13"/>
      <polyline class="cls-5" points="32.87 19.79 32.06 17.03 40.89 17.82 32.87 19.79"/>
      <polyline class="cls-5" points="47.22 15.94 58 13.07 58.45 16.13 47.22 15.94"/>
      <polyline class="cls-3" points="58.45 16.13 58 13.07 60.97 12.8 58.45 16.13"/>
      <polyline class="cls-5" points="58 13.07 60.19 12.13 60.97 12.8 58 13.07"/>
      <polyline class="cls-3" points="62.11 9.03 58.45 3.93 64.11 9.93 62.11 9.03"/>
      <polyline class="cls-3" points="0 10.03 2 9.03 4.42 13.61 0 10.03"/>
      <polyline class="cls-3" points="2 9.03 0 10.03 5.66 3.93 2 9.03"/>
      <polyline class="cls-5" points="45.38 18.41 40.89 17.82 47.22 15.94 45.38 18.41"/>
      <polyline class="cls-5" points="4.42 13.61 2 9.03 6.11 13.07 4.42 13.61"/>
      <polyline class="cls-3" points="16.89 2.13 5.66 3.93 18.45 .87 16.89 2.13"/>
      <polyline class="cls-5" points="2 9.03 5.66 3.93 6.11 5 2 9.03"/>
      <polyline class="cls-5" points="6.11 5 5.66 3.93 16.89 2.13 6.11 5"/>
      <polyline class="cls-5" points="62.11 9.13 60.19 12.13 62.11 9.03 62.11 9.13"/>
      <polyline class="cls-3" points="60.97 12.8 62.11 9.13 64.11 10.03 60.97 12.8"/>
      <polyline class="cls-5" points="58.45 16.13 60.97 12.8 64.11 10.03 58.45 16.13"/>
      <polyline class="cls-3" points="47.22 2.13 45.66 .87 58.45 3.93 47.22 2.13"/>
      <polyline class="cls-5" points="58 5 47.22 2.13 58.45 3.93 58 5"/>
      <polyline class="cls-4" points="58 5 58.45 3.93 62.11 9.03 58 5"/>
      <polyline class="cls-5" points="32.06 20.03 18.45 19.2 32.1 19.64 32.06 20.03"/>
      <polyline class="cls-3" points="18.45 19.2 32.06 17.03 32.1 19.64 18.45 19.2"/>
      <polyline class="cls-5" points="18.45 19.2 16.89 15.94 32.06 17.03 18.45 19.2"/>
      <polyline class="cls-5" points="40.89 17.82 45.38 18.41 45.66 19.2 40.89 17.82"/>
      <polyline class="cls-5" points="45.66 19.2 45.38 18.41 47.22 15.94 45.66 19.2"/>
      <polyline class="cls-3" points="32.87 19.79 40.89 17.82 45.66 19.2 32.87 19.79"/>
      <polyline class="cls-3" points="45.66 19.2 47.22 15.94 58.45 16.13 45.66 19.2"/>
      <polyline class="cls-5" points="32.06 20.03 32.87 19.79 45.66 19.2 32.06 20.03"/>
      <path class="cls-1" d="M16.83,2.32s6.31-1.47,15.22-1.28"/>
      <path class="cls-1" d="M34.69,1.06s10.85.82,12.07.99"/>
      <polygon class="cls-5" points="18.45 .87 25.74 1.2 16.89 2.13 18.45 .87"/>
      <path class="cls-3" d="M18.45.87l7.48.28L28.74.09s-7.8.43-10.28.79Z"/>
      <polygon class="cls-3" points="28.74 .09 31.1 1.02 31.97 .03 28.74 .09"/>
      <path class="cls-3" d="M31.97.03l9.4,1.39,1.13-.9S31.97-.16,31.97.03Z"/>
      <polygon class="cls-3" points="42.51 .53 45.38 1.86 45.66 .87 42.51 .53"/>
      <polygon class="cls-3" points="5.66 16.13 18.45 19.2 16.89 15.94 5.66 16.13 3.97 15.23 2.92 14.65 3.01 12.46 5.66 16.13"/>
      <polygon class="cls-4" points="0 10.03 2.92 14.65 3.01 12.46 0 10.03"/>
      <polygon class="cls-3" points="0 10.03 2.92 14.65 .7 12.44 0 10.03"/>
      <path class="cls-4" d="M1.54,6.56l.21,1.58-1.75,1.88s.1-2.13,1.54-3.47Z"/>
      <path class="cls-3" d="M1.54,6.56l2.16-.51,1.97-2.13s-2.57.97-4.13,2.63Z"/>
    </g>
  </g>
</svg>